<svg id="Layer_1" data-name="Layer 1" xmlns="http://www.w3.org/2000/svg" viewBox="0 0 300.48 106.01"><defs><style>.cls-1,.cls-2,.cls-4,.cls-7{fill:none;}.cls-1{stroke:#2f6eb2;}.cls-1,.cls-2,.cls-4{stroke-miterlimit:10;}.cls-2{stroke:#f4602c;stroke-width:1.5px;}.cls-3{fill:#f4602c;}.cls-4{stroke:#0c772a;}.cls-5{fill:#0c772a;}.cls-6{fill:#3ad836;}.cls-7{stroke:#000;stroke-linejoin:round;}.cls-8{font-size:9px;font-family:CMUSansSerif, CMU Sans Serif;}</style></defs><title>interactions</title><rect class="cls-1" x="0.5" y="17.34" width="140.87" height="88.17" rx="21.13"/><path class="cls-2" d="M94.74,72.74h-6.5c-4,0-3,11.9-4.74,12-1.26,0-1.47-24.6-3.18-27.29s-1.85,35.09-3.87,37.37S74.36,47.4,72.13,45.61s-2.29,57.2-4.67,58.5c-1.5.81-2.89-64.27-4.92-64.28s-3.16,67.91-5.3,67.91-3.24-67.9-5.3-67.9S48.52,104.93,47,104.12c-2.38-1.3-2.39-60.18-4.67-58.5S40.12,97,38,94.83s-2-40.09-3.87-37.42S32.24,84.74,31,84.74c-1.74-.11-.74-12-4.74-12h-6.5" transform="translate(-7.85 -5.88)"/><polygon class="cls-3" points="97.48 66.85 82.56 60.75 86.1 66.85 82.56 72.94 97.48 66.85"/><line class="cls-4" x1="127.4" y1="66.84" x2="114.73" y2="66.84"/><polygon class="cls-5" points="110.16 66.84 116.62 64.22 115.08 66.84 116.62 69.49 110.16 66.84"/><circle class="cls-6" cx="126.22" cy="66.85" r="3.91"/><path class="cls-5" d="M134.07,69.33a3.4,3.4,0,1,1-3.4,3.39,3.4,3.4,0,0,1,3.4-3.39m0-1a4.42,4.42,0,1,0,4.42,4.41,4.41,4.41,0,0,0-4.42-4.41Z" transform="translate(-7.85 -5.88)"/><path d="M52.83,33.13v-5.2h.55v5.2Z" transform="translate(-7.85 -5.88)"/><path d="M54.28,32.32a.67.67,0,0,1,.2-.47,1.07,1.07,0,0,1,.53-.29,3.71,3.71,0,0,1,.64-.15,3.21,3.21,0,0,1,.62,0v-.29a1,1,0,0,0-.18-.66.53.53,0,0,0-.46-.22,1.85,1.85,0,0,0-1.08.37v-.48a2.2,2.2,0,0,1,1.13-.32,1.12,1.12,0,0,1,.83.33,1.11,1.11,0,0,1,.36.79v2.2h-.54v-.2h-.17a2.78,2.78,0,0,1-1.07.24.75.75,0,0,1-.61-.24A1.23,1.23,0,0,1,54.28,32.32Zm.52,0a.44.44,0,0,0,.19.33.83.83,0,0,0,.48.13,1.27,1.27,0,0,0,.55-.13.46.46,0,0,0,.25-.45v-.48h-.45l-.44.12A1,1,0,0,0,55,32a.38.38,0,0,0-.19.28Z" transform="translate(-7.85 -5.88)"/><path d="M57.61,32.93l.09-.49.09.06.12.06.13.07.16.07h.62a.77.77,0,0,0,.56-.09.46.46,0,0,0,.16-.34.38.38,0,0,0-.16-.34.61.61,0,0,0-.28-.16l-.32-.07-.4-.05a1.56,1.56,0,0,1-.52-.32.87.87,0,0,1-.22-.57.81.81,0,0,1,0-.31,1,1,0,0,1,.16-.3.77.77,0,0,1,.44-.22,1.49,1.49,0,0,1,.59-.09,2.43,2.43,0,0,1,1,.22l-.08.48h-1a.64.64,0,0,0-.47.14.45.45,0,0,0-.14.3.42.42,0,0,0,.27.05,2.09,2.09,0,0,0,.54.16,1.61,1.61,0,0,1,.49.13,1,1,0,0,1,.44.35.78.78,0,0,1,.18.55.86.86,0,0,1,0,.32.9.9,0,0,1-.17.32.84.84,0,0,1-.36.25,1.63,1.63,0,0,1-.59.1A2.68,2.68,0,0,1,57.61,32.93Z" transform="translate(-7.85 -5.88)"/><path d="M60.38,31.5a1.86,1.86,0,0,1,.43-1.2,1.28,1.28,0,0,1,1-.49.94.94,0,0,1,.47.12,1.23,1.23,0,0,1,.4.23,1,1,0,0,1,.32.47,2.15,2.15,0,0,1,.16.76v.2H60.92a1.49,1.49,0,0,0,.33.88,1,1,0,0,0,.74.34,1.93,1.93,0,0,0,1.09-.39v.47a2.09,2.09,0,0,1-1.14.37,1.45,1.45,0,0,1-1.13-.51A1.85,1.85,0,0,1,60.38,31.5Zm.54-.36H62.7a1.24,1.24,0,0,0-.15-.47.75.75,0,0,0-.5-.38h-.22a.72.72,0,0,0-.6.28,1.43,1.43,0,0,0-.27.57Z" transform="translate(-7.85 -5.88)"/><path d="M64,33.13v-3.2h.51v.6a1.09,1.09,0,0,1,.21-.26,1.33,1.33,0,0,1,.41-.27,1.46,1.46,0,0,1,.64-.15v.48a1,1,0,0,0-.38.07,1.75,1.75,0,0,0-.39.19,1,1,0,0,0-.33.41,1.53,1.53,0,0,0-.13.64v1.49Z" transform="translate(-7.85 -5.88)"/><path d="M131.05,62.19a1.76,1.76,0,0,1,.43-1.2,1.28,1.28,0,0,1,1-.49,1,1,0,0,1,.41.07,1.16,1.16,0,0,1,.39.22,1,1,0,0,1,.33.48,1.9,1.9,0,0,1,.15.75v.21h-2.23a1.43,1.43,0,0,0,.33.88,1,1,0,0,0,.74.34,1.8,1.8,0,0,0,1.09-.4l.05.48a2.3,2.3,0,0,1-1.14.37,1.45,1.45,0,0,1-1.13-.51A1.83,1.83,0,0,1,131.05,62.19Zm.54-.36h1.78a1.24,1.24,0,0,0-.15-.47.7.7,0,0,0-.26-.28.8.8,0,0,0-.25-.11h-.21a.78.78,0,0,0-.6.28,1.36,1.36,0,0,0-.31.61Z" transform="translate(-7.85 -5.88)"/><path d="M134.49,59.37v-.46h2.6v.46Z" transform="translate(-7.85 -5.88)"/><rect class="cls-1" x="159.11" y="17.34" width="140.87" height="88.17" rx="21.13"/><path class="cls-2" d="M253.35,72.74h-6.5c-4,0-3,11.9-4.74,12-1.26,0-1.47-24.6-3.18-27.29s-1.85,35.09-3.87,37.37S233,47.4,230.74,45.61s-2.29,57.2-4.67,58.5c-1.5.81-2.89-64.27-4.92-64.28s-3.16,67.91-5.3,67.91-3.24-67.9-5.3-67.9-3.42,65.09-4.92,64.28c-2.38-1.3-2.39-60.18-4.67-58.5S198.73,97,196.64,94.83s-2-40.09-3.87-37.42-1.92,27.33-3.18,27.33c-1.74-.11-.74-12-4.74-12h-6.5" transform="translate(-7.85 -5.88)"/><polygon class="cls-3" points="256.09 66.85 241.17 60.75 244.71 66.85 241.17 72.94 256.09 66.85"/><path d="M211.44,33.13v-5.2H212v5.2Z" transform="translate(-7.85 -5.88)"/><path d="M212.89,32.32a.63.63,0,0,1,.2-.47,1,1,0,0,1,.53-.29,3.71,3.71,0,0,1,.64-.15,3.21,3.21,0,0,1,.62,0v-.29a1.08,1.08,0,0,0-.18-.66.53.53,0,0,0-.46-.22,1.85,1.85,0,0,0-1.08.37v-.48a2.15,2.15,0,0,1,1.13-.32,1.12,1.12,0,0,1,.83.33,1.11,1.11,0,0,1,.36.79v2.2h-.54v-.2h-.17a2.78,2.78,0,0,1-1.07.24.73.73,0,0,1-.61-.24A1.23,1.23,0,0,1,212.89,32.32Zm.52,0a.41.41,0,0,0,.19.33.81.81,0,0,0,.48.13,1.31,1.31,0,0,0,.55-.13.46.46,0,0,0,.25-.45v-.48h-.45l-.44.12a1,1,0,0,0-.39.18.36.36,0,0,0-.19.28Z" transform="translate(-7.85 -5.88)"/><path d="M216.22,32.93l.09-.49.09.06.12.06.13.07.16.07h.62a.78.78,0,0,0,.56-.09.46.46,0,0,0,.16-.34.38.38,0,0,0-.16-.34.61.61,0,0,0-.28-.16l-.32-.07-.4-.05a1.56,1.56,0,0,1-.52-.32.78.78,0,0,1-.22-.57.81.81,0,0,1,0-.31,1,1,0,0,1,.16-.3.77.77,0,0,1,.44-.22,1.49,1.49,0,0,1,.59-.09,2.43,2.43,0,0,1,1,.22l-.08.48h-1a.63.63,0,0,0-.47.14.45.45,0,0,0-.14.3A.42.42,0,0,0,217,31a2.09,2.09,0,0,0,.54.16,1.61,1.61,0,0,1,.49.13,1,1,0,0,1,.44.35.78.78,0,0,1,.18.55.86.86,0,0,1,0,.32.9.9,0,0,1-.17.32.84.84,0,0,1-.36.25,1.7,1.7,0,0,1-.59.1A2.66,2.66,0,0,1,216.22,32.93Z" transform="translate(-7.85 -5.88)"/><path d="M219,31.5a1.8,1.8,0,0,1,.43-1.2,1.28,1.28,0,0,1,1-.49.94.94,0,0,1,.47.12,1.23,1.23,0,0,1,.4.23,1,1,0,0,1,.32.47,2.15,2.15,0,0,1,.16.76v.2h-2.24a1.43,1.43,0,0,0,.33.88,1,1,0,0,0,.74.34,1.93,1.93,0,0,0,1.09-.39v.47a2.09,2.09,0,0,1-1.14.37,1.45,1.45,0,0,1-1.13-.51A1.85,1.85,0,0,1,219,31.5Zm.54-.36h1.78a1.24,1.24,0,0,0-.15-.47.77.77,0,0,0-.5-.38h-.22a.72.72,0,0,0-.6.28,1.43,1.43,0,0,0-.27.57Z" transform="translate(-7.85 -5.88)"/><path d="M222.56,33.13v-3.2h.51v.6a1.09,1.09,0,0,1,.21-.26,1.22,1.22,0,0,1,.41-.27,1.43,1.43,0,0,1,.64-.15v.48a1,1,0,0,0-.38.07,1.56,1.56,0,0,0-.39.19.89.89,0,0,0-.33.41,1.53,1.53,0,0,0-.13.64v1.49Z" transform="translate(-7.85 -5.88)"/><path class="cls-7" d="M302.94,72.72h-.63a2.94,2.94,0,0,0-2.77,2c-.41,1.15-.9,2-1.63,2-2.22,0-2.22-7.94-4.44-7.94s-2.21,7.94-4.43,7.94-2.21-7.94-4.43-7.94-2.21,7.94-4.43,7.94c-.73,0-1.22-.86-1.62-2a2.94,2.94,0,0,0-2.77-2H274.4" transform="translate(-7.85 -5.88)"/><polygon points="267.8 65.21 267.1 66.85 267.8 68.49 263.91 66.85 267.8 65.21"/><text class="cls-8" transform="translate(280.82 57.91)">γ</text><path d="M21,12.13v-.42h1V6.43H21V6h5.59l.28,2.17h-.42a4.91,4.91,0,0,0-.11-.61,2.07,2.07,0,0,0-.18-.47,1.06,1.06,0,0,0-.32-.37,1.24,1.24,0,0,0-.49-.22,3.13,3.13,0,0,0-.73-.08H23.21V8.75h.5c.4,0,.66-.08.77-.25a1.38,1.38,0,0,0,.18-.81h.42v2.53h-.42a1.41,1.41,0,0,0-.18-.81c-.11-.16-.37-.24-.77-.24h-.5v2.54h1.37a3.76,3.76,0,0,0,.71-.06,1.5,1.5,0,0,0,.53-.2,1.55,1.55,0,0,0,.36-.3,1.1,1.1,0,0,0,.25-.41,2.7,2.7,0,0,0,.15-.49c0-.16.07-.35.11-.59h.43l-.42,2.47Z" transform="translate(-7.85 -5.88)"/><path d="M27.82,12.13v-.42h.63v-5c0-.17,0-.27-.1-.3a1.4,1.4,0,0,0-.53,0V6l1.6-.07v5.82H30v.42l-1.11,0Z" transform="translate(-7.85 -5.88)"/><path d="M30.56,10.1a2,2,0,0,1,.59-1.46,2.22,2.22,0,0,1,1.63-.59,1.94,1.94,0,0,1,1.43.49,1.86,1.86,0,0,1,.51,1.38q0,.18-.06.21a.43.43,0,0,1-.23,0H31.71c0,1.1.43,1.65,1.27,1.65h0a1.45,1.45,0,0,0,.77-.2,1.07,1.07,0,0,0,.48-.51.45.45,0,0,1,.09-.16.3.3,0,0,1,.16,0c.15,0,.23.05.23.16a.51.51,0,0,1,0,.17,1.07,1.07,0,0,1-.18.28,1.88,1.88,0,0,1-.32.31,1.54,1.54,0,0,1-.53.24,2.39,2.39,0,0,1-.73.1,2.41,2.41,0,0,1-1.71-.58A1.9,1.9,0,0,1,30.56,10.1Zm1.15-.23h2.15c0-1-.39-1.49-1.08-1.49a1,1,0,0,0-.85.46A2.35,2.35,0,0,0,31.71,9.87Z" transform="translate(-7.85 -5.88)"/><path d="M35.36,10.13a2.05,2.05,0,0,1,.57-1.47,2.21,2.21,0,0,1,1.7-.61c1.06,0,1.59.28,1.59.83a.51.51,0,0,1-.17.42.6.6,0,0,1-.4.15.62.62,0,0,1-.4-.15.56.56,0,0,1,0-.83,2.43,2.43,0,0,0-.59-.06,1.15,1.15,0,0,0-.57.14,1,1,0,0,0-.34.3,1,1,0,0,0-.17.44,2.25,2.25,0,0,0-.07.42c0,.1,0,.23,0,.38,0,1.15.42,1.73,1.25,1.73a1.14,1.14,0,0,0,1.15-.74A.72.72,0,0,1,39,11a.4.4,0,0,1,.15,0c.14,0,.21,0,.21.13a.7.7,0,0,1,0,.14,1.43,1.43,0,0,1-.16.27,1.5,1.5,0,0,1-.3.32,1.57,1.57,0,0,1-.52.26,2.17,2.17,0,0,1-.74.11A2.28,2.28,0,0,1,36,11.61,1.94,1.94,0,0,1,35.36,10.13Z" transform="translate(-7.85 -5.88)"/><path d="M39.8,8.56V8.23a1.13,1.13,0,0,0,1-.55,2.22,2.22,0,0,0,.36-1.26h.43V8.14h1.31v.42H41.57V11c0,.52.17.78.52.78a.44.44,0,0,0,.37-.2,1,1,0,0,0,.17-.62v-.46h.42V11a1.24,1.24,0,0,1-.29.84,1,1,0,0,1-.8.33c-1,0-1.42-.38-1.42-1.16V8.56Z" transform="translate(-7.85 -5.88)"/><path d="M44.06,12.13v-.42h.53V8.93c0-.17,0-.27-.08-.3a1.06,1.06,0,0,0-.45-.05V8.15l1.5-.07v1q.36-1,1.17-1a1.14,1.14,0,0,1,.65.2.61.61,0,0,1,.28.54.53.53,0,0,1-.17.4.6.6,0,0,1-.4.15.63.63,0,0,1-.41-.15.5.5,0,0,1-.17-.4.58.58,0,0,1,.18-.42.87.87,0,0,0-.55.18,1.09,1.09,0,0,0-.36.46,4.3,4.3,0,0,0-.17.55,3.29,3.29,0,0,0,0,.54v1.58h.78v.42c-.21,0-.6,0-1.18,0Z" transform="translate(-7.85 -5.88)"/><path d="M48.18,10.17a2,2,0,0,1,.6-1.52,2.31,2.31,0,0,1,1.69-.6,2.29,2.29,0,0,1,1.68.6,2,2,0,0,1,.61,1.52,1.9,1.9,0,0,1-.6,1.44,2.79,2.79,0,0,1-3.38,0A1.9,1.9,0,0,1,48.18,10.17Zm1.15-.1v.41c0,.09,0,.22,0,.39a1.09,1.09,0,0,0,.1.38,2.82,2.82,0,0,0,.19.29.71.71,0,0,0,.33.22,1.65,1.65,0,0,0,.48.06,1.75,1.75,0,0,0,.48-.06.74.74,0,0,0,.32-.22,1.91,1.91,0,0,0,.2-.29,1.37,1.37,0,0,0,.1-.38c0-.17,0-.3,0-.39v-.41a2.65,2.65,0,0,0-.19-1.24,1,1,0,0,0-1-.45,1,1,0,0,0-1,.52A3,3,0,0,0,49.33,10.07Z" transform="translate(-7.85 -5.88)"/><path d="M53.51,12.13v-.42h.57V8.93q0-.25-.09-.3a1.15,1.15,0,0,0-.48-.05V8.15l1.54-.07v1a1.65,1.65,0,0,1,1.56-1,1.53,1.53,0,0,1,1,.3,1.29,1.29,0,0,1,.34,1v2.34h.62v.42l-1.14,0-1.13,0v-.42H57V9.28a1.35,1.35,0,0,0-.13-.68.43.43,0,0,0-.37-.2,1.37,1.37,0,0,0-.92.38,1.33,1.33,0,0,0-.42,1.05v1.88h.62v.42l-1.11,0Z" transform="translate(-7.85 -5.88)"/><path d="M58.91,10.57V9.69h2.75v.88Z" transform="translate(-7.85 -5.88)"/><path d="M62.59,12.13v-.42h1V6.38h-1V6c.23,0,.78,0,1.65,0s1.56,0,1.82,0v.42H64.84v5.33h.93a2,2,0,0,0,.61-.09,1.56,1.56,0,0,0,.45-.2,1.44,1.44,0,0,0,.32-.33,2.05,2.05,0,0,0,.21-.36,1.48,1.48,0,0,0,.13-.39,1.82,1.82,0,0,0,.07-.36c0-.08,0-.18,0-.32h.45l-.3,2.47Z" transform="translate(-7.85 -5.88)"/><path d="M68.75,11.16c0-.86,1-1.33,2.91-1.42v-.3c0-.71-.32-1.06-1-1.06a3.37,3.37,0,0,0-.66.06.49.49,0,0,1,.22.44.52.52,0,0,1-.18.42.68.68,0,0,1-.43.15.53.53,0,0,1-.37-.15.51.51,0,0,1-.17-.42c0-.55.53-.82,1.6-.83a2.41,2.41,0,0,1,1.47.38,1.19,1.19,0,0,1,.5,1v1.93a.62.62,0,0,0,0,.18s.06.07.14.11a1.27,1.27,0,0,0,.39.05h.12a.1.1,0,0,1,.07,0,.2.2,0,0,1,0,.14.23.23,0,0,1-.07.19.57.57,0,0,1-.22,0h-.43a2,2,0,0,1-.55-.06.55.55,0,0,1-.28-.19.81.81,0,0,1-.09-.21,1.4,1.4,0,0,1,0-.23,1.35,1.35,0,0,1-1.3.74,3.31,3.31,0,0,1-.55,0,2.63,2.63,0,0,1-.57-.14,1,1,0,0,1-.46-.32A.78.78,0,0,1,68.75,11.16Zm1,0a.6.6,0,0,0,.25.5.92.92,0,0,0,.61.21.81.81,0,0,0,.25,0,1.65,1.65,0,0,0,.34-.13.72.72,0,0,0,.3-.3.94.94,0,0,0,.13-.51V10a2.25,2.25,0,0,0-.38,0,3.1,3.1,0,0,0-.47.09,3.25,3.25,0,0,0-.51.19,1.08,1.08,0,0,0-.36.32A.78.78,0,0,0,69.78,11.15Z" transform="translate(-7.85 -5.88)"/><path d="M73.83,11.93V11a.54.54,0,0,1,0-.22s.08,0,.19,0l.15,0s0,0,.06.11.08.23.12.33.12.2.21.33a.89.89,0,0,0,.39.28,1.47,1.47,0,0,0,.58.1c.68,0,1-.23,1-.68a.52.52,0,0,0-.11-.32.59.59,0,0,0-.29-.21,1.36,1.36,0,0,0-.31-.1l-.3-.06-.6-.12a2.14,2.14,0,0,1-.4-.14,1.58,1.58,0,0,1-.39-.24.94.94,0,0,1-.36-.75,1.15,1.15,0,0,1,.1-.5.93.93,0,0,1,.27-.34,2.57,2.57,0,0,1,.35-.2,1.59,1.59,0,0,1,.39-.1l.33,0h.22a2,2,0,0,1,.91.18,2,2,0,0,1,.4-.18.17.17,0,0,1,.14,0,.53.53,0,0,1,0,.21V9a.48.48,0,0,1,0,.22.3.3,0,0,1-.19,0c-.09,0-.14,0-.16,0a.21.21,0,0,1,0-.14c-.05-.5-.4-.75-1.06-.75s-1,.2-1,.61a.49.49,0,0,0,.07.28c0,.08,0,.11-.07.07l-.14,0,1.06.22.72.17a1.59,1.59,0,0,1,.62.26,1.17,1.17,0,0,1,.49.95,1.32,1.32,0,0,1-.1.55.83.83,0,0,1-.27.38,2.25,2.25,0,0,1-.35.22,1.12,1.12,0,0,1-.39.11,1.77,1.77,0,0,1-.33,0h-.22a1.8,1.8,0,0,1-1.07-.29l-.23.16a.54.54,0,0,1-.26.13h0c-.07,0-.12,0-.13,0A.43.43,0,0,1,73.83,11.93Z" transform="translate(-7.85 -5.88)"/><path d="M77.85,10.1a2,2,0,0,1,.59-1.46,2.22,2.22,0,0,1,1.63-.59,1.94,1.94,0,0,1,1.43.49A1.86,1.86,0,0,1,82,9.92q0,.18-.06.21a.43.43,0,0,1-.23,0H79c0,1.1.43,1.65,1.27,1.65h0a1.45,1.45,0,0,0,.77-.2,1.07,1.07,0,0,0,.48-.51.45.45,0,0,1,.09-.16.28.28,0,0,1,.16,0c.15,0,.23.05.23.16a.51.51,0,0,1-.05.17,2.1,2.1,0,0,1-.18.28,1.88,1.88,0,0,1-.32.31,1.54,1.54,0,0,1-.53.24,2.39,2.39,0,0,1-.73.1,2.41,2.41,0,0,1-1.71-.58A1.9,1.9,0,0,1,77.85,10.1ZM79,9.87h2.15c0-1-.39-1.49-1.08-1.49a1,1,0,0,0-.85.46A2.35,2.35,0,0,0,79,9.87Z" transform="translate(-7.85 -5.88)"/><path d="M82.73,12.13v-.42h.53V8.93c0-.17,0-.27-.08-.3a1,1,0,0,0-.45-.05V8.15l1.5-.07v1q.36-1,1.17-1a1.11,1.11,0,0,1,.65.2.61.61,0,0,1,.28.54.53.53,0,0,1-.17.4.6.6,0,0,1-.4.15.59.59,0,0,1-.4-.15.48.48,0,0,1-.18-.4.58.58,0,0,1,.18-.42.87.87,0,0,0-.55.18,1,1,0,0,0-.35.46,3.2,3.2,0,0,0-.18.55,3.29,3.29,0,0,0,0,.54v1.58H85v.42c-.21,0-.6,0-1.18,0Z" transform="translate(-7.85 -5.88)"/><path d="M90.42,12.13v-.42h.63V8.93q0-.25-.09-.3a1.3,1.3,0,0,0-.51-.05V8.15L92,8.08v3.63h.56v.42l-1.06,0Zm.51-5.06a.69.69,0,0,1-.19-.49.71.71,0,0,1,.19-.5.66.66,0,0,1,.48-.2.68.68,0,0,1,.7.7.72.72,0,0,1-.7.7A.63.63,0,0,1,90.93,7.07Z" transform="translate(-7.85 -5.88)"/><path d="M93.32,12.13v-.42h.58V8.93q0-.25-.09-.3a1.21,1.21,0,0,0-.49-.05V8.15l1.55-.07v1a1.63,1.63,0,0,1,1.55-1,1.53,1.53,0,0,1,1,.3,1.25,1.25,0,0,1,.34,1v2.34h.62v.42l-1.13,0-1.14,0v-.42h.62V9.28a1.25,1.25,0,0,0-.13-.68.4.4,0,0,0-.36-.2,1.38,1.38,0,0,0-1.35,1.43v1.88h.62v.42l-1.11,0Z" transform="translate(-7.85 -5.88)"/><path d="M98.51,8.56V8.23a1.13,1.13,0,0,0,1-.55,2.22,2.22,0,0,0,.36-1.26h.43V8.14h1.31v.42h-1.31V11c0,.52.17.78.52.78a.44.44,0,0,0,.37-.2,1,1,0,0,0,.17-.62v-.46h.42V11a1.24,1.24,0,0,1-.29.84,1,1,0,0,1-.8.33c-1,0-1.42-.38-1.42-1.16V8.56Z" transform="translate(-7.85 -5.88)"/><path d="M102.63,10.1a2,2,0,0,1,.59-1.46,2.22,2.22,0,0,1,1.63-.59,1.94,1.94,0,0,1,1.43.49,1.86,1.86,0,0,1,.51,1.38q0,.18-.06.21a.43.43,0,0,1-.23,0h-2.72c0,1.1.43,1.65,1.27,1.65h0a1.45,1.45,0,0,0,.77-.2,1.07,1.07,0,0,0,.48-.51.45.45,0,0,1,.09-.16.3.3,0,0,1,.16,0c.15,0,.23.05.23.16a.51.51,0,0,1-.05.17,1.07,1.07,0,0,1-.18.28,1.58,1.58,0,0,1-.32.31,1.54,1.54,0,0,1-.53.24,2.39,2.39,0,0,1-.73.1,2.41,2.41,0,0,1-1.71-.58A1.9,1.9,0,0,1,102.63,10.1Zm1.15-.23h2.15c0-1-.39-1.49-1.08-1.49a1,1,0,0,0-.85.46A2.35,2.35,0,0,0,103.78,9.87Z" transform="translate(-7.85 -5.88)"/><path d="M107.52,12.13v-.42H108V8.93c0-.17,0-.27-.08-.3a1,1,0,0,0-.44-.05V8.15L109,8.08v1q.36-1,1.17-1a1.11,1.11,0,0,1,.65.2.61.61,0,0,1,.28.54.5.5,0,0,1-.17.4.6.6,0,0,1-.4.15.59.59,0,0,1-.4-.15.48.48,0,0,1-.18-.4.58.58,0,0,1,.18-.42.89.89,0,0,0-.55.18,1.07,1.07,0,0,0-.35.46,3,3,0,0,0-.23,1.09v1.58h.78v.42c-.21,0-.6,0-1.18,0Z" transform="translate(-7.85 -5.88)"/><path d="M111.63,11.16c0-.86,1-1.33,2.9-1.42v-.3c0-.71-.32-1.06-1-1.06a3.37,3.37,0,0,0-.66.06.55.55,0,0,1,0,.86.64.64,0,0,1-.42.15.53.53,0,0,1-.37-.15.51.51,0,0,1-.17-.42c0-.55.53-.82,1.6-.83a2.45,2.45,0,0,1,1.47.38,1.21,1.21,0,0,1,.5,1v1.93a.62.62,0,0,0,0,.18s.06.07.14.11a1.27,1.27,0,0,0,.39.05h.12s0,0,.07,0a.2.2,0,0,1,0,.14c0,.1,0,.16-.06.19a.6.6,0,0,1-.23,0h-.43a2,2,0,0,1-.54-.06.55.55,0,0,1-.28-.19,1.78,1.78,0,0,1-.1-.21,1.55,1.55,0,0,1,0-.23,1.35,1.35,0,0,1-1.31.74,3.27,3.27,0,0,1-.54,0,2.37,2.37,0,0,1-.57-.14,1,1,0,0,1-.47-.32A.83.83,0,0,1,111.63,11.16Zm1,0a.6.6,0,0,0,.25.5.9.9,0,0,0,.61.21.81.81,0,0,0,.25,0,1.4,1.4,0,0,0,.33-.13.69.69,0,0,0,.31-.3,1,1,0,0,0,.12-.51V10a2.22,2.22,0,0,0-.37,0,2.89,2.89,0,0,0-.47.09,3.25,3.25,0,0,0-.51.19,1,1,0,0,0-.36.32A.78.78,0,0,0,112.66,11.15Z" transform="translate(-7.85 -5.88)"/><path d="M116.71,10.13a2.05,2.05,0,0,1,.57-1.47A2.22,2.22,0,0,1,119,8.05c1.06,0,1.59.28,1.59.83a.52.52,0,0,1-.18.42.59.59,0,0,1-.4.15.6.6,0,0,1-.39-.15.52.52,0,0,1-.19-.42.55.55,0,0,1,.19-.41,2.43,2.43,0,0,0-.59-.06,1.15,1.15,0,0,0-.57.14,1,1,0,0,0-.34.3,1.19,1.19,0,0,0-.17.44,2.25,2.25,0,0,0-.07.42c0,.1,0,.23,0,.38,0,1.15.42,1.73,1.25,1.73a1.14,1.14,0,0,0,1.15-.74.72.72,0,0,1,.07-.11.4.4,0,0,1,.15,0c.14,0,.21,0,.21.13a.7.7,0,0,1,0,.14,1,1,0,0,1-.16.27,1.5,1.5,0,0,1-.3.32,1.48,1.48,0,0,1-.52.26,2.17,2.17,0,0,1-.74.11,2.3,2.3,0,0,1-1.63-.57A1.94,1.94,0,0,1,116.71,10.13Z" transform="translate(-7.85 -5.88)"/><path d="M121.16,8.56V8.23a1.16,1.16,0,0,0,1-.55,2.29,2.29,0,0,0,.35-1.26h.43V8.14h1.31v.42h-1.31V11c0,.52.17.78.52.78a.44.44,0,0,0,.37-.2A1,1,0,0,0,124,11v-.46h.42V11a1.24,1.24,0,0,1-.29.84,1,1,0,0,1-.79.33c-1,0-1.43-.38-1.43-1.16V8.56Z" transform="translate(-7.85 -5.88)"/><path d="M125.41,12.13v-.42H126V8.93q0-.25-.09-.3a1.3,1.3,0,0,0-.51-.05V8.15L127,8.08v3.63h.56v.42l-1.06,0Zm.5-5.06a.69.69,0,0,1-.19-.49.71.71,0,0,1,.19-.5.66.66,0,0,1,.48-.2.68.68,0,0,1,.7.7.72.72,0,0,1-.7.7A.63.63,0,0,1,125.91,7.07Z" transform="translate(-7.85 -5.88)"/><path d="M128.14,10.17a2,2,0,0,1,.61-1.52,2.67,2.67,0,0,1,3.37,0,2,2,0,0,1,.61,1.52,1.9,1.9,0,0,1-.6,1.44,2.37,2.37,0,0,1-1.69.57,2.39,2.39,0,0,1-1.7-.57A1.9,1.9,0,0,1,128.14,10.17Zm1.15-.1c0,.18,0,.31,0,.41a3.61,3.61,0,0,0,0,.39,1.08,1.08,0,0,0,.11.38,2.82,2.82,0,0,0,.19.29.74.74,0,0,0,.32.22,1.75,1.75,0,0,0,.48.06,1.65,1.65,0,0,0,.48-.06.71.71,0,0,0,.33-.22,1.77,1.77,0,0,0,.19-.29,1.08,1.08,0,0,0,.11-.38c0-.17,0-.3,0-.39v-.41a2.65,2.65,0,0,0-.19-1.24,1,1,0,0,0-.95-.45,1,1,0,0,0-1,.52A3,3,0,0,0,129.29,10.07Z" transform="translate(-7.85 -5.88)"/><path d="M133.47,12.13v-.42h.58V8.93q0-.25-.09-.3a1.21,1.21,0,0,0-.49-.05V8.15L135,8.08v1a1.65,1.65,0,0,1,1.56-1,1.5,1.5,0,0,1,1,.3,1.25,1.25,0,0,1,.34,1v2.34h.62v.42l-1.13,0-1.14,0v-.42h.62V9.28a1.37,1.37,0,0,0-.12-.68.43.43,0,0,0-.37-.2,1.37,1.37,0,0,0-.92.38,1.33,1.33,0,0,0-.42,1.05v1.88h.62v.42l-1.11,0Z" transform="translate(-7.85 -5.88)"/><path d="M181.79,12.13v-.42h1V6.38h-1V6c.22,0,.77,0,1.64,0s1.56,0,1.82,0v.42H184v5.33H185a1.91,1.91,0,0,0,.61-.09,1.56,1.56,0,0,0,.45-.2,1.26,1.26,0,0,0,.32-.33,2.18,2.18,0,0,0,.22-.36,2.94,2.94,0,0,0,.13-.39c0-.16.06-.28.07-.36s0-.18,0-.32h.45l-.3,2.47Z" transform="translate(-7.85 -5.88)"/><path d="M188.08,12.13v-.42h.62V8.93q0-.25-.09-.3a1.3,1.3,0,0,0-.51-.05V8.15l1.57-.07v3.63h.56v.42l-1.06,0Zm.5-5.06a.69.69,0,0,1-.19-.49.71.71,0,0,1,.19-.5.66.66,0,0,1,.48-.2.68.68,0,0,1,.7.7.72.72,0,0,1-.7.7A.63.63,0,0,1,188.58,7.07Z" transform="translate(-7.85 -5.88)"/><path d="M190.81,12.81a.65.65,0,0,1,.1-.36.64.64,0,0,1,.25-.24,1.47,1.47,0,0,1,.24-.13l.17-.06a1,1,0,0,1-.46-.86,1.14,1.14,0,0,1,.37-.8,1,1,0,0,1-.33-.41,1.25,1.25,0,0,1-.12-.54,1.2,1.2,0,0,1,.43-.93,1.87,1.87,0,0,1,1.31-.4,2.21,2.21,0,0,1,1.24.3A1.56,1.56,0,0,1,195,8a.54.54,0,0,1,.42.17.53.53,0,0,1,.15.36.37.37,0,0,1-.11.27.36.36,0,0,1-.28.11.37.37,0,0,1-.28-.1.39.39,0,0,1-.11-.28.58.58,0,0,1,0-.18,1.34,1.34,0,0,0-.57.17,1.2,1.2,0,0,1-.08,1.8,2.11,2.11,0,0,1-1.39.4,2.2,2.2,0,0,1-1.07-.24.56.56,0,0,0-.07.3.65.65,0,0,0,.11.34.49.49,0,0,0,.37.22h1.47a4.41,4.41,0,0,1,.57.07,2.64,2.64,0,0,1,.56.17,1.19,1.19,0,0,1,.69,1.15,1,1,0,0,1-.59.83,3.63,3.63,0,0,1-1.74.33,3.32,3.32,0,0,1-1.73-.35A1,1,0,0,1,190.81,12.81Zm.78,0a.68.68,0,0,0,.37.58,2,2,0,0,0,1.11.25,2.13,2.13,0,0,0,1.18-.26.7.7,0,0,0,.38-.55c0-.38-.43-.56-1.3-.56h-1.05Q191.59,12.25,191.59,12.79ZM192,9.15v.53a2.16,2.16,0,0,0,.05.25.49.49,0,0,0,.12.26.67.67,0,0,0,.24.16.86.86,0,0,0,.38.07.94.94,0,0,0,.39-.07.91.91,0,0,0,.24-.16.7.7,0,0,0,.12-.26,1.76,1.76,0,0,0,0-.25c0-.07,0-.15,0-.27s0-.2,0-.26a1.86,1.86,0,0,0,0-.26.65.65,0,0,0-.12-.25.72.72,0,0,0-.24-.16.93.93,0,0,0-.39-.08.86.86,0,0,0-.38.08.56.56,0,0,0-.24.16.45.45,0,0,0-.12.25A2.24,2.24,0,0,0,192,9.15Z" transform="translate(-7.85 -5.88)"/><path d="M196.09,12.13v-.42h.63v-5c0-.17,0-.27-.1-.3a1.4,1.4,0,0,0-.53,0V6l1.6-.07V8.94h0a1.66,1.66,0,0,1,1.52-.86,1.57,1.57,0,0,1,1.05.3,1.25,1.25,0,0,1,.34,1v2.34h.62v.42l-1.13,0-1.14,0v-.42h.62V9.28a1.37,1.37,0,0,0-.12-.68.43.43,0,0,0-.37-.2,1.35,1.35,0,0,0-.92.38,1.31,1.31,0,0,0-.43,1.05v1.88h.63v.42l-1.14,0Z" transform="translate(-7.85 -5.88)"/><path d="M201.34,8.56V8.23a1.14,1.14,0,0,0,1-.55,2.38,2.38,0,0,0,.36-1.26h.42V8.14h1.31v.42H203.1V11c0,.52.17.78.52.78a.47.47,0,0,0,.38-.2,1,1,0,0,0,.16-.62v-.46h.42V11a1.24,1.24,0,0,1-.29.84,1,1,0,0,1-.79.33c-.95,0-1.43-.38-1.43-1.16V8.56Z" transform="translate(-7.85 -5.88)"/><path d="M205.28,10.57V9.69H208v.88Z" transform="translate(-7.85 -5.88)"/><path d="M208.94,6.38V6l1.6-.07V8.52a2,2,0,0,1,1.32-.44,2.18,2.18,0,0,1,1.56.56,2,2,0,0,1,.59,1.48,1.93,1.93,0,0,1-.63,1.5,2.35,2.35,0,0,1-1.64.56,1.76,1.76,0,0,1-1.31-.56l-.44.51h-.43V6.73q0-.26-.09-.3A1.4,1.4,0,0,0,208.94,6.38Zm1.65,4.85a1.26,1.26,0,0,0,1.07.63,1.11,1.11,0,0,0,1-.47,2.42,2.42,0,0,0,.24-1.27V9.77c0-.09,0-.21,0-.37a1.23,1.23,0,0,0-.1-.38,1.59,1.59,0,0,0-.18-.3.7.7,0,0,0-.32-.24,1.3,1.3,0,0,0-.46-.08,1.41,1.41,0,0,0-.66.17,1.38,1.38,0,0,0-.51.41Z" transform="translate(-7.85 -5.88)"/><path d="M214.26,13.1a.48.48,0,0,1,.51-.52.55.55,0,0,1,.37.14.5.5,0,0,1,.15.37.47.47,0,0,1-.29.48.52.52,0,0,0,.21,0,.8.8,0,0,0,.41-.1,1,1,0,0,0,.33-.28,2.85,2.85,0,0,0,.21-.31q.08-.13.18-.36l.2-.43-1.68-3.57h-.57V8.14h1l1.12,0v.42h-.49L217.08,11l1-2.22a.13.13,0,0,0,0-.1c0-.08-.14-.11-.42-.11V8.14l.82,0,.71,0v.42a2.43,2.43,0,0,0-.42,0,.34.34,0,0,0-.17.05.41.41,0,0,0-.08.12l-1.93,4.11a2.4,2.4,0,0,1-.59.76,1.35,1.35,0,0,1-.87.31,1,1,0,0,1-.68-.24A.76.76,0,0,1,214.26,13.1Z" transform="translate(-7.85 -5.88)"/><path d="M219.62,10.57V9.69h2.75v.88Z" transform="translate(-7.85 -5.88)"/><path d="M223.31,12.13v-.42h1V6.38h-1V6c.23,0,.78,0,1.65,0s1.55,0,1.81,0v.42h-1.21v5.33h.93a2,2,0,0,0,.61-.09,1.39,1.39,0,0,0,.44-.2,1.12,1.12,0,0,0,.32-.33,2.18,2.18,0,0,0,.22-.36,2,2,0,0,0,.13-.39,3.07,3.07,0,0,0,.07-.36c0-.08,0-.18.05-.32h.44l-.3,2.47Z" transform="translate(-7.85 -5.88)"/><path d="M229.6,12.13v-.42h.62V8.93q0-.25-.09-.3a1.3,1.3,0,0,0-.51-.05V8.15l1.57-.07v3.63h.56v.42l-1.05,0Zm.5-5.06a.73.73,0,0,1-.19-.49.76.76,0,0,1,.19-.5.66.66,0,0,1,.48-.2.7.7,0,0,1,.5.2.69.69,0,0,1,.21.5.67.67,0,0,1-.21.49.69.69,0,0,1-.5.21A.63.63,0,0,1,230.1,7.07Z" transform="translate(-7.85 -5.88)"/><path d="M232.34,12.81a.74.74,0,0,1,.09-.36.71.71,0,0,1,.25-.24l.24-.13.18-.06a1,1,0,0,1-.47-.86,1.15,1.15,0,0,1,.38-.8,1.06,1.06,0,0,1-.34-.41,1.25,1.25,0,0,1-.12-.54,1.21,1.21,0,0,1,.44-.93,1.83,1.83,0,0,1,1.31-.4,2.25,2.25,0,0,1,1.24.3,1.51,1.51,0,0,1,1-.35.51.51,0,0,1,.42.17.53.53,0,0,1,.15.36.37.37,0,0,1-.11.27.34.34,0,0,1-.28.11.4.4,0,0,1-.28-.1.39.39,0,0,1-.1-.28.57.57,0,0,1,0-.18,1.3,1.3,0,0,0-.56.17,1.26,1.26,0,0,1,.37.86,1.19,1.19,0,0,1-.46.94,2.1,2.1,0,0,1-1.38.4,2.27,2.27,0,0,1-1.08-.24.66.66,0,0,0-.07.3.59.59,0,0,0,.12.34.46.46,0,0,0,.36.22h1.47a4.34,4.34,0,0,1,.58.07,2.83,2.83,0,0,1,.56.17,1.18,1.18,0,0,1,.68,1.15,1,1,0,0,1-.58.83,3.68,3.68,0,0,1-1.74.33,3.27,3.27,0,0,1-1.73-.35A1,1,0,0,1,232.34,12.81Zm.77,0a.68.68,0,0,0,.37.58,2,2,0,0,0,1.12.25,2.15,2.15,0,0,0,1.18-.26.69.69,0,0,0,.37-.55c0-.38-.43-.56-1.3-.56h-1Q233.11,12.25,233.11,12.79Zm.42-3.64a1.86,1.86,0,0,0,0,.26,2,2,0,0,0,0,.27,1,1,0,0,0,0,.25.7.7,0,0,0,.12.26.91.91,0,0,0,.24.16.94.94,0,0,0,.39.07.89.89,0,0,0,.38-.07.67.67,0,0,0,.24-.16.7.7,0,0,0,.12-.26,2.16,2.16,0,0,0,.05-.25V9.15a2.24,2.24,0,0,0-.05-.26.65.65,0,0,0-.12-.25.56.56,0,0,0-.24-.16.89.89,0,0,0-.38-.08.93.93,0,0,0-.39.08.72.72,0,0,0-.24.16.65.65,0,0,0-.12.25A1,1,0,0,0,233.53,9.15Z" transform="translate(-7.85 -5.88)"/><path d="M237.62,12.13v-.42h.62v-5q0-.26-.09-.3a1.43,1.43,0,0,0-.53,0V6l1.59-.07V8.94h0a1.67,1.67,0,0,1,1.53-.86,1.56,1.56,0,0,1,1,.3,1.25,1.25,0,0,1,.35,1v2.34h.62v.42l-1.14,0-1.13,0v-.42h.62V9.28A1.25,1.25,0,0,0,241,8.6a.42.42,0,0,0-.37-.2,1.37,1.37,0,0,0-.92.38,1.33,1.33,0,0,0-.42,1.05v1.88h.62v.42l-1.14,0Z" transform="translate(-7.85 -5.88)"/><path d="M242.86,8.56V8.23a1.13,1.13,0,0,0,1-.55,2.22,2.22,0,0,0,.36-1.26h.42V8.14h1.32v.42h-1.32V11c0,.52.18.78.52.78a.46.46,0,0,0,.38-.2,1,1,0,0,0,.16-.62v-.46h.42V11a1.19,1.19,0,0,1-.29.84,1,1,0,0,1-.79.33c-1,0-1.42-.38-1.42-1.16V8.56Z" transform="translate(-7.85 -5.88)"/><path d="M250.48,11.93V11a.54.54,0,0,1,0-.22s.08,0,.18,0a.4.4,0,0,1,.15,0s0,0,.07.11a1.61,1.61,0,0,0,.12.33,1.73,1.73,0,0,0,.21.33.92.92,0,0,0,.38.28,1.5,1.5,0,0,0,.58.1c.69,0,1-.23,1-.68a.51.51,0,0,0-.1-.32.64.64,0,0,0-.29-.21,1.53,1.53,0,0,0-.31-.1l-.3-.06-.61-.12a2.07,2.07,0,0,1-.39-.14,1.28,1.28,0,0,1-.39-.24.94.94,0,0,1-.36-.75,1.15,1.15,0,0,1,.1-.5.76.76,0,0,1,.27-.34,2.08,2.08,0,0,1,.35-.2,1.39,1.39,0,0,1,.39-.1l.32,0h.22a1.15,1.15,0,0,0,1.32,0c.07,0,.12,0,.13,0a.48.48,0,0,1,0,.21V9a.48.48,0,0,1,0,.22.33.33,0,0,1-.19,0c-.09,0-.15,0-.17,0a.29.29,0,0,1,0-.14c0-.5-.4-.75-1.06-.75s-1,.2-1,.61a.49.49,0,0,0,.08.28c0,.08,0,.11-.07.07l-.14,0,1.05.22.72.17a1.53,1.53,0,0,1,.62.26,1.18,1.18,0,0,1,.5.95,1.32,1.32,0,0,1-.1.55,1,1,0,0,1-.27.38,2.84,2.84,0,0,1-.35.22,1.17,1.17,0,0,1-.4.11,1.69,1.69,0,0,1-.32,0h-.23a1.77,1.77,0,0,1-1.06-.29l-.23.16a.53.53,0,0,1-.27.13h0c-.07,0-.12,0-.14,0A.75.75,0,0,1,250.48,11.93Z" transform="translate(-7.85 -5.88)"/><path d="M254.55,10.13a2.05,2.05,0,0,1,.57-1.47,2.22,2.22,0,0,1,1.71-.61c1.06,0,1.59.28,1.59.83a.52.52,0,0,1-.18.42.59.59,0,0,1-.4.15.6.6,0,0,1-.39-.15.52.52,0,0,1-.18-.42.54.54,0,0,1,.18-.41,2.38,2.38,0,0,0-.59-.06,1.08,1.08,0,0,0-.56.14,1.06,1.06,0,0,0-.35.3,1.39,1.39,0,0,0-.17.44,3.6,3.6,0,0,0-.07.42c0,.1,0,.23,0,.38,0,1.15.42,1.73,1.25,1.73a1.15,1.15,0,0,0,1.16-.74.36.36,0,0,1,.06-.11.4.4,0,0,1,.15,0c.14,0,.22,0,.22.13a.43.43,0,0,1,0,.14,1,1,0,0,1-.16.27,1.47,1.47,0,0,1-.81.58,2.23,2.23,0,0,1-.75.11,2.26,2.26,0,0,1-1.62-.57A1.92,1.92,0,0,1,254.55,10.13Z" transform="translate(-7.85 -5.88)"/><path d="M259.1,11.16c0-.86,1-1.33,2.9-1.42v-.3c0-.71-.32-1.06-1-1.06a3.37,3.37,0,0,0-.66.06.47.47,0,0,1,.22.44.52.52,0,0,1-.18.42.64.64,0,0,1-.43.15.57.57,0,0,1-.37-.15.54.54,0,0,1-.17-.42c0-.55.54-.82,1.61-.83a2.45,2.45,0,0,1,1.47.38,1.21,1.21,0,0,1,.5,1v1.93a.39.39,0,0,0,0,.18s.06.07.14.11a1.18,1.18,0,0,0,.39.05h.11s.05,0,.08,0a.2.2,0,0,1,0,.14c0,.1,0,.16-.06.19a.63.63,0,0,1-.23,0h-.43a2,2,0,0,1-.54-.06.51.51,0,0,1-.28-.19.63.63,0,0,1-.1-.21,1.4,1.4,0,0,1,0-.23,1.34,1.34,0,0,1-1.3.74,3.48,3.48,0,0,1-.55,0,2.42,2.42,0,0,1-.56-.14,1,1,0,0,1-.47-.32A.78.78,0,0,1,259.1,11.16Zm1,0a.63.63,0,0,0,.25.5.92.92,0,0,0,.61.21.87.87,0,0,0,.26,0,1.59,1.59,0,0,0,.33-.13.69.69,0,0,0,.31-.3,1,1,0,0,0,.12-.51V10a2.13,2.13,0,0,0-.37,0,3.18,3.18,0,0,0-.48.09,3.1,3.1,0,0,0-.5.19,1.11,1.11,0,0,0-.37.32A.84.84,0,0,0,260.12,11.15Z" transform="translate(-7.85 -5.88)"/><path d="M264,8.56V8.23a1.14,1.14,0,0,0,1-.55,2.38,2.38,0,0,0,.36-1.26h.42V8.14h1.31v.42h-1.31V11c0,.52.17.78.52.78a.47.47,0,0,0,.38-.2,1,1,0,0,0,.16-.62v-.46h.42V11a1.24,1.24,0,0,1-.29.84,1,1,0,0,1-.79.33c-.95,0-1.43-.38-1.43-1.16V8.56Z" transform="translate(-7.85 -5.88)"/><path d="M268.05,8.56V8.23a1.14,1.14,0,0,0,1-.55,2.38,2.38,0,0,0,.36-1.26h.42V8.14h1.31v.42h-1.31V11c0,.52.17.78.52.78a.47.47,0,0,0,.38-.2,1,1,0,0,0,.16-.62v-.46h.42V11a1.24,1.24,0,0,1-.29.84,1,1,0,0,1-.79.33c-.95,0-1.43-.38-1.43-1.16V8.56Z" transform="translate(-7.85 -5.88)"/><path d="M272.16,10.1a2,2,0,0,1,.59-1.46,2.23,2.23,0,0,1,1.63-.59,2,2,0,0,1,1.44.49,1.9,1.9,0,0,1,.5,1.38q0,.18-.06.21a.41.41,0,0,1-.23,0h-2.71q0,1.65,1.26,1.65h0a1.45,1.45,0,0,0,.77-.2,1.07,1.07,0,0,0,.48-.51.45.45,0,0,1,.09-.16.3.3,0,0,1,.16,0c.15,0,.23.05.23.16a.51.51,0,0,1-.05.17,1.07,1.07,0,0,1-.18.28,1.58,1.58,0,0,1-.32.31,1.54,1.54,0,0,1-.53.24,2.39,2.39,0,0,1-.73.1,2.45,2.45,0,0,1-1.71-.58A1.93,1.93,0,0,1,272.16,10.1Zm1.16-.23h2.14c0-1-.39-1.49-1.08-1.49a1,1,0,0,0-.85.46A2.24,2.24,0,0,0,273.32,9.87Z" transform="translate(-7.85 -5.88)"/><path d="M277.05,12.13v-.42h.52V8.93c0-.17,0-.27-.08-.3a1,1,0,0,0-.44-.05V8.15l1.49-.07v1q.36-1,1.17-1a1.09,1.09,0,0,1,.65.2.62.62,0,0,1,.29.54.5.5,0,0,1-.18.4.61.61,0,0,1-.8,0,.48.48,0,0,1-.18-.4.58.58,0,0,1,.18-.42.89.89,0,0,0-.55.18,1.07,1.07,0,0,0-.35.46,3,3,0,0,0-.23,1.09v1.58h.78v.42c-.2,0-.6,0-1.18,0Z" transform="translate(-7.85 -5.88)"/><path d="M281.29,12.13v-.42h.63V8.93q0-.25-.09-.3a1.3,1.3,0,0,0-.51-.05V8.15l1.57-.07v3.63h.56v.42l-1.06,0Zm.51-5.06a.7.7,0,0,1-.2-.49.72.72,0,0,1,.2-.5.66.66,0,0,1,.48-.2.7.7,0,0,1,.49.2.69.69,0,0,1,.21.5.72.72,0,0,1-.7.7A.63.63,0,0,1,281.8,7.07Z" transform="translate(-7.85 -5.88)"/><path d="M284.19,12.13v-.42h.57V8.93c0-.17,0-.27-.08-.3a1.24,1.24,0,0,0-.49-.05V8.15l1.54-.07v1a1.65,1.65,0,0,1,1.56-1,1.53,1.53,0,0,1,1,.3,1.29,1.29,0,0,1,.34,1v2.34h.62v.42l-1.14,0-1.13,0v-.42h.62V9.28a1.25,1.25,0,0,0-.13-.68.42.42,0,0,0-.37-.2,1.37,1.37,0,0,0-.92.38,1.33,1.33,0,0,0-.42,1.05v1.88h.62v.42l-1.11,0Z" transform="translate(-7.85 -5.88)"/><path d="M289.77,12.81a.65.65,0,0,1,.1-.36.62.62,0,0,1,.24-.24l.24-.13.18-.06a1,1,0,0,1-.47-.86,1.15,1.15,0,0,1,.38-.8,1,1,0,0,1-.33-.41,1.25,1.25,0,0,1-.12-.54,1.2,1.2,0,0,1,.43-.93,1.85,1.85,0,0,1,1.31-.4,2.23,2.23,0,0,1,1.24.3,1.52,1.52,0,0,1,1-.35.54.54,0,0,1,.42.17.56.56,0,0,1,.14.36.38.38,0,0,1-.38.38.37.37,0,0,1-.28-.1.36.36,0,0,1-.11-.28.39.39,0,0,1,0-.18,1.3,1.3,0,0,0-.57.17,1.22,1.22,0,0,1,.37.86,1.19,1.19,0,0,1-.46.94,2.07,2.07,0,0,1-1.38.4,2.2,2.2,0,0,1-1.07-.24.56.56,0,0,0-.07.3.57.57,0,0,0,.11.34.47.47,0,0,0,.37.22h1.47a4.41,4.41,0,0,1,.57.07,2.64,2.64,0,0,1,.56.17,1.19,1.19,0,0,1,.69,1.15,1,1,0,0,1-.59.83,3.63,3.63,0,0,1-1.74.33,3.29,3.29,0,0,1-1.73-.35A1,1,0,0,1,289.77,12.81Zm.77,0a.69.69,0,0,0,.38.58,2,2,0,0,0,1.11.25,2.13,2.13,0,0,0,1.18-.26.69.69,0,0,0,.37-.55c0-.38-.43-.56-1.29-.56h-1.06Q290.54,12.25,290.54,12.79ZM291,9.15v.53a1.76,1.76,0,0,0,0,.25.58.58,0,0,0,.13.26.67.67,0,0,0,.24.16,1.07,1.07,0,0,0,.76,0,.67.67,0,0,0,.24-.16.49.49,0,0,0,.12-.26,1.08,1.08,0,0,0,.05-.25V9.15a1.14,1.14,0,0,0-.05-.26.45.45,0,0,0-.12-.25.56.56,0,0,0-.24-.16.94.94,0,0,0-.76,0,.56.56,0,0,0-.24.16.54.54,0,0,0-.13.25A1.86,1.86,0,0,0,291,9.15Z" transform="translate(-7.85 -5.88)"/></svg>