<svg id="PIC" xmlns="http://www.w3.org/2000/svg" viewBox="0 0 223.98 128.04"><defs><style>.cls-1,.cls-2,.cls-4{fill:none;stroke-miterlimit:10;}.cls-1{stroke:#000;}.cls-2,.cls-4{stroke:#398ee2;}.cls-2{stroke-width:2px;}.cls-3{fill:#398ee2;}.cls-4{stroke-width:3px;}</style></defs><title>PIC-Cycle</title><path d="M95.6,105.61v-.56h1.3V98H95.6v-.56h7.46l.37,2.89h-.57a7.68,7.68,0,0,0-.13-.81,2.85,2.85,0,0,0-.25-.63,1.39,1.39,0,0,0-.42-.5,2.25,2.25,0,0,0-.66-.29,4,4,0,0,0-1-.1H98.6v3.09h.67c.53,0,.88-.11,1-.33a1.87,1.87,0,0,0,.24-1.08h.56v3.38h-.56a1.89,1.89,0,0,0-.24-1.09c-.15-.21-.5-.32-1-.32H98.6v3.39h1.82a5.47,5.47,0,0,0,1-.08,1.93,1.93,0,0,0,.7-.27,2.47,2.47,0,0,0,.49-.39,1.76,1.76,0,0,0,.33-.56,3.39,3.39,0,0,0,.19-.65l.15-.78h.57l-.55,3.29Z" transform="translate(-74.41 -87.96)"/><path d="M104.77,99.6l0-.12c0-.08,0-.17.08-.29a2.33,2.33,0,0,1,.12-.3.56.56,0,0,1,.49-.37h0a.54.54,0,0,1,.39.15.7.7,0,0,1,.2.4,1,1,0,0,1,.17-.21,1.33,1.33,0,0,1,.34-.22,1,1,0,0,1,.49-.12.83.83,0,0,1,.52.17.68.68,0,0,1,.21.56,5.78,5.78,0,0,1-.43,1.56,2.25,2.25,0,0,0-.13.53c0,.13,0,.2.16.2.26,0,.48-.3.65-.88a.19.19,0,0,1,0-.1l.08,0c.07,0,.1,0,.1.07a.87.87,0,0,1,0,.13,1.68,1.68,0,0,1-.09.27,3.07,3.07,0,0,1-.17.31.92.92,0,0,1-.26.26.6.6,0,0,1-.34.11.5.5,0,0,1-.39-.16.61.61,0,0,1-.14-.4,1.45,1.45,0,0,1,.11-.44,6.35,6.35,0,0,0,.41-1.55c0-.31-.11-.47-.32-.47s-.66.24-.93.7a1.77,1.77,0,0,0-.2.57l-.06.22-.06.23-.28,1.12a.26.26,0,0,1-.26.18.23.23,0,0,1-.16,0,.21.21,0,0,1-.05-.13.58.58,0,0,1,0-.1l.53-2.1a1.63,1.63,0,0,0,0-.36c0-.18-.06-.28-.18-.28s-.19.07-.27.21a3.25,3.25,0,0,0-.21.63c0,.07,0,.12-.05.13s0,0-.08,0S104.77,99.64,104.77,99.6Z" transform="translate(-74.41 -87.96)"/><path d="M130.46,105.61v-.56h1.29V98h-1.29v-.56h7.45l.37,2.89h-.56a7.36,7.36,0,0,0-.14-.81,2.41,2.41,0,0,0-.24-.63,1.62,1.62,0,0,0-.42-.5,2.21,2.21,0,0,0-.67-.29,3.91,3.91,0,0,0-1-.1h-1.82v3.09h.66c.54,0,.88-.11,1-.33a2,2,0,0,0,.23-1.08H136v3.38h-.57a2,2,0,0,0-.23-1.09,1.27,1.27,0,0,0-1-.32h-.66v3.39h1.82a5.47,5.47,0,0,0,1-.08,2,2,0,0,0,.7-.27,2.8,2.8,0,0,0,.49-.39,1.76,1.76,0,0,0,.33-.56,4.3,4.3,0,0,0,.19-.65l.15-.78h.57l-.56,3.29Z" transform="translate(-74.41 -87.96)"/><path d="M139.63,99.6a.9.9,0,0,1,0-.12c0-.08,0-.17.08-.29s.08-.22.11-.3a.57.57,0,0,1,.5-.37h0a.56.56,0,0,1,.39.15.63.63,0,0,1,.19.4l.17-.21a1.54,1.54,0,0,1,.34-.22,1.08,1.08,0,0,1,.5-.12.8.8,0,0,1,.51.17.68.68,0,0,1,.21.56,5.64,5.64,0,0,1-.42,1.56,1.83,1.83,0,0,0-.13.53c0,.13,0,.2.15.2.27,0,.48-.3.66-.88a.23.23,0,0,1,0-.1.15.15,0,0,1,.08,0c.07,0,.11,0,.11.07a.87.87,0,0,1,0,.13,1.91,1.91,0,0,1-.1.27,1.82,1.82,0,0,1-.16.31,1.07,1.07,0,0,1-.26.26.62.62,0,0,1-.34.11.5.5,0,0,1-.39-.16.61.61,0,0,1-.14-.4,1.45,1.45,0,0,1,.11-.44,6.35,6.35,0,0,0,.41-1.55c0-.31-.11-.47-.32-.47-.36,0-.67.24-.93.7a2,2,0,0,0-.21.57l-.06.22,0,.23-.28,1.12a.27.27,0,0,1-.27.18.21.21,0,0,1-.15,0,.17.17,0,0,1,0-.13.58.58,0,0,1,0-.1l.53-2.1a1.63,1.63,0,0,0,.05-.36c0-.18-.06-.28-.19-.28s-.19.07-.26.21a2.69,2.69,0,0,0-.21.63.48.48,0,0,1-.05.13.11.11,0,0,1-.09,0C139.66,99.67,139.63,99.64,139.63,99.6Z" transform="translate(-74.41 -87.96)"/><path d="M143.38,99.87c0-.06.05-.09.16-.09h2.07V97.71c0-.11,0-.16.09-.16s.09,0,.09.16v2.08h2.07c.11,0,.16,0,.16.09s-.05.08-.17.08h-2.06V102c0,.11,0,.16-.09.16s-.09-.05-.09-.16V99.94h-2.07C143.43,100,143.38,99.92,143.38,99.87Z" transform="translate(-74.41 -87.96)"/><path d="M149,97.62V97.4a1.71,1.71,0,0,0,1.28-.45c.08,0,.12,0,.13,0s0,.07,0,.15v3.93a.3.3,0,0,0,.11.27,1.54,1.54,0,0,0,.57.06h.23v.22c-.16,0-.54,0-1.13,0s-1,0-1.13,0v-.22h.22a1.42,1.42,0,0,0,.54-.06.29.29,0,0,0,.11-.27V97.43A2.06,2.06,0,0,1,149,97.62Z" transform="translate(-74.41 -87.96)"/><line class="cls-1" x1="37.08" y1="13.74" x2="53.1" y2="13.74"/><polygon points="51.12 16.19 50.7 15.75 52.87 13.74 50.7 11.72 51.12 11.29 53.75 13.74 51.12 16.19"/><path d="M95.19,124.88v-.56h1.33v-7.11H95.19v-.56h5.21a3.63,3.63,0,0,1,2.19.59,1.78,1.78,0,0,1,.79,1.47,1.56,1.56,0,0,1-.55,1.2,2.92,2.92,0,0,1-1.53.67,3.18,3.18,0,0,1,1.77.65,1.77,1.77,0,0,1,.69,1.42,2,2,0,0,1-.78,1.58,3.43,3.43,0,0,1-2.22.65Zm2.87-4.5h1.87a1.71,1.71,0,0,0,1.29-.47,1.62,1.62,0,0,0,.46-1.2,1.49,1.49,0,0,0-.07-.47,1.92,1.92,0,0,0-.19-.48,1.07,1.07,0,0,0-.44-.4,1.65,1.65,0,0,0-.74-.15H98.06Zm0,3.94h2.21a2.38,2.38,0,0,0,.73-.11,1.14,1.14,0,0,0,.49-.3,3.84,3.84,0,0,0,.29-.37,1.12,1.12,0,0,0,.15-.41c0-.14,0-.25.06-.32s0-.12,0-.17a2.06,2.06,0,0,0-.39-1.31,1.49,1.49,0,0,0-1.22-.52H98.06Z" transform="translate(-74.41 -87.96)"/><path d="M105.15,118.87a.9.9,0,0,1,0-.12c0-.07,0-.17.08-.29s.08-.21.12-.3a.55.55,0,0,1,.49-.37h0a.56.56,0,0,1,.39.15.69.69,0,0,1,.2.41,1.46,1.46,0,0,1,.17-.22,1.24,1.24,0,0,1,.33-.22,1.08,1.08,0,0,1,.5-.12.83.83,0,0,1,.52.17.68.68,0,0,1,.21.56,5.6,5.6,0,0,1-.43,1.56,1.83,1.83,0,0,0-.13.53c0,.13,0,.2.16.2.26,0,.47-.29.65-.88,0-.06,0-.09,0-.1a.1.1,0,0,1,.07,0c.07,0,.11,0,.11.07a.66.66,0,0,1,0,.13q0,.1-.09.27a3.07,3.07,0,0,1-.17.31,1.07,1.07,0,0,1-.26.26.53.53,0,0,1-.34.11.5.5,0,0,1-.39-.16.6.6,0,0,1-.14-.39,1.44,1.44,0,0,1,.11-.45,6.24,6.24,0,0,0,.41-1.55c0-.31-.11-.46-.32-.46a1.11,1.11,0,0,0-.93.69,2,2,0,0,0-.21.57l0,.23-.06.23-.28,1.11a.27.27,0,0,1-.27.18.21.21,0,0,1-.15,0,.21.21,0,0,1,0-.13.58.58,0,0,1,0-.1l.53-2.1a1.63,1.63,0,0,0,0-.35c0-.19-.06-.28-.18-.28s-.2.07-.27.21a3.12,3.12,0,0,0-.21.62.93.93,0,0,1,0,.14l-.08,0C105.19,118.94,105.15,118.91,105.15,118.87Z" transform="translate(-74.41 -87.96)"/><path d="M130.05,124.88v-.56h1.33v-7.11h-1.33v-.56h5.21a3.63,3.63,0,0,1,2.19.59,1.81,1.81,0,0,1,.79,1.47,1.57,1.57,0,0,1-.56,1.2,2.89,2.89,0,0,1-1.52.67,3.18,3.18,0,0,1,1.77.65,1.77,1.77,0,0,1,.69,1.42,2,2,0,0,1-.79,1.58,3.39,3.39,0,0,1-2.21.65Zm2.86-4.5h1.88a1.71,1.71,0,0,0,1.29-.47,1.65,1.65,0,0,0,.45-1.2,1.84,1.84,0,0,0-.06-.47,2,2,0,0,0-.2-.48,1,1,0,0,0-.44-.4,1.61,1.61,0,0,0-.73-.15h-2.19Zm0,3.94h2.21a2.29,2.29,0,0,0,.73-.11,1.08,1.08,0,0,0,.49-.3,2.72,2.72,0,0,0,.29-.37,1.13,1.13,0,0,0,.16-.41,1.81,1.81,0,0,0,.05-.32,1.11,1.11,0,0,0,0-.17,2.07,2.07,0,0,0-.4-1.31,1.47,1.47,0,0,0-1.21-.52h-2.34Z" transform="translate(-74.41 -87.96)"/><path d="M140,118.87a.9.9,0,0,1,0-.12,1.9,1.9,0,0,1,.08-.29c0-.11.07-.21.11-.3a.56.56,0,0,1,.5-.37h0a.57.57,0,0,1,.4.15.68.68,0,0,1,.19.41,2.65,2.65,0,0,1,.17-.22,1.33,1.33,0,0,1,.34-.22,1.07,1.07,0,0,1,.49-.12.81.81,0,0,1,.52.17.68.68,0,0,1,.21.56,5.26,5.26,0,0,1-.43,1.56,2.09,2.09,0,0,0-.12.53c0,.13.05.2.15.2.26,0,.48-.29.65-.88a.37.37,0,0,1,0-.1l.08,0c.07,0,.11,0,.11.07a.66.66,0,0,1,0,.13,1.91,1.91,0,0,1-.1.27,1.34,1.34,0,0,1-.17.31.88.88,0,0,1-.25.26.55.55,0,0,1-.34.11.47.47,0,0,1-.39-.16.55.55,0,0,1-.14-.39,1.2,1.2,0,0,1,.11-.45,6.06,6.06,0,0,0,.4-1.55c0-.31-.1-.46-.32-.46s-.66.23-.93.69a2.44,2.44,0,0,0-.2.57l-.06.23-.05.23-.28,1.11a.27.27,0,0,1-.27.18.21.21,0,0,1-.15,0,.17.17,0,0,1-.05-.13.22.22,0,0,1,0-.1l.53-2.1a1.56,1.56,0,0,0,0-.35c0-.19-.06-.28-.18-.28s-.19.07-.26.21a2.52,2.52,0,0,0-.22.62.49.49,0,0,1,0,.14l-.09,0C140,118.94,140,118.91,140,118.87Z" transform="translate(-74.41 -87.96)"/><path d="M143.76,119.14c0-.06.05-.09.16-.09H146V117c0-.12,0-.17.09-.17s.09.05.09.17v2.07h2.07c.1,0,.16,0,.16.09s-.06.08-.17.08h-2.06v2.08c0,.11,0,.16-.09.16s-.09,0-.09-.16v-2.08h-2.07C143.81,119.22,143.76,119.19,143.76,119.14Z" transform="translate(-74.41 -87.96)"/><path d="M149.38,116.89v-.22a1.71,1.71,0,0,0,1.29-.45c.07,0,.12,0,.13,0a.42.42,0,0,1,0,.16v3.92a.29.29,0,0,0,.11.27,1.54,1.54,0,0,0,.57.06h.23v.22c-.17,0-.54,0-1.14,0s-1,0-1.13,0v-.22h.23a1.42,1.42,0,0,0,.54-.06.29.29,0,0,0,.11-.27v-3.62A2.22,2.22,0,0,1,149.38,116.89Z" transform="translate(-74.41 -87.96)"/><line class="cls-1" x1="37.08" y1="33.01" x2="53.1" y2="33.01"/><polygon points="51.12 35.46 50.7 35.02 52.87 33.01 50.7 31 51.12 30.56 53.75 33.01 51.12 35.46"/><rect class="cls-2" x="130.01" y="1" width="92.98" height="44.91" rx="11.21"/><rect class="cls-2" x="1" y="1" width="92.98" height="44.91" rx="11.21"/><rect class="cls-2" x="65.5" y="82.13" width="92.98" height="44.91" rx="11.21"/><path d="M213.52,107.37h.83v-6c0-.23,0-.36-.13-.4a2.23,2.23,0,0,0-.7-.06v-.56l2.13-.1v.59a2.85,2.85,0,0,1,1.81-.59,2.8,2.8,0,0,1,2,.75,2.64,2.64,0,0,1,.77,2,2.55,2.55,0,0,1-.84,2,3.12,3.12,0,0,1-2.18.75,2.31,2.31,0,0,1-1.54-.55v2.24h.83v.56l-1.51,0-1.52,0Zm2.2-3.17a1,1,0,0,0,0,.23,1.34,1.34,0,0,0,.11.17,1.62,1.62,0,0,0,1.27.65,1.43,1.43,0,0,0,1.14-.58,2.66,2.66,0,0,0,.48-1.74,2.81,2.81,0,0,0-.42-1.66,1.25,1.25,0,0,0-1-.58,1.87,1.87,0,0,0-1.37.56,1.28,1.28,0,0,0-.16.19,1,1,0,0,0,0,.22Z" transform="translate(-74.41 -87.96)"/><path d="M221.31,99.6a.9.9,0,0,1,0-.12c0-.08,0-.17.08-.29a2.33,2.33,0,0,1,.12-.3.55.55,0,0,1,.49-.37h0a.56.56,0,0,1,.39.15.7.7,0,0,1,.2.4,1,1,0,0,1,.17-.21,1.24,1.24,0,0,1,.33-.22,1.08,1.08,0,0,1,.5-.12.83.83,0,0,1,.52.17.68.68,0,0,1,.21.56,5.78,5.78,0,0,1-.43,1.56,1.83,1.83,0,0,0-.13.53c0,.13,0,.2.16.2s.48-.3.65-.88c0-.06,0-.09,0-.1a.1.1,0,0,1,.07,0c.07,0,.11,0,.11.07a.87.87,0,0,1,0,.13l-.09.27a3.07,3.07,0,0,1-.17.31,1.07,1.07,0,0,1-.26.26.6.6,0,0,1-.34.11.5.5,0,0,1-.39-.16.61.61,0,0,1-.14-.4,1.45,1.45,0,0,1,.11-.44,6.35,6.35,0,0,0,.41-1.55c0-.31-.11-.47-.32-.47-.36,0-.67.24-.93.7a2,2,0,0,0-.21.57l-.05.22-.06.23-.28,1.12a.27.27,0,0,1-.27.18.21.21,0,0,1-.15,0,.21.21,0,0,1,0-.13.58.58,0,0,1,0-.1l.53-2.1a1.63,1.63,0,0,0,.05-.36c0-.18-.06-.28-.18-.28s-.2.07-.27.21a3.25,3.25,0,0,0-.21.63.48.48,0,0,1-.05.13s0,0-.08,0S221.31,99.64,221.31,99.6Z" transform="translate(-74.41 -87.96)"/><path d="M225.06,99.87c0-.06.05-.09.17-.09h2.07v-2a.08.08,0,0,0,0,0v-.06c0-.11,0-.16.09-.16s.09,0,.09.16v2.08h2.07c.11,0,.16,0,.16.09s0,.08-.17.08h-2.06V102c0,.11,0,.16-.09.16s-.09-.05-.09-.16V102a.08.08,0,0,0,0,0v-2h-2.08C225.11,100,225.06,99.92,225.06,99.87Z" transform="translate(-74.41 -87.96)"/><path d="M230.69,97.62V97.4A1.71,1.71,0,0,0,232,97c.08,0,.12,0,.13,0s0,.07,0,.15v3.93a.3.3,0,0,0,.11.27,1.54,1.54,0,0,0,.57.06H233v.22c-.16,0-.54,0-1.13,0s-1,0-1.13,0v-.22H231a1.48,1.48,0,0,0,.55-.06c.07,0,.1-.13.1-.27V97.43A2.06,2.06,0,0,1,230.69,97.62Z" transform="translate(-74.41 -87.96)"/><path d="M234,103.26a.36.36,0,0,1,0-.11l2.47-6.6a.1.1,0,0,1,0,0l0-.06,0,0,.05,0s.07,0,.07.08,0,0,0,.09l-2.48,6.61a.62.62,0,0,1-.06.15.08.08,0,0,1-.07,0S234,103.32,234,103.26Z" transform="translate(-74.41 -87.96)"/><path d="M237.45,101.61a.58.58,0,0,1,0-.16.37.37,0,0,1,.06-.1l1.33-1.49a2.45,2.45,0,0,0,.74-1.55,1.33,1.33,0,0,0-.24-.8.81.81,0,0,0-.7-.34.9.9,0,0,0-.56.19,1,1,0,0,0-.38.51h.09a.34.34,0,0,1,.27.11.4.4,0,0,1,.1.26.34.34,0,0,1-.12.28.4.4,0,0,1-.24.09h-.11a.37.37,0,0,1-.16-.11.38.38,0,0,1-.09-.27,1.26,1.26,0,0,1,.36-.88,1.24,1.24,0,0,1,.93-.39,1.49,1.49,0,0,1,1,.38,1.27,1.27,0,0,1,.42,1,1.23,1.23,0,0,1-.06.39A1.52,1.52,0,0,1,240,99a1.61,1.61,0,0,1-.3.38c-.15.16-.29.3-.41.41l-.58.52-.73.72h1.25a2.15,2.15,0,0,0,.66,0,2.79,2.79,0,0,0,.15-.62h.17l-.19,1.21Z" transform="translate(-74.41 -87.96)"/><path d="M262.73,107.37h.83v-6c0-.23-.05-.36-.13-.4a2.28,2.28,0,0,0-.7-.06v-.56l2.12-.1v.59a2.9,2.9,0,0,1,1.82-.59,2.81,2.81,0,0,1,2.05.75,2.64,2.64,0,0,1,.77,2,2.55,2.55,0,0,1-.84,2,3.15,3.15,0,0,1-2.19.75,2.3,2.3,0,0,1-1.53-.55v2.24h.82v.56l-1.51,0-1.51,0Zm2.2-3.17a.62.62,0,0,0,0,.23.7.7,0,0,0,.11.17,1.62,1.62,0,0,0,1.27.65,1.43,1.43,0,0,0,1.14-.58,2.66,2.66,0,0,0,.48-1.74,2.81,2.81,0,0,0-.42-1.66,1.25,1.25,0,0,0-1.06-.58,1.87,1.87,0,0,0-1.37.56.7.7,0,0,0-.15.19.59.59,0,0,0,0,.22Z" transform="translate(-74.41 -87.96)"/><path d="M270.52,99.6l0-.12c0-.08,0-.17.09-.29a2.45,2.45,0,0,1,.11-.3.56.56,0,0,1,.5-.37h0a.57.57,0,0,1,.4.15.68.68,0,0,1,.19.4,1.57,1.57,0,0,1,.17-.21,1.33,1.33,0,0,1,.34-.22,1.07,1.07,0,0,1,.49-.12.81.81,0,0,1,.52.17.68.68,0,0,1,.21.56,5.41,5.41,0,0,1-.43,1.56,2.09,2.09,0,0,0-.12.53c0,.13.05.2.15.2.26,0,.48-.3.65-.88a.37.37,0,0,1,0-.1.13.13,0,0,1,.08,0c.07,0,.11,0,.11.07a.87.87,0,0,1,0,.13,1.91,1.91,0,0,1-.1.27,1.34,1.34,0,0,1-.17.31.88.88,0,0,1-.25.26.62.62,0,0,1-.34.11.47.47,0,0,1-.39-.16.56.56,0,0,1-.14-.4,1.2,1.2,0,0,1,.11-.44,6.16,6.16,0,0,0,.4-1.55c0-.31-.1-.47-.32-.47s-.66.24-.93.7a2.44,2.44,0,0,0-.2.57s0,.12-.06.22,0,.18-.05.23l-.28,1.12a.27.27,0,0,1-.27.18.21.21,0,0,1-.15,0,.17.17,0,0,1-.05-.13.22.22,0,0,1,0-.1l.53-2.1a1.59,1.59,0,0,0,0-.36c0-.18-.06-.28-.18-.28s-.19.07-.26.21a2.62,2.62,0,0,0-.22.63.32.32,0,0,1,0,.13.11.11,0,0,1-.09,0C270.55,99.67,270.52,99.64,270.52,99.6Z" transform="translate(-74.41 -87.96)"/><path d="M274.27,99.87c0-.06.05-.09.16-.09h2.07V97.71c0-.11,0-.16.09-.16s.09,0,.09.16v2.08h2.07c.1,0,.16,0,.16.09s-.06.08-.17.08h-2.06V102c0,.11,0,.16-.09.16s-.09-.05-.09-.16V99.94h-2.07C274.32,100,274.27,99.92,274.27,99.87Z" transform="translate(-74.41 -87.96)"/><path d="M279.6,100.67a.4.4,0,0,1,.1-.31.3.3,0,0,1,.23-.1.36.36,0,0,1,.39.39.39.39,0,0,1-.13.31.43.43,0,0,1-.33.08,1,1,0,0,0,.48.4,1.43,1.43,0,0,0,.59.13.74.74,0,0,0,.55-.26,1.33,1.33,0,0,0,.25-.9,1.51,1.51,0,0,0-.21-.85.72.72,0,0,0-.63-.3h-.46a.07.07,0,0,1,0-.07s.05-.07.13-.08l.27,0a.72.72,0,0,0,.63-.37,1.55,1.55,0,0,0,.19-.8.8.8,0,0,0-.2-.61.73.73,0,0,0-.47-.17,1.45,1.45,0,0,0-.52.1.8.8,0,0,0-.42.32c.3,0,.44.12.44.36a.35.35,0,0,1-.1.26.36.36,0,0,1-.26.1.4.4,0,0,1-.26-.1.36.36,0,0,1-.1-.27.81.81,0,0,1,.36-.67A1.39,1.39,0,0,1,281,97a1.49,1.49,0,0,1,.89.27.84.84,0,0,1,.38.69,1.2,1.2,0,0,1-.27.76,1.4,1.4,0,0,1-.69.48,1.49,1.49,0,0,1,.85.47,1.16,1.16,0,0,1,.32.79,1.28,1.28,0,0,1-.43,1,1.5,1.5,0,0,1-1.06.41,1.52,1.52,0,0,1-1-.32A1,1,0,0,1,279.6,100.67Z" transform="translate(-74.41 -87.96)"/><path d="M283.21,103.26a.28.28,0,0,1,0-.11l2.47-6.6,0,0a.16.16,0,0,1,0-.06.05.05,0,0,1,0,0l.05,0a.07.07,0,0,1,.07.08s0,0,0,.09l-2.48,6.61a.52.52,0,0,1-.07.15.06.06,0,0,1-.06,0S283.21,103.32,283.21,103.26Z" transform="translate(-74.41 -87.96)"/><path d="M286.65,101.61c0-.08,0-.14,0-.16a.26.26,0,0,1,.07-.1l1.33-1.49a2.45,2.45,0,0,0,.74-1.55,1.27,1.27,0,0,0-.25-.8.79.79,0,0,0-.69-.34.9.9,0,0,0-.56.19,1,1,0,0,0-.38.51H287a.35.35,0,0,1,.27.11.39.39,0,0,1,.09.26.34.34,0,0,1-.12.28.37.37,0,0,1-.23.09h-.11a.32.32,0,0,1-.16-.11.35.35,0,0,1-.1-.27,1.23,1.23,0,0,1,.37-.88A1.21,1.21,0,0,1,288,97a1.52,1.52,0,0,1,1.05.38,1.27,1.27,0,0,1,.42,1,1.23,1.23,0,0,1-.06.39,2.16,2.16,0,0,1-.15.34,1.71,1.71,0,0,1-.31.38c-.15.16-.28.3-.4.41l-.58.52-.74.72h1.25a2.05,2.05,0,0,0,.66,0,2.15,2.15,0,0,0,.16-.62h.17l-.2,1.21Z" transform="translate(-74.41 -87.96)"/><path d="M173.7,198.62a.76.76,0,0,1,.21-.54.81.81,0,0,1,1.11,0,.74.74,0,0,1,.21.53.7.7,0,0,1-.29.6,1.92,1.92,0,0,0,.49.07.69.69,0,0,0,.67-.45,2.37,2.37,0,0,0,.21-1v-4.77a1.22,1.22,0,0,0,0-.22.27.27,0,0,0-.07-.14.31.31,0,0,0-.18-.09,4.68,4.68,0,0,0-.65,0V192l2.21-.1v5.91a1.65,1.65,0,0,1-.66,1.39,2.6,2.6,0,0,1-2.76.21A.89.89,0,0,1,173.7,198.62Zm2.33-8.05a1,1,0,0,1,0-1.32.84.84,0,0,1,.64-.27.9.9,0,0,1,.66.27.92.92,0,0,1,0,1.32.93.93,0,0,1-.66.27A.84.84,0,0,1,176,190.57Z" transform="translate(-74.41 -87.96)"/><path d="M179.16,191.3a.9.9,0,0,1,0-.12,1.56,1.56,0,0,1,.08-.28c0-.12.07-.22.11-.31a.57.57,0,0,1,.5-.36h0a.57.57,0,0,1,.4.15.66.66,0,0,1,.19.4,1.57,1.57,0,0,1,.17-.21,1.31,1.31,0,0,1,.34-.23,1.06,1.06,0,0,1,.49-.11.81.81,0,0,1,.52.16.68.68,0,0,1,.21.56,5.26,5.26,0,0,1-.43,1.56,2.18,2.18,0,0,0-.12.53c0,.13,0,.2.15.2.26,0,.48-.29.65-.88a.64.64,0,0,1,0-.1h.08c.07,0,.11,0,.11.07a.9.9,0,0,1,0,.12,1.91,1.91,0,0,1-.1.27,1.41,1.41,0,0,1-.17.32,1,1,0,0,1-.25.26.62.62,0,0,1-.34.11.49.49,0,0,1-.39-.17.52.52,0,0,1-.14-.39,1.29,1.29,0,0,1,.11-.45,6,6,0,0,0,.4-1.55c0-.31-.1-.46-.32-.46s-.66.23-.93.7a2.51,2.51,0,0,0-.2.56c0,.05,0,.13-.06.23l0,.23-.28,1.12a.3.3,0,0,1-.27.18.18.18,0,0,1-.15-.06.17.17,0,0,1,0-.13.18.18,0,0,1,0-.09L180,191a1.45,1.45,0,0,0,0-.35c0-.19-.06-.28-.18-.28s-.19.07-.26.21a2.69,2.69,0,0,0-.22.62.39.39,0,0,1,0,.14s0,0-.09,0S179.16,191.35,179.16,191.3Z" transform="translate(-74.41 -87.96)"/><path d="M182.91,191.57c0-.06.05-.08.16-.08h2.07v-2.07c0-.11,0-.17.09-.17s.09.06.09.17v2.07h2.07c.1,0,.16,0,.16.08s-.06.08-.17.08h-2.06v2.08c0,.1,0,.16-.09.16s-.09-.06-.09-.17v-2.07h-2.07C183,191.65,182.91,191.63,182.91,191.57Z" transform="translate(-74.41 -87.96)"/><path d="M188.24,192.37a.41.41,0,0,1,.1-.31.3.3,0,0,1,.23-.1.41.41,0,0,1,.28.11.42.42,0,0,1,0,.59.43.43,0,0,1-.33.08,1,1,0,0,0,.48.41,1.61,1.61,0,0,0,.6.12.7.7,0,0,0,.54-.26,1.3,1.3,0,0,0,.25-.89,1.51,1.51,0,0,0-.21-.85.7.7,0,0,0-.63-.31h-.46a.07.07,0,0,1,0-.07s.05-.07.13-.07l.27,0a.74.74,0,0,0,.63-.37,1.57,1.57,0,0,0,.19-.81.75.75,0,0,0-.2-.6.69.69,0,0,0-.47-.18,1.7,1.7,0,0,0-.52.1.85.85,0,0,0-.42.32c.3,0,.44.12.44.36a.35.35,0,0,1-.1.26.33.33,0,0,1-.26.1.35.35,0,0,1-.26-.1.37.37,0,0,1-.1-.27.83.83,0,0,1,.36-.67,1.45,1.45,0,0,1,.89-.27,1.49,1.49,0,0,1,.89.27.82.82,0,0,1,.38.69,1.2,1.2,0,0,1-.27.76,1.54,1.54,0,0,1-.69.48,1.48,1.48,0,0,1,.85.46,1.18,1.18,0,0,1,.32.8,1.29,1.29,0,0,1-.43.95,1.49,1.49,0,0,1-1.06.4,1.51,1.51,0,0,1-1-.31A1,1,0,0,1,188.24,192.37Z" transform="translate(-74.41 -87.96)"/><path d="M191.85,195a.26.26,0,0,1,0-.11l2.47-6.6,0,0,0-.06s0,0,0-.05l.05,0s.07,0,.07.09a.66.66,0,0,0,0,.09l-2.48,6.6a.64.64,0,0,1-.07.16.07.07,0,0,1-.06,0S191.85,195,191.85,195Z" transform="translate(-74.41 -87.96)"/><path d="M195.29,193.32c0-.09,0-.14,0-.17a.36.36,0,0,1,.07-.09l1.33-1.5a2.43,2.43,0,0,0,.74-1.55,1.27,1.27,0,0,0-.25-.8.8.8,0,0,0-.69-.33,1,1,0,0,0-.56.18,1.12,1.12,0,0,0-.38.52h.09a.35.35,0,0,1,.27.11.41.41,0,0,1,.09.26.32.32,0,0,1-.12.28.37.37,0,0,1-.23.09h-.11a.29.29,0,0,1-.16-.1.37.37,0,0,1-.1-.28,1.3,1.3,0,0,1,1.3-1.26,1.48,1.48,0,0,1,1,.38,1.25,1.25,0,0,1,.42,1,1.34,1.34,0,0,1-.06.4,2.16,2.16,0,0,1-.15.34,2.34,2.34,0,0,1-.31.38,5,5,0,0,1-.4.4l-.58.53-.74.72h1.25a1.64,1.64,0,0,0,.66-.06,2,2,0,0,0,.16-.62h.17l-.19,1.22Z" transform="translate(-74.41 -87.96)"/><line class="cls-1" x1="168.16" y1="13.74" x2="184.18" y2="13.74"/><polygon points="182.19 16.19 181.78 15.75 183.95 13.74 181.78 11.72 182.19 11.29 184.83 13.74 182.19 16.19"/><path d="M216.27,124.88v-.56H217v-3.71c0-.22,0-.36-.1-.4a1.37,1.37,0,0,0-.59-.07v-.56l2-.1v1.36c.32-.91.84-1.36,1.56-1.36a1.51,1.51,0,0,1,.87.26.85.85,0,0,1,.38.72.68.68,0,0,1-.24.54.78.78,0,0,1-.53.19.83.83,0,0,1-.54-.19.65.65,0,0,1-.23-.54.74.74,0,0,1,.24-.55,1.19,1.19,0,0,0-.74.24,1.44,1.44,0,0,0-.47.61,4.48,4.48,0,0,0-.23.74,3.49,3.49,0,0,0-.07.71v2.11h1v.56c-.27,0-.8,0-1.57,0Z" transform="translate(-74.41 -87.96)"/><path d="M222,118.87a.43.43,0,0,1,0-.12l.09-.29a2.09,2.09,0,0,1,.11-.3.56.56,0,0,1,.49-.37h0a.53.53,0,0,1,.39.15.64.64,0,0,1,.2.41,1.46,1.46,0,0,1,.17-.22,1.33,1.33,0,0,1,.34-.22,1,1,0,0,1,.49-.12.81.81,0,0,1,.52.17.68.68,0,0,1,.21.56,5.26,5.26,0,0,1-.43,1.56,2.09,2.09,0,0,0-.12.53c0,.13.05.2.15.2.26,0,.48-.29.65-.88a.37.37,0,0,1,0-.1.13.13,0,0,1,.08,0c.07,0,.1,0,.1.07a.43.43,0,0,1,0,.13,1.91,1.91,0,0,1-.1.27,1.87,1.87,0,0,1-.17.31.92.92,0,0,1-.26.26.51.51,0,0,1-.33.11.47.47,0,0,1-.39-.16.56.56,0,0,1-.15-.39,1.25,1.25,0,0,1,.12-.45,6.06,6.06,0,0,0,.4-1.55c0-.31-.1-.46-.32-.46s-.66.23-.93.69a2.05,2.05,0,0,0-.2.57l-.06.23-.06.23-.28,1.11a.25.25,0,0,1-.26.18.25.25,0,0,1-.16,0,.21.21,0,0,1,0-.13.26.26,0,0,1,0-.1l.52-2.1a1.18,1.18,0,0,0,.05-.35c0-.19-.06-.28-.18-.28s-.19.07-.27.21a3.12,3.12,0,0,0-.21.62.42.42,0,0,1-.05.14l-.08,0C222,118.94,222,118.91,222,118.87Z" transform="translate(-74.41 -87.96)"/><path d="M225.69,119.14c0-.06.06-.09.17-.09h2.07v-2a.11.11,0,0,1,0-.05c0-.12,0-.17.09-.17s.09.05.09.17v2.07h2.07c.11,0,.17,0,.17.09s-.06.08-.17.08H228.1v2.08c0,.11,0,.16-.09.16s-.09,0-.09-.16a.15.15,0,0,1,0-.06v-2h-2.08C225.75,119.22,225.69,119.19,225.69,119.14Z" transform="translate(-74.41 -87.96)"/><path d="M231.32,116.89v-.22a1.71,1.71,0,0,0,1.29-.45c.07,0,.12,0,.13,0a.42.42,0,0,1,0,.16v3.92c0,.14,0,.23.1.27a1.61,1.61,0,0,0,.58.06h.23v.22c-.17,0-.55,0-1.14,0s-1,0-1.13,0v-.22h.22a1.45,1.45,0,0,0,.55-.06.29.29,0,0,0,.11-.27v-3.62A2.25,2.25,0,0,1,231.32,116.89Z" transform="translate(-74.41 -87.96)"/><path d="M263.32,124.88v-.56h.7v-3.71c0-.22,0-.36-.11-.4a1.37,1.37,0,0,0-.59-.07v-.56l2-.1v1.36c.32-.91.85-1.36,1.57-1.36a1.5,1.5,0,0,1,.86.26.83.83,0,0,1,.38.72.71.71,0,0,1-.23.54.83.83,0,0,1-.54.19.78.78,0,0,1-.53-.19.63.63,0,0,1-.23-.54.76.76,0,0,1,.23-.55,1.16,1.16,0,0,0-.73.24,1.36,1.36,0,0,0-.47.61,3.69,3.69,0,0,0-.23.74,3.51,3.51,0,0,0-.08.71v2.11h1.05v.56c-.28,0-.8,0-1.58,0Z" transform="translate(-74.41 -87.96)"/><path d="M269,118.87a.9.9,0,0,1,0-.12,1.9,1.9,0,0,1,.08-.29l.11-.3a.57.57,0,0,1,.5-.37h0a.57.57,0,0,1,.4.15.63.63,0,0,1,.19.41l.17-.22a1.54,1.54,0,0,1,.34-.22,1.08,1.08,0,0,1,.5-.12.8.8,0,0,1,.51.17.68.68,0,0,1,.21.56,5.47,5.47,0,0,1-.42,1.56,1.83,1.83,0,0,0-.13.53c0,.13.05.2.15.2.27,0,.48-.29.66-.88a.23.23,0,0,1,0-.1l.08,0c.07,0,.11,0,.11.07a.66.66,0,0,1,0,.13,1.91,1.91,0,0,1-.1.27,1.34,1.34,0,0,1-.17.31.88.88,0,0,1-.25.26.55.55,0,0,1-.34.11.5.5,0,0,1-.39-.16.6.6,0,0,1-.14-.39,1.2,1.2,0,0,1,.11-.45,6.24,6.24,0,0,0,.41-1.55c0-.31-.11-.46-.32-.46a1.11,1.11,0,0,0-.93.69,2,2,0,0,0-.21.57c0,.05,0,.13-.06.23s0,.17-.05.23l-.28,1.11a.27.27,0,0,1-.27.18.21.21,0,0,1-.15,0,.17.17,0,0,1-.05-.13.22.22,0,0,1,0-.1l.53-2.1a1.63,1.63,0,0,0,0-.35c0-.19-.06-.28-.19-.28s-.19.07-.26.21a2.58,2.58,0,0,0-.21.62.93.93,0,0,1-.05.14.17.17,0,0,1-.09,0C269,118.94,269,118.91,269,118.87Z" transform="translate(-74.41 -87.96)"/><path d="M272.75,119.14c0-.06.05-.09.16-.09H275V117c0-.12,0-.17.09-.17s.09.05.09.17v2.07h2.07c.11,0,.16,0,.16.09s-.05.08-.17.08h-2.06v2.08c0,.11,0,.16-.09.16s-.09,0-.09-.16v-2.08h-2.07C272.8,119.22,272.75,119.19,272.75,119.14Z" transform="translate(-74.41 -87.96)"/><path d="M278.14,120.88a.62.62,0,0,1,0-.16.37.37,0,0,1,.06-.1l1.34-1.49a2.41,2.41,0,0,0,.73-1.55,1.33,1.33,0,0,0-.24-.8.8.8,0,0,0-.7-.34.9.9,0,0,0-.56.19,1.06,1.06,0,0,0-.37.52h.09a.33.33,0,0,1,.26.11.35.35,0,0,1,.1.26.32.32,0,0,1-.12.28.4.4,0,0,1-.24.09h-.11a.31.31,0,0,1-.15-.11.33.33,0,0,1-.1-.27,1.26,1.26,0,0,1,.36-.88,1.24,1.24,0,0,1,.93-.39,1.53,1.53,0,0,1,1.06.38,1.26,1.26,0,0,1,.41,1,1.34,1.34,0,0,1-.06.4,2.52,2.52,0,0,1-.14.33,2.44,2.44,0,0,1-.31.39c-.15.15-.28.29-.4.4l-.59.52-.73.72h1.25a1.76,1.76,0,0,0,.66,0,2.62,2.62,0,0,0,.15-.62h.17l-.19,1.21Z" transform="translate(-74.41 -87.96)"/><line class="cls-1" x1="166.28" y1="33.01" x2="182.31" y2="33.01"/><polygon points="180.32 35.46 179.91 35.02 182.08 33.01 179.91 31 180.32 30.56 182.96 33.01 180.32 35.46"/><path class="cls-3" d="M177.12,145.3v-7.17a1.1,1.1,0,0,1,0-.28.35.35,0,0,1,.15-.21.54.54,0,0,1,.38-.12h3.27c.18,0,.42,0,.71.07a2.47,2.47,0,0,1,.78.23,2.63,2.63,0,0,1,.61.44,2.44,2.44,0,0,1,.67,1.83,2.92,2.92,0,0,1-.13.92,2.69,2.69,0,0,1-.33.68,1.78,1.78,0,0,1-.52.45,3.33,3.33,0,0,1-.59.27,3,3,0,0,1-.65.14,5.93,5.93,0,0,1-.6.05h-2.07v2.67a.49.49,0,0,1-.54.56h-.61a1,1,0,0,1-.26,0,.33.33,0,0,1-.2-.15A.65.65,0,0,1,177.12,145.3Zm1.67-3.62h1.6a2.88,2.88,0,0,0,.83-.11,1.6,1.6,0,0,0,.51-.26.89.89,0,0,0,.27-.4,1.77,1.77,0,0,0,.1-.42c0-.11,0-.25,0-.44a2.25,2.25,0,0,0-.15-.81.9.9,0,0,0-.42-.46,2.09,2.09,0,0,0-.57-.18,4.72,4.72,0,0,0-.73,0H178.8v3.13Z" transform="translate(-74.41 -87.96)"/><path class="cls-3" d="M185.55,145.3v-7.22c0-.37.17-.56.5-.56h.65a.48.48,0,0,1,.55.54v7.21a1,1,0,0,1,0,.31.75.75,0,0,1-.07.12.32.32,0,0,1-.09.08l-.09,0-.09,0h-.77a.66.66,0,0,1-.42-.12A.54.54,0,0,1,185.55,145.3Z" transform="translate(-74.41 -87.96)"/><path class="cls-3" d="M189.08,141.68c0-3,1.47-4.43,4.43-4.43a7.57,7.57,0,0,1,2.13.34.71.71,0,0,1,.27.15.21.21,0,0,1,0,.12s-.06.37-.18,1c0,.23-.1.35-.18.35a.54.54,0,0,1-.23-.12l-.39-.27a1.83,1.83,0,0,0-.61-.28,3,3,0,0,0-.87-.12c-1.8,0-2.71,1.08-2.71,3.22a5.39,5.39,0,0,0,.13,1.27,3,3,0,0,0,.42,1,1.82,1.82,0,0,0,.85.71,3.27,3.27,0,0,0,1.36.26,3.65,3.65,0,0,0,1-.13,2.06,2.06,0,0,0,.65-.26l.36-.27a.53.53,0,0,1,.28-.12h0l0,0,0,0,0,.06s0,0,0,.06,0,0,0,.08,0,.06,0,.08,0,.06,0,.1a.46.46,0,0,1,0,.1c0,.1,0,.19,0,.26s0,.13,0,.16,0,0,0,.07v.06a.2.2,0,0,1,0,.09s0,0-.05.08l-.05.05-.09,0-.08.05a4.4,4.4,0,0,1-1.07.45,6.2,6.2,0,0,1-1.26.11C190.54,146.12,189.08,144.64,189.08,141.68Z" transform="translate(-74.41 -87.96)"/><line class="cls-4" x1="98.13" y1="23.46" x2="120.04" y2="23.46"/><polygon class="cls-3" points="118.73 27.94 126.5 23.45 118.73 18.97 118.73 27.94"/><line class="cls-4" x1="154.19" y1="49.56" x2="143.24" y2="68.54"/><polygon class="cls-3" points="140.01 65.16 140.01 74.13 147.78 69.65 140.01 65.16"/><line class="cls-4" x1="83.98" y1="74.13" x2="73.02" y2="55.16"/><polygon class="cls-3" points="77.56 54.05 69.79 49.56 69.79 58.54 77.56 54.05"/></svg>