<svg xmlns="http://www.w3.org/2000/svg" viewBox="0 0 357.51 209.17"><defs><style>.cls-1,.cls-2,.cls-4,.cls-5,.cls-6{fill:none;stroke-miterlimit:10;}.cls-1{stroke:#000;}.cls-2,.cls-4{stroke:#398ee2;}.cls-2,.cls-5{stroke-width:2px;}.cls-3{fill:#398ee2;}.cls-4,.cls-6{stroke-width:3px;}.cls-5,.cls-6{stroke:#d81919;}.cls-7{fill:#d81919;}</style></defs><title>QED-PIC-Cycle</title><g id="PIC"><path d="M95.6,105.61v-.56h1.3V98H95.6v-.56h7.46l.37,2.89h-.57a7.68,7.68,0,0,0-.13-.81,2.85,2.85,0,0,0-.25-.63,1.39,1.39,0,0,0-.42-.5,2.25,2.25,0,0,0-.66-.29,4,4,0,0,0-1-.1H98.6v3.09h.67c.53,0,.88-.11,1-.33a1.87,1.87,0,0,0,.24-1.08h.56v3.38h-.56a1.89,1.89,0,0,0-.24-1.09c-.15-.21-.5-.32-1-.32H98.6v3.39h1.82a5.47,5.47,0,0,0,1-.08,1.93,1.93,0,0,0,.7-.27,2.47,2.47,0,0,0,.49-.39,1.76,1.76,0,0,0,.33-.56,3.39,3.39,0,0,0,.19-.65l.15-.78h.57l-.55,3.29Z" transform="translate(-7.65 -6.83)"/><path d="M104.77,99.6l0-.12c0-.08,0-.17.08-.29a2.33,2.33,0,0,1,.12-.3.56.56,0,0,1,.49-.37h0a.54.54,0,0,1,.39.15.7.7,0,0,1,.2.4,1,1,0,0,1,.17-.21,1.33,1.33,0,0,1,.34-.22,1,1,0,0,1,.49-.12.83.83,0,0,1,.52.17.68.68,0,0,1,.21.56,5.78,5.78,0,0,1-.43,1.56,2.25,2.25,0,0,0-.13.53c0,.13,0,.2.16.2.26,0,.48-.3.65-.88a.19.19,0,0,1,0-.1l.08,0c.07,0,.1,0,.1.07a.87.87,0,0,1,0,.13,1.68,1.68,0,0,1-.09.27,3.07,3.07,0,0,1-.17.31.92.92,0,0,1-.26.26.6.6,0,0,1-.34.11.5.5,0,0,1-.39-.16.61.61,0,0,1-.14-.4,1.45,1.45,0,0,1,.11-.44,6.35,6.35,0,0,0,.41-1.55c0-.31-.11-.47-.32-.47s-.66.24-.93.7a1.77,1.77,0,0,0-.2.57l-.06.22-.06.23-.28,1.12a.26.26,0,0,1-.26.18.23.23,0,0,1-.16,0,.21.21,0,0,1-.05-.13.58.58,0,0,1,0-.1l.53-2.1a1.63,1.63,0,0,0,0-.36c0-.18-.06-.28-.18-.28s-.19.07-.27.21a3.25,3.25,0,0,0-.21.63c0,.07,0,.12-.05.13s0,0-.08,0S104.77,99.64,104.77,99.6Z" transform="translate(-7.65 -6.83)"/><path d="M130.46,105.61v-.56h1.29V98h-1.29v-.56h7.45l.37,2.89h-.56a7.36,7.36,0,0,0-.14-.81,2.41,2.41,0,0,0-.24-.63,1.62,1.62,0,0,0-.42-.5,2.21,2.21,0,0,0-.67-.29,3.91,3.91,0,0,0-1-.1h-1.82v3.09h.66c.54,0,.88-.11,1-.33a2,2,0,0,0,.23-1.08H136v3.38h-.57a2,2,0,0,0-.23-1.09,1.27,1.27,0,0,0-1-.32h-.66v3.39h1.82a5.47,5.47,0,0,0,1-.08,2,2,0,0,0,.7-.27,2.8,2.8,0,0,0,.49-.39,1.76,1.76,0,0,0,.33-.56,4.3,4.3,0,0,0,.19-.65l.15-.78h.57l-.56,3.29Z" transform="translate(-7.65 -6.83)"/><path d="M139.63,99.6a.9.9,0,0,1,0-.12c0-.08,0-.17.08-.29s.08-.22.11-.3a.57.57,0,0,1,.5-.37h0a.56.56,0,0,1,.39.15.63.63,0,0,1,.19.4l.17-.21a1.54,1.54,0,0,1,.34-.22,1.08,1.08,0,0,1,.5-.12.8.8,0,0,1,.51.17.68.68,0,0,1,.21.56,5.64,5.64,0,0,1-.42,1.56,1.83,1.83,0,0,0-.13.53c0,.13,0,.2.15.2.27,0,.48-.3.66-.88a.23.23,0,0,1,0-.1.15.15,0,0,1,.08,0c.07,0,.11,0,.11.07a.87.87,0,0,1,0,.13,1.91,1.91,0,0,1-.1.27,1.82,1.82,0,0,1-.16.31,1.07,1.07,0,0,1-.26.26.62.62,0,0,1-.34.11.5.5,0,0,1-.39-.16.61.61,0,0,1-.14-.4,1.45,1.45,0,0,1,.11-.44,6.35,6.35,0,0,0,.41-1.55c0-.31-.11-.47-.32-.47-.36,0-.67.24-.93.7a2,2,0,0,0-.21.57l-.06.22,0,.23-.28,1.12a.27.27,0,0,1-.27.18.21.21,0,0,1-.15,0,.17.17,0,0,1,0-.13.58.58,0,0,1,0-.1l.53-2.1a1.63,1.63,0,0,0,.05-.36c0-.18-.06-.28-.19-.28s-.19.07-.26.21a2.69,2.69,0,0,0-.21.63.48.48,0,0,1-.05.13.11.11,0,0,1-.09,0C139.66,99.67,139.63,99.64,139.63,99.6Z" transform="translate(-7.65 -6.83)"/><path d="M143.38,99.87c0-.06.05-.09.16-.09h2.07V97.71c0-.11,0-.16.09-.16s.09,0,.09.16v2.08h2.07c.11,0,.16,0,.16.09s-.05.08-.17.08h-2.06V102c0,.11,0,.16-.09.16s-.09-.05-.09-.16V99.94h-2.07C143.43,100,143.38,99.92,143.38,99.87Z" transform="translate(-7.65 -6.83)"/><path d="M149,97.62V97.4a1.71,1.71,0,0,0,1.28-.45c.08,0,.12,0,.13,0s0,.07,0,.15v3.93a.3.3,0,0,0,.11.27,1.54,1.54,0,0,0,.57.06h.23v.22c-.16,0-.54,0-1.13,0s-1,0-1.13,0v-.22h.22a1.42,1.42,0,0,0,.54-.06.29.29,0,0,0,.11-.27V97.43A2.06,2.06,0,0,1,149,97.62Z" transform="translate(-7.65 -6.83)"/><line class="cls-1" x1="103.84" y1="94.87" x2="119.87" y2="94.87"/><polygon points="117.88 97.32 117.47 96.88 119.64 94.87 117.47 92.86 117.88 92.42 120.52 94.87 117.88 97.32"/><path d="M95.19,124.88v-.56h1.33v-7.11H95.19v-.56h5.21a3.63,3.63,0,0,1,2.19.59,1.78,1.78,0,0,1,.79,1.47,1.56,1.56,0,0,1-.55,1.2,2.92,2.92,0,0,1-1.53.67,3.18,3.18,0,0,1,1.77.65,1.77,1.77,0,0,1,.69,1.42,2,2,0,0,1-.78,1.58,3.43,3.43,0,0,1-2.22.65Zm2.87-4.5h1.87a1.71,1.71,0,0,0,1.29-.47,1.62,1.62,0,0,0,.46-1.2,1.49,1.49,0,0,0-.07-.47,1.92,1.92,0,0,0-.19-.48,1.07,1.07,0,0,0-.44-.4,1.65,1.65,0,0,0-.74-.15H98.06Zm0,3.94h2.21a2.38,2.38,0,0,0,.73-.11,1.14,1.14,0,0,0,.49-.3,3.84,3.84,0,0,0,.29-.37,1.12,1.12,0,0,0,.15-.41c0-.14,0-.25.06-.32s0-.12,0-.17a2.06,2.06,0,0,0-.39-1.31,1.49,1.49,0,0,0-1.22-.52H98.06Z" transform="translate(-7.65 -6.83)"/><path d="M105.15,118.87a.9.9,0,0,1,0-.12c0-.07,0-.17.08-.29s.08-.21.12-.3a.55.55,0,0,1,.49-.37h0a.56.56,0,0,1,.39.15.69.69,0,0,1,.2.41,1.46,1.46,0,0,1,.17-.22,1.24,1.24,0,0,1,.33-.22,1.08,1.08,0,0,1,.5-.12.83.83,0,0,1,.52.17.68.68,0,0,1,.21.56,5.6,5.6,0,0,1-.43,1.56,1.83,1.83,0,0,0-.13.53c0,.13,0,.2.16.2.26,0,.47-.29.65-.88,0-.06,0-.09,0-.1a.1.1,0,0,1,.07,0c.07,0,.11,0,.11.07a.66.66,0,0,1,0,.13q0,.1-.09.27a3.07,3.07,0,0,1-.17.31,1.07,1.07,0,0,1-.26.26.53.53,0,0,1-.34.11.5.5,0,0,1-.39-.16.6.6,0,0,1-.14-.39,1.44,1.44,0,0,1,.11-.45,6.24,6.24,0,0,0,.41-1.55c0-.31-.11-.46-.32-.46a1.11,1.11,0,0,0-.93.69,2,2,0,0,0-.21.57l0,.23-.06.23-.28,1.11a.27.27,0,0,1-.27.18.21.21,0,0,1-.15,0,.21.21,0,0,1,0-.13.58.58,0,0,1,0-.1l.53-2.1a1.63,1.63,0,0,0,0-.35c0-.19-.06-.28-.18-.28s-.2.07-.27.21a3.12,3.12,0,0,0-.21.62.93.93,0,0,1,0,.14l-.08,0C105.19,118.94,105.15,118.91,105.15,118.87Z" transform="translate(-7.65 -6.83)"/><path d="M130.05,124.88v-.56h1.33v-7.11h-1.33v-.56h5.21a3.63,3.63,0,0,1,2.19.59,1.81,1.81,0,0,1,.79,1.47,1.57,1.57,0,0,1-.56,1.2,2.89,2.89,0,0,1-1.52.67,3.18,3.18,0,0,1,1.77.65,1.77,1.77,0,0,1,.69,1.42,2,2,0,0,1-.79,1.58,3.39,3.39,0,0,1-2.21.65Zm2.86-4.5h1.88a1.71,1.71,0,0,0,1.29-.47,1.65,1.65,0,0,0,.45-1.2,1.84,1.84,0,0,0-.06-.47,2,2,0,0,0-.2-.48,1,1,0,0,0-.44-.4,1.61,1.61,0,0,0-.73-.15h-2.19Zm0,3.94h2.21a2.29,2.29,0,0,0,.73-.11,1.08,1.08,0,0,0,.49-.3,2.72,2.72,0,0,0,.29-.37,1.13,1.13,0,0,0,.16-.41,1.81,1.81,0,0,0,.05-.32,1.11,1.11,0,0,0,0-.17,2.07,2.07,0,0,0-.4-1.31,1.47,1.47,0,0,0-1.21-.52h-2.34Z" transform="translate(-7.65 -6.83)"/><path d="M140,118.87a.9.9,0,0,1,0-.12,1.9,1.9,0,0,1,.08-.29c0-.11.07-.21.11-.3a.56.56,0,0,1,.5-.37h0a.57.57,0,0,1,.4.15.68.68,0,0,1,.19.41,2.65,2.65,0,0,1,.17-.22,1.33,1.33,0,0,1,.34-.22,1.07,1.07,0,0,1,.49-.12.81.81,0,0,1,.52.17.68.68,0,0,1,.21.56,5.26,5.26,0,0,1-.43,1.56,2.09,2.09,0,0,0-.12.53c0,.13.05.2.15.2.26,0,.48-.29.65-.88a.37.37,0,0,1,0-.1l.08,0c.07,0,.11,0,.11.07a.66.66,0,0,1,0,.13,1.91,1.91,0,0,1-.1.27,1.34,1.34,0,0,1-.17.31.88.88,0,0,1-.25.26.55.55,0,0,1-.34.11.47.47,0,0,1-.39-.16.55.55,0,0,1-.14-.39,1.2,1.2,0,0,1,.11-.45,6.06,6.06,0,0,0,.4-1.55c0-.31-.1-.46-.32-.46s-.66.23-.93.69a2.44,2.44,0,0,0-.2.57l-.06.23-.05.23-.28,1.11a.27.27,0,0,1-.27.18.21.21,0,0,1-.15,0,.17.17,0,0,1-.05-.13.22.22,0,0,1,0-.1l.53-2.1a1.56,1.56,0,0,0,0-.35c0-.19-.06-.28-.18-.28s-.19.07-.26.21a2.52,2.52,0,0,0-.22.62.49.49,0,0,1,0,.14l-.09,0C140,118.94,140,118.91,140,118.87Z" transform="translate(-7.65 -6.83)"/><path d="M143.76,119.14c0-.06.05-.09.16-.09H146V117c0-.12,0-.17.09-.17s.09.05.09.17v2.07h2.07c.1,0,.16,0,.16.09s-.06.08-.17.08h-2.06v2.08c0,.11,0,.16-.09.16s-.09,0-.09-.16v-2.08h-2.07C143.81,119.22,143.76,119.19,143.76,119.14Z" transform="translate(-7.65 -6.83)"/><path d="M149.38,116.89v-.22a1.71,1.71,0,0,0,1.29-.45c.07,0,.12,0,.13,0a.42.42,0,0,1,0,.16v3.92a.29.29,0,0,0,.11.27,1.54,1.54,0,0,0,.57.06h.23v.22c-.17,0-.54,0-1.14,0s-1,0-1.13,0v-.22h.23a1.42,1.42,0,0,0,.54-.06.29.29,0,0,0,.11-.27v-3.62A2.22,2.22,0,0,1,149.38,116.89Z" transform="translate(-7.65 -6.83)"/><line class="cls-1" x1="103.84" y1="114.14" x2="119.87" y2="114.14"/><polygon points="117.88 116.59 117.47 116.16 119.64 114.14 117.47 112.13 117.88 111.69 120.52 114.14 117.88 116.59"/><rect class="cls-2" x="196.77" y="82.13" width="92.98" height="44.91" rx="11.21"/><rect class="cls-2" x="67.76" y="82.13" width="92.98" height="44.91" rx="11.21"/><rect class="cls-2" x="132.27" y="163.26" width="92.98" height="44.91" rx="11.21"/><path d="M213.52,107.37h.83v-6c0-.23,0-.36-.13-.4a2.23,2.23,0,0,0-.7-.06v-.56l2.13-.1v.59a2.85,2.85,0,0,1,1.81-.59,2.8,2.8,0,0,1,2,.75,2.64,2.64,0,0,1,.77,2,2.55,2.55,0,0,1-.84,2,3.12,3.12,0,0,1-2.18.75,2.31,2.31,0,0,1-1.54-.55v2.24h.83v.56l-1.51,0-1.52,0Zm2.2-3.17a1,1,0,0,0,0,.23,1.34,1.34,0,0,0,.11.17,1.62,1.62,0,0,0,1.27.65,1.43,1.43,0,0,0,1.14-.58,2.66,2.66,0,0,0,.48-1.74,2.81,2.81,0,0,0-.42-1.66,1.25,1.25,0,0,0-1-.58,1.87,1.87,0,0,0-1.37.56,1.28,1.28,0,0,0-.16.19,1,1,0,0,0,0,.22Z" transform="translate(-7.65 -6.83)"/><path d="M221.31,99.6a.9.9,0,0,1,0-.12c0-.08,0-.17.08-.29a2.33,2.33,0,0,1,.12-.3.55.55,0,0,1,.49-.37h0a.56.56,0,0,1,.39.15.7.7,0,0,1,.2.4,1,1,0,0,1,.17-.21,1.24,1.24,0,0,1,.33-.22,1.08,1.08,0,0,1,.5-.12.83.83,0,0,1,.52.17.68.68,0,0,1,.21.56,5.78,5.78,0,0,1-.43,1.56,1.83,1.83,0,0,0-.13.53c0,.13,0,.2.16.2s.48-.3.65-.88c0-.06,0-.09,0-.1a.1.1,0,0,1,.07,0c.07,0,.11,0,.11.07a.87.87,0,0,1,0,.13l-.09.27a3.07,3.07,0,0,1-.17.31,1.07,1.07,0,0,1-.26.26.6.6,0,0,1-.34.11.5.5,0,0,1-.39-.16.61.61,0,0,1-.14-.4,1.45,1.45,0,0,1,.11-.44,6.35,6.35,0,0,0,.41-1.55c0-.31-.11-.47-.32-.47-.36,0-.67.24-.93.7a2,2,0,0,0-.21.57l-.05.22-.06.23-.28,1.12a.27.27,0,0,1-.27.18.21.21,0,0,1-.15,0,.21.21,0,0,1,0-.13.58.58,0,0,1,0-.1l.53-2.1a1.63,1.63,0,0,0,.05-.36c0-.18-.06-.28-.18-.28s-.2.07-.27.21a3.25,3.25,0,0,0-.21.63.48.48,0,0,1-.05.13s0,0-.08,0S221.31,99.64,221.31,99.6Z" transform="translate(-7.65 -6.83)"/><path d="M225.06,99.87c0-.06.05-.09.17-.09h2.07v-2a.08.08,0,0,0,0,0v-.06c0-.11,0-.16.09-.16s.09,0,.09.16v2.08h2.07c.11,0,.16,0,.16.09s0,.08-.17.08h-2.06V102c0,.11,0,.16-.09.16s-.09-.05-.09-.16V102a.08.08,0,0,0,0,0v-2h-2.08C225.11,100,225.06,99.92,225.06,99.87Z" transform="translate(-7.65 -6.83)"/><path d="M230.69,97.62V97.4A1.71,1.71,0,0,0,232,97c.08,0,.12,0,.13,0s0,.07,0,.15v3.93a.3.3,0,0,0,.11.27,1.54,1.54,0,0,0,.57.06H233v.22c-.16,0-.54,0-1.13,0s-1,0-1.13,0v-.22H231a1.48,1.48,0,0,0,.55-.06c.07,0,.1-.13.1-.27V97.43A2.06,2.06,0,0,1,230.69,97.62Z" transform="translate(-7.65 -6.83)"/><path d="M234,103.26a.36.36,0,0,1,0-.11l2.47-6.6a.1.1,0,0,1,0,0l0-.06,0,0,.05,0s.07,0,.07.08,0,0,0,.09l-2.48,6.61a.62.62,0,0,1-.06.15.08.08,0,0,1-.07,0S234,103.32,234,103.26Z" transform="translate(-7.65 -6.83)"/><path d="M237.45,101.61a.58.58,0,0,1,0-.16.37.37,0,0,1,.06-.1l1.33-1.49a2.45,2.45,0,0,0,.74-1.55,1.33,1.33,0,0,0-.24-.8.81.81,0,0,0-.7-.34.9.9,0,0,0-.56.19,1,1,0,0,0-.38.51h.09a.34.34,0,0,1,.27.11.4.4,0,0,1,.1.26.34.34,0,0,1-.12.28.4.4,0,0,1-.24.09h-.11a.37.37,0,0,1-.16-.11.38.38,0,0,1-.09-.27,1.26,1.26,0,0,1,.36-.88,1.24,1.24,0,0,1,.93-.39,1.49,1.49,0,0,1,1,.38,1.27,1.27,0,0,1,.42,1,1.23,1.23,0,0,1-.06.39A1.52,1.52,0,0,1,240,99a1.61,1.61,0,0,1-.3.38c-.15.16-.29.3-.41.41l-.58.52-.73.72h1.25a2.15,2.15,0,0,0,.66,0,2.79,2.79,0,0,0,.15-.62h.17l-.19,1.21Z" transform="translate(-7.65 -6.83)"/><path d="M262.73,107.37h.83v-6c0-.23-.05-.36-.13-.4a2.28,2.28,0,0,0-.7-.06v-.56l2.12-.1v.59a2.9,2.9,0,0,1,1.82-.59,2.81,2.81,0,0,1,2.05.75,2.64,2.64,0,0,1,.77,2,2.55,2.55,0,0,1-.84,2,3.15,3.15,0,0,1-2.19.75,2.3,2.3,0,0,1-1.53-.55v2.24h.82v.56l-1.51,0-1.51,0Zm2.2-3.17a.62.62,0,0,0,0,.23.7.7,0,0,0,.11.17,1.62,1.62,0,0,0,1.27.65,1.43,1.43,0,0,0,1.14-.58,2.66,2.66,0,0,0,.48-1.74,2.81,2.81,0,0,0-.42-1.66,1.25,1.25,0,0,0-1.06-.58,1.87,1.87,0,0,0-1.37.56.7.7,0,0,0-.15.19.59.59,0,0,0,0,.22Z" transform="translate(-7.65 -6.83)"/><path d="M270.52,99.6l0-.12c0-.08,0-.17.09-.29a2.45,2.45,0,0,1,.11-.3.56.56,0,0,1,.5-.37h0a.57.57,0,0,1,.4.15.68.68,0,0,1,.19.4,1.57,1.57,0,0,1,.17-.21,1.33,1.33,0,0,1,.34-.22,1.07,1.07,0,0,1,.49-.12.81.81,0,0,1,.52.17.68.68,0,0,1,.21.56,5.41,5.41,0,0,1-.43,1.56,2.09,2.09,0,0,0-.12.53c0,.13.05.2.15.2.26,0,.48-.3.65-.88a.37.37,0,0,1,0-.1.13.13,0,0,1,.08,0c.07,0,.11,0,.11.07a.87.87,0,0,1,0,.13,1.91,1.91,0,0,1-.1.27,1.34,1.34,0,0,1-.17.31.88.88,0,0,1-.25.26.62.62,0,0,1-.34.11.47.47,0,0,1-.39-.16.56.56,0,0,1-.14-.4,1.2,1.2,0,0,1,.11-.44,6.16,6.16,0,0,0,.4-1.55c0-.31-.1-.47-.32-.47s-.66.24-.93.7a2.44,2.44,0,0,0-.2.57s0,.12-.06.22,0,.18-.05.23l-.28,1.12a.27.27,0,0,1-.27.18.21.21,0,0,1-.15,0,.17.17,0,0,1-.05-.13.22.22,0,0,1,0-.1l.53-2.1a1.59,1.59,0,0,0,0-.36c0-.18-.06-.28-.18-.28s-.19.07-.26.21a2.62,2.62,0,0,0-.22.63.32.32,0,0,1,0,.13.11.11,0,0,1-.09,0C270.55,99.67,270.52,99.64,270.52,99.6Z" transform="translate(-7.65 -6.83)"/><path d="M274.27,99.87c0-.06.05-.09.16-.09h2.07V97.71c0-.11,0-.16.09-.16s.09,0,.09.16v2.08h2.07c.1,0,.16,0,.16.09s-.06.08-.17.08h-2.06V102c0,.11,0,.16-.09.16s-.09-.05-.09-.16V99.94h-2.07C274.32,100,274.27,99.92,274.27,99.87Z" transform="translate(-7.65 -6.83)"/><path d="M279.6,100.67a.4.4,0,0,1,.1-.31.3.3,0,0,1,.23-.1.36.36,0,0,1,.39.39.39.39,0,0,1-.13.31.43.43,0,0,1-.33.08,1,1,0,0,0,.48.4,1.43,1.43,0,0,0,.59.13.74.74,0,0,0,.55-.26,1.33,1.33,0,0,0,.25-.9,1.51,1.51,0,0,0-.21-.85.72.72,0,0,0-.63-.3h-.46a.07.07,0,0,1,0-.07s.05-.07.13-.08l.27,0a.72.72,0,0,0,.63-.37,1.55,1.55,0,0,0,.19-.8.8.8,0,0,0-.2-.61.73.73,0,0,0-.47-.17,1.45,1.45,0,0,0-.52.1.8.8,0,0,0-.42.32c.3,0,.44.12.44.36a.35.35,0,0,1-.1.26.36.36,0,0,1-.26.1.4.4,0,0,1-.26-.1.36.36,0,0,1-.1-.27.81.81,0,0,1,.36-.67A1.39,1.39,0,0,1,281,97a1.49,1.49,0,0,1,.89.27.84.84,0,0,1,.38.69,1.2,1.2,0,0,1-.27.76,1.4,1.4,0,0,1-.69.48,1.49,1.49,0,0,1,.85.47,1.16,1.16,0,0,1,.32.79,1.28,1.28,0,0,1-.43,1,1.5,1.5,0,0,1-1.06.41,1.52,1.52,0,0,1-1-.32A1,1,0,0,1,279.6,100.67Z" transform="translate(-7.65 -6.83)"/><path d="M283.21,103.26a.28.28,0,0,1,0-.11l2.47-6.6,0,0a.16.16,0,0,1,0-.06.05.05,0,0,1,0,0l.05,0a.07.07,0,0,1,.07.08s0,0,0,.09l-2.48,6.61a.52.52,0,0,1-.07.15.06.06,0,0,1-.06,0S283.21,103.32,283.21,103.26Z" transform="translate(-7.65 -6.83)"/><path d="M286.65,101.61c0-.08,0-.14,0-.16a.26.26,0,0,1,.07-.1l1.33-1.49a2.45,2.45,0,0,0,.74-1.55,1.27,1.27,0,0,0-.25-.8.79.79,0,0,0-.69-.34.9.9,0,0,0-.56.19,1,1,0,0,0-.38.51H287a.35.35,0,0,1,.27.11.39.39,0,0,1,.09.26.34.34,0,0,1-.12.28.37.37,0,0,1-.23.09h-.11a.32.32,0,0,1-.16-.11.35.35,0,0,1-.1-.27,1.23,1.23,0,0,1,.37-.88A1.21,1.21,0,0,1,288,97a1.52,1.52,0,0,1,1.05.38,1.27,1.27,0,0,1,.42,1,1.23,1.23,0,0,1-.06.39,2.16,2.16,0,0,1-.15.34,1.71,1.71,0,0,1-.31.38c-.15.16-.28.3-.4.41l-.58.52-.74.72h1.25a2.05,2.05,0,0,0,.66,0,2.15,2.15,0,0,0,.16-.62h.17l-.2,1.21Z" transform="translate(-7.65 -6.83)"/><path d="M173.7,198.62a.76.76,0,0,1,.21-.54.81.81,0,0,1,1.11,0,.74.74,0,0,1,.21.53.7.7,0,0,1-.29.6,1.92,1.92,0,0,0,.49.07.69.69,0,0,0,.67-.45,2.37,2.37,0,0,0,.21-1v-4.77a1.22,1.22,0,0,0,0-.22.27.27,0,0,0-.07-.14.31.31,0,0,0-.18-.09,4.68,4.68,0,0,0-.65,0V192l2.21-.1v5.91a1.65,1.65,0,0,1-.66,1.39,2.6,2.6,0,0,1-2.76.21A.89.89,0,0,1,173.7,198.62Zm2.33-8.05a1,1,0,0,1,0-1.32.84.84,0,0,1,.64-.27.9.9,0,0,1,.66.27.92.92,0,0,1,0,1.32.93.93,0,0,1-.66.27A.84.84,0,0,1,176,190.57Z" transform="translate(-7.65 -6.83)"/><path d="M179.16,191.3a.9.9,0,0,1,0-.12,1.56,1.56,0,0,1,.08-.28c0-.12.07-.22.11-.31a.57.57,0,0,1,.5-.36h0a.57.57,0,0,1,.4.15.66.66,0,0,1,.19.4,1.57,1.57,0,0,1,.17-.21,1.31,1.31,0,0,1,.34-.23,1.06,1.06,0,0,1,.49-.11.81.81,0,0,1,.52.16.68.68,0,0,1,.21.56,5.26,5.26,0,0,1-.43,1.56,2.18,2.18,0,0,0-.12.53c0,.13,0,.2.15.2.26,0,.48-.29.65-.88a.64.64,0,0,1,0-.1h.08c.07,0,.11,0,.11.07a.9.9,0,0,1,0,.12,1.91,1.91,0,0,1-.1.27,1.41,1.41,0,0,1-.17.32,1,1,0,0,1-.25.26.62.62,0,0,1-.34.11.49.49,0,0,1-.39-.17.52.52,0,0,1-.14-.39,1.29,1.29,0,0,1,.11-.45,6,6,0,0,0,.4-1.55c0-.31-.1-.46-.32-.46s-.66.23-.93.7a2.51,2.51,0,0,0-.2.56c0,.05,0,.13-.06.23l0,.23-.28,1.12a.3.3,0,0,1-.27.18.18.18,0,0,1-.15-.06.17.17,0,0,1,0-.13.18.18,0,0,1,0-.09L180,191a1.45,1.45,0,0,0,0-.35c0-.19-.06-.28-.18-.28s-.19.07-.26.21a2.69,2.69,0,0,0-.22.62.39.39,0,0,1,0,.14s0,0-.09,0S179.16,191.35,179.16,191.3Z" transform="translate(-7.65 -6.83)"/><path d="M182.91,191.57c0-.06.05-.08.16-.08h2.07v-2.07c0-.11,0-.17.09-.17s.09.06.09.17v2.07h2.07c.1,0,.16,0,.16.08s-.06.08-.17.08h-2.06v2.08c0,.1,0,.16-.09.16s-.09-.06-.09-.17v-2.07h-2.07C183,191.65,182.91,191.63,182.91,191.57Z" transform="translate(-7.65 -6.83)"/><path d="M188.24,192.37a.41.41,0,0,1,.1-.31.3.3,0,0,1,.23-.1.41.41,0,0,1,.28.11.42.42,0,0,1,0,.59.43.43,0,0,1-.33.08,1,1,0,0,0,.48.41,1.61,1.61,0,0,0,.6.12.7.7,0,0,0,.54-.26,1.3,1.3,0,0,0,.25-.89,1.51,1.51,0,0,0-.21-.85.7.7,0,0,0-.63-.31h-.46a.07.07,0,0,1,0-.07s.05-.07.13-.07l.27,0a.74.74,0,0,0,.63-.37,1.57,1.57,0,0,0,.19-.81.75.75,0,0,0-.2-.6.69.69,0,0,0-.47-.18,1.7,1.7,0,0,0-.52.1.85.85,0,0,0-.42.32c.3,0,.44.12.44.36a.35.35,0,0,1-.1.26.33.33,0,0,1-.26.1.35.35,0,0,1-.26-.1.37.37,0,0,1-.1-.27.83.83,0,0,1,.36-.67,1.45,1.45,0,0,1,.89-.27,1.49,1.49,0,0,1,.89.27.82.82,0,0,1,.38.69,1.2,1.2,0,0,1-.27.76,1.54,1.54,0,0,1-.69.48,1.48,1.48,0,0,1,.85.46,1.18,1.18,0,0,1,.32.8,1.29,1.29,0,0,1-.43.95,1.49,1.49,0,0,1-1.06.4,1.51,1.51,0,0,1-1-.31A1,1,0,0,1,188.24,192.37Z" transform="translate(-7.65 -6.83)"/><path d="M191.85,195a.26.26,0,0,1,0-.11l2.47-6.6,0,0,0-.06s0,0,0-.05l.05,0s.07,0,.07.09a.66.66,0,0,0,0,.09l-2.48,6.6a.64.64,0,0,1-.07.16.07.07,0,0,1-.06,0S191.85,195,191.85,195Z" transform="translate(-7.65 -6.83)"/><path d="M195.29,193.32c0-.09,0-.14,0-.17a.36.36,0,0,1,.07-.09l1.33-1.5a2.43,2.43,0,0,0,.74-1.55,1.27,1.27,0,0,0-.25-.8.8.8,0,0,0-.69-.33,1,1,0,0,0-.56.18,1.12,1.12,0,0,0-.38.52h.09a.35.35,0,0,1,.27.11.41.41,0,0,1,.09.26.32.32,0,0,1-.12.28.37.37,0,0,1-.23.09h-.11a.29.29,0,0,1-.16-.1.37.37,0,0,1-.1-.28,1.3,1.3,0,0,1,1.3-1.26,1.48,1.48,0,0,1,1,.38,1.25,1.25,0,0,1,.42,1,1.34,1.34,0,0,1-.06.4,2.16,2.16,0,0,1-.15.34,2.34,2.34,0,0,1-.31.38,5,5,0,0,1-.4.4l-.58.53-.74.72h1.25a1.64,1.64,0,0,0,.66-.06,2,2,0,0,0,.16-.62h.17l-.19,1.22Z" transform="translate(-7.65 -6.83)"/><line class="cls-1" x1="234.92" y1="94.87" x2="250.94" y2="94.87"/><polygon points="248.96 97.32 248.55 96.88 250.71 94.87 248.55 92.86 248.96 92.42 251.59 94.87 248.96 97.32"/><path d="M216.27,124.88v-.56H217v-3.71c0-.22,0-.36-.1-.4a1.37,1.37,0,0,0-.59-.07v-.56l2-.1v1.36c.32-.91.84-1.36,1.56-1.36a1.51,1.51,0,0,1,.87.26.85.85,0,0,1,.38.72.68.68,0,0,1-.24.54.78.78,0,0,1-.53.19.83.83,0,0,1-.54-.19.65.65,0,0,1-.23-.54.74.74,0,0,1,.24-.55,1.19,1.19,0,0,0-.74.24,1.44,1.44,0,0,0-.47.61,4.48,4.48,0,0,0-.23.74,3.49,3.49,0,0,0-.07.71v2.11h1v.56c-.27,0-.8,0-1.57,0Z" transform="translate(-7.65 -6.83)"/><path d="M222,118.87a.43.43,0,0,1,0-.12l.09-.29a2.09,2.09,0,0,1,.11-.3.56.56,0,0,1,.49-.37h0a.53.53,0,0,1,.39.15.64.64,0,0,1,.2.41,1.46,1.46,0,0,1,.17-.22,1.33,1.33,0,0,1,.34-.22,1,1,0,0,1,.49-.12.81.81,0,0,1,.52.17.68.68,0,0,1,.21.56,5.26,5.26,0,0,1-.43,1.56,2.09,2.09,0,0,0-.12.53c0,.13.05.2.15.2.26,0,.48-.29.65-.88a.37.37,0,0,1,0-.1.13.13,0,0,1,.08,0c.07,0,.1,0,.1.07a.43.43,0,0,1,0,.13,1.91,1.91,0,0,1-.1.27,1.87,1.87,0,0,1-.17.31.92.92,0,0,1-.26.26.51.51,0,0,1-.33.11.47.47,0,0,1-.39-.16.56.56,0,0,1-.15-.39,1.25,1.25,0,0,1,.12-.45,6.06,6.06,0,0,0,.4-1.55c0-.31-.1-.46-.32-.46s-.66.23-.93.69a2.05,2.05,0,0,0-.2.57l-.06.23-.06.23-.28,1.11a.25.25,0,0,1-.26.18.25.25,0,0,1-.16,0,.21.21,0,0,1,0-.13.26.26,0,0,1,0-.1l.52-2.1a1.18,1.18,0,0,0,.05-.35c0-.19-.06-.28-.18-.28s-.19.07-.27.21a3.12,3.12,0,0,0-.21.62.42.42,0,0,1-.05.14l-.08,0C222,118.94,222,118.91,222,118.87Z" transform="translate(-7.65 -6.83)"/><path d="M225.69,119.14c0-.06.06-.09.17-.09h2.07v-2a.11.11,0,0,1,0-.05c0-.12,0-.17.09-.17s.09.05.09.17v2.07h2.07c.11,0,.17,0,.17.09s-.06.08-.17.08H228.1v2.08c0,.11,0,.16-.09.16s-.09,0-.09-.16a.15.15,0,0,1,0-.06v-2h-2.08C225.75,119.22,225.69,119.19,225.69,119.14Z" transform="translate(-7.65 -6.83)"/><path d="M231.32,116.89v-.22a1.71,1.71,0,0,0,1.29-.45c.07,0,.12,0,.13,0a.42.42,0,0,1,0,.16v3.92c0,.14,0,.23.1.27a1.61,1.61,0,0,0,.58.06h.23v.22c-.17,0-.55,0-1.14,0s-1,0-1.13,0v-.22h.22a1.45,1.45,0,0,0,.55-.06.29.29,0,0,0,.11-.27v-3.62A2.25,2.25,0,0,1,231.32,116.89Z" transform="translate(-7.65 -6.83)"/><path d="M263.32,124.88v-.56h.7v-3.71c0-.22,0-.36-.11-.4a1.37,1.37,0,0,0-.59-.07v-.56l2-.1v1.36c.32-.91.85-1.36,1.57-1.36a1.5,1.5,0,0,1,.86.26.83.83,0,0,1,.38.72.71.71,0,0,1-.23.54.83.83,0,0,1-.54.19.78.78,0,0,1-.53-.19.63.63,0,0,1-.23-.54.76.76,0,0,1,.23-.55,1.16,1.16,0,0,0-.73.24,1.36,1.36,0,0,0-.47.61,3.69,3.69,0,0,0-.23.74,3.51,3.51,0,0,0-.08.71v2.11h1.05v.56c-.28,0-.8,0-1.58,0Z" transform="translate(-7.65 -6.83)"/><path d="M269,118.87a.9.9,0,0,1,0-.12,1.9,1.9,0,0,1,.08-.29l.11-.3a.57.57,0,0,1,.5-.37h0a.57.57,0,0,1,.4.15.63.63,0,0,1,.19.41l.17-.22a1.54,1.54,0,0,1,.34-.22,1.08,1.08,0,0,1,.5-.12.8.8,0,0,1,.51.17.68.68,0,0,1,.21.56,5.47,5.47,0,0,1-.42,1.56,1.83,1.83,0,0,0-.13.53c0,.13.05.2.15.2.27,0,.48-.29.66-.88a.23.23,0,0,1,0-.1l.08,0c.07,0,.11,0,.11.07a.66.66,0,0,1,0,.13,1.91,1.91,0,0,1-.1.27,1.34,1.34,0,0,1-.17.31.88.88,0,0,1-.25.26.55.55,0,0,1-.34.11.5.5,0,0,1-.39-.16.6.6,0,0,1-.14-.39,1.2,1.2,0,0,1,.11-.45,6.24,6.24,0,0,0,.41-1.55c0-.31-.11-.46-.32-.46a1.11,1.11,0,0,0-.93.69,2,2,0,0,0-.21.57c0,.05,0,.13-.06.23s0,.17-.05.23l-.28,1.11a.27.27,0,0,1-.27.18.21.21,0,0,1-.15,0,.17.17,0,0,1-.05-.13.22.22,0,0,1,0-.1l.53-2.1a1.63,1.63,0,0,0,0-.35c0-.19-.06-.28-.19-.28s-.19.07-.26.21a2.58,2.58,0,0,0-.21.62.93.93,0,0,1-.05.14.17.17,0,0,1-.09,0C269,118.94,269,118.91,269,118.87Z" transform="translate(-7.65 -6.83)"/><path d="M272.75,119.14c0-.06.05-.09.16-.09H275V117c0-.12,0-.17.09-.17s.09.05.09.17v2.07h2.07c.11,0,.16,0,.16.09s-.05.08-.17.08h-2.06v2.08c0,.11,0,.16-.09.16s-.09,0-.09-.16v-2.08h-2.07C272.8,119.22,272.75,119.19,272.75,119.14Z" transform="translate(-7.65 -6.83)"/><path d="M278.14,120.88a.62.62,0,0,1,0-.16.37.37,0,0,1,.06-.1l1.34-1.49a2.41,2.41,0,0,0,.73-1.55,1.33,1.33,0,0,0-.24-.8.8.8,0,0,0-.7-.34.9.9,0,0,0-.56.19,1.06,1.06,0,0,0-.37.52h.09a.33.33,0,0,1,.26.11.35.35,0,0,1,.1.26.32.32,0,0,1-.12.28.4.4,0,0,1-.24.09h-.11a.31.31,0,0,1-.15-.11.33.33,0,0,1-.1-.27,1.26,1.26,0,0,1,.36-.88,1.24,1.24,0,0,1,.93-.39,1.53,1.53,0,0,1,1.06.38,1.26,1.26,0,0,1,.41,1,1.34,1.34,0,0,1-.06.4,2.52,2.52,0,0,1-.14.33,2.44,2.44,0,0,1-.31.39c-.15.15-.28.29-.4.4l-.59.52-.73.72h1.25a1.76,1.76,0,0,0,.66,0,2.62,2.62,0,0,0,.15-.62h.17l-.19,1.21Z" transform="translate(-7.65 -6.83)"/><line class="cls-1" x1="233.05" y1="114.14" x2="249.07" y2="114.14"/><polygon points="247.08 116.59 246.67 116.16 248.84 114.14 246.67 112.13 247.08 111.69 249.72 114.14 247.08 116.59"/><path class="cls-3" d="M177.12,145.3v-7.17a1.1,1.1,0,0,1,0-.28.35.35,0,0,1,.15-.21.54.54,0,0,1,.38-.12h3.27c.18,0,.42,0,.71.07a2.47,2.47,0,0,1,.78.23,2.63,2.63,0,0,1,.61.44,2.44,2.44,0,0,1,.67,1.83,2.92,2.92,0,0,1-.13.92,2.69,2.69,0,0,1-.33.68,1.78,1.78,0,0,1-.52.45,3.33,3.33,0,0,1-.59.27,3,3,0,0,1-.65.14,5.93,5.93,0,0,1-.6.05h-2.07v2.67a.49.49,0,0,1-.54.56h-.61a1,1,0,0,1-.26,0,.33.33,0,0,1-.2-.15A.65.65,0,0,1,177.12,145.3Zm1.67-3.62h1.6a2.88,2.88,0,0,0,.83-.11,1.6,1.6,0,0,0,.51-.26.89.89,0,0,0,.27-.4,1.77,1.77,0,0,0,.1-.42c0-.11,0-.25,0-.44a2.25,2.25,0,0,0-.15-.81.9.9,0,0,0-.42-.46,2.09,2.09,0,0,0-.57-.18,4.72,4.72,0,0,0-.73,0H178.8v3.13Z" transform="translate(-7.65 -6.83)"/><path class="cls-3" d="M185.55,145.3v-7.22c0-.37.17-.56.5-.56h.65a.48.48,0,0,1,.55.54v7.21a1,1,0,0,1,0,.31.75.75,0,0,1-.07.12.32.32,0,0,1-.09.08l-.09,0-.09,0h-.77a.66.66,0,0,1-.42-.12A.54.54,0,0,1,185.55,145.3Z" transform="translate(-7.65 -6.83)"/><path class="cls-3" d="M189.08,141.68c0-3,1.47-4.43,4.43-4.43a7.57,7.57,0,0,1,2.13.34.71.71,0,0,1,.27.15.21.21,0,0,1,0,.12s-.06.37-.18,1c0,.23-.1.35-.18.35a.54.54,0,0,1-.23-.12l-.39-.27a1.83,1.83,0,0,0-.61-.28,3,3,0,0,0-.87-.12c-1.8,0-2.71,1.08-2.71,3.22a5.39,5.39,0,0,0,.13,1.27,3,3,0,0,0,.42,1,1.82,1.82,0,0,0,.85.71,3.27,3.27,0,0,0,1.36.26,3.65,3.65,0,0,0,1-.13,2.06,2.06,0,0,0,.65-.26l.36-.27a.53.53,0,0,1,.28-.12h0l0,0,0,0,0,.06s0,0,0,.06,0,0,0,.08,0,.06,0,.08,0,.06,0,.1a.46.46,0,0,1,0,.1c0,.1,0,.19,0,.26s0,.13,0,.16,0,0,0,.07v.06a.2.2,0,0,1,0,.09s0,0-.05.08l-.05.05-.09,0-.08.05a4.4,4.4,0,0,1-1.07.45,6.2,6.2,0,0,1-1.26.11C190.54,146.12,189.08,144.64,189.08,141.68Z" transform="translate(-7.65 -6.83)"/><line class="cls-4" x1="164.89" y1="104.59" x2="186.8" y2="104.59"/><polygon class="cls-3" points="185.49 109.07 193.26 104.59 185.49 100.1 185.49 109.07"/><line class="cls-4" x1="220.95" y1="130.69" x2="210" y2="149.67"/><polygon class="cls-3" points="206.77 146.29 206.77 155.26 214.54 150.78 206.77 146.29"/><line class="cls-4" x1="150.74" y1="155.26" x2="139.78" y2="136.29"/><polygon class="cls-3" points="144.33 135.18 136.56 130.69 136.55 139.67 144.33 135.18"/></g><g id="MC"><rect class="cls-5" x="1" y="163.26" width="92.98" height="44.91" rx="11.21"/><rect class="cls-5" x="263.53" y="163.26" width="92.98" height="44.91" rx="11.21"/><rect class="cls-5" x="132.27" y="1" width="92.98" height="44.91" rx="11.21"/><line class="cls-1" x1="289.04" y1="176.68" x2="305.06" y2="176.68"/><polygon points="303.08 179.14 302.67 178.7 304.83 176.69 302.67 174.67 303.08 174.23 305.71 176.69 303.08 179.14"/><line class="cls-1" x1="289.04" y1="195.37" x2="305.06" y2="195.37"/><polygon points="303.08 197.82 302.67 197.38 304.83 195.37 302.67 193.36 303.08 192.92 305.71 195.37 303.08 197.82"/><path d="M161.84,26a3.16,3.16,0,0,1,1-2.4,2.88,2.88,0,0,1,2-.93,1.31,1.31,0,0,1,.88.29,1,1,0,0,1,.33.73.49.49,0,0,1,0,.12,1.13,1.13,0,0,1-.05.24,1.23,1.23,0,0,1-.14.31,1.33,1.33,0,0,1-.29.3,1.88,1.88,0,0,1-.46.28,5,5,0,0,1-1.74.26h-.46a5.29,5.29,0,0,0-.2,1.32,3.45,3.45,0,0,0,.05.57,1.18,1.18,0,0,0,.28.51.72.72,0,0,0,.57.24,2.6,2.6,0,0,0,.46,0,3,3,0,0,0,.78-.33,3.32,3.32,0,0,0,.92-.8c.07-.09.12-.14.15-.14a.17.17,0,0,1,.13.08.22.22,0,0,1,.06.12c0,.07-.1.22-.29.43a3.54,3.54,0,0,1-.92.63,2.92,2.92,0,0,1-1.32.32,1.49,1.49,0,0,1-1.27-.62A2.48,2.48,0,0,1,161.84,26ZM163,25h.58l.46,0a2.13,2.13,0,0,0,.55-.12,4.25,4.25,0,0,0,.5-.22.91.91,0,0,0,.39-.36,1.09,1.09,0,0,0,.14-.54.75.75,0,0,0-.2-.52.74.74,0,0,0-.55-.21l-.19,0a1.36,1.36,0,0,0-.37.13,1.75,1.75,0,0,0-.47.29,2.34,2.34,0,0,0-.46.61A4.27,4.27,0,0,0,163,25Z" transform="translate(-7.65 -6.83)"/><path d="M166.4,22.27c0-.06,0-.09.16-.09h2.07V20.12c0-.11,0-.17.09-.17s.09.06.09.17v2.07h2.07c.1,0,.16,0,.16.09s-.06.08-.17.08h-2.06v2.08c0,.11,0,.17-.09.17s-.09-.06-.09-.17V22.34h-2.07C166.45,22.35,166.4,22.32,166.4,22.27Z" transform="translate(-7.65 -6.83)"/><path d="M172.8,26a3.2,3.2,0,0,1,1-2.4,2.88,2.88,0,0,1,2-.93,1.31,1.31,0,0,1,.88.29,1,1,0,0,1,.33.73.49.49,0,0,1,0,.12,1.13,1.13,0,0,1-.05.24,1.23,1.23,0,0,1-.14.31,1.14,1.14,0,0,1-.29.3,1.88,1.88,0,0,1-.46.28,5,5,0,0,1-1.74.26h-.46a5.8,5.8,0,0,0-.2,1.32,2.62,2.62,0,0,0,.06.57,1.06,1.06,0,0,0,.27.51.72.72,0,0,0,.57.24,2.6,2.6,0,0,0,.46,0,2.85,2.85,0,0,0,.78-.33,3.32,3.32,0,0,0,.92-.8c.07-.09.12-.14.15-.14a.17.17,0,0,1,.13.08.22.22,0,0,1,.06.12c0,.07-.1.22-.29.43a3.54,3.54,0,0,1-.92.63,2.86,2.86,0,0,1-1.32.32,1.51,1.51,0,0,1-1.27-.62A2.48,2.48,0,0,1,172.8,26ZM173.92,25h.58l.46,0a2.13,2.13,0,0,0,.55-.12,4.25,4.25,0,0,0,.5-.22.91.91,0,0,0,.39-.36,1,1,0,0,0,.14-.54.75.75,0,0,0-.2-.52.72.72,0,0,0-.55-.21l-.19,0a1.49,1.49,0,0,0-.37.13,1.75,1.75,0,0,0-.47.29,2.14,2.14,0,0,0-.45.61A3.85,3.85,0,0,0,173.92,25Z" transform="translate(-7.65 -6.83)"/><path d="M177.78,20.21v-.37h4.33v.37Z" transform="translate(-7.65 -6.83)"/><path d="M187.28,30a2.07,2.07,0,0,0,.79-.08c.1-.05.15-.2.15-.46V23.81c0-.27-.05-.43-.15-.5a1.93,1.93,0,0,0-.79-.1v-.37l1.73-.13v.79a2.2,2.2,0,0,1,1.68-.79,2.35,2.35,0,0,1,1.77.79,2.73,2.73,0,0,1,.74,1.92,2.7,2.7,0,0,1-2.68,2.73,1.63,1.63,0,0,1-1-.31,1.33,1.33,0,0,1-.47-.53v2.12c0,.25,0,.41.15.46A2.39,2.39,0,0,0,190,30v.38l-1.35,0-1.35,0Zm1.77-3.31a.79.79,0,0,0,0,.25,2.58,2.58,0,0,0,.15.25,1.41,1.41,0,0,0,1.24.73h0a1.47,1.47,0,0,0,1.2-.7,2.85,2.85,0,0,0,.52-1.76,3,3,0,0,0-.47-1.71,1.35,1.35,0,0,0-1.13-.7,1.63,1.63,0,0,0-.88.25,1.91,1.91,0,0,0-.67.71Z" transform="translate(-7.65 -6.83)"/><path d="M194.11,26.86a1.71,1.71,0,0,1,1.22-1.56,6.7,6.7,0,0,1,2.25-.44v-.43a1.48,1.48,0,0,0-.41-1.14,1.3,1.3,0,0,0-.93-.39,1.54,1.54,0,0,0-1.31.55.58.58,0,0,1,.47.19.65.65,0,0,1,.12.36.59.59,0,0,1-.14.4.53.53,0,0,1-.39.15.52.52,0,0,1-.38-.15.5.5,0,0,1-.16-.41,1.17,1.17,0,0,1,.53-1,2.12,2.12,0,0,1,1.29-.39,2.31,2.31,0,0,1,1.69.66,1.36,1.36,0,0,1,.32.47,1.63,1.63,0,0,1,.12.44c0,.11,0,.28,0,.51V27.1a1.76,1.76,0,0,0,0,.19.82.82,0,0,0,.13.27.35.35,0,0,0,.29.15c.29,0,.43-.26.43-.77v-.67h.3v.67a1,1,0,0,1-1,1.14.84.84,0,0,1-.65-.29,1.18,1.18,0,0,1-.28-.7,1.72,1.72,0,0,1-.63.76,1.76,1.76,0,0,1-1,.3,3.32,3.32,0,0,1-.83-.11,1.94,1.94,0,0,1-.74-.41A1,1,0,0,1,194.11,26.86Zm1,0a1,1,0,0,0,.3.74.93.93,0,0,0,.7.29,1.57,1.57,0,0,0,1-.39,1.42,1.42,0,0,0,.47-1.16v-1.2a2.94,2.94,0,0,0-1.9.57A1.59,1.59,0,0,0,195.1,26.85Z" transform="translate(-7.65 -6.83)"/><path d="M200,28v-.37a2.31,2.31,0,0,0,.79-.08c.1-.06.14-.21.14-.47V23.87c0-.3-.05-.48-.14-.55a1.56,1.56,0,0,0-.74-.11v-.37l1.68-.13V27.1q0,.36.12.45a1.67,1.67,0,0,0,.72.09V28l-1.25,0Zm.49-7.39a.61.61,0,0,1,.19-.44.64.64,0,0,1,.91,0,.65.65,0,0,1,0,.92.61.61,0,0,1-.45.18.65.65,0,0,1-.65-.64Z" transform="translate(-7.65 -6.83)"/><path d="M203.26,28v-.37a2.31,2.31,0,0,0,.79-.08c.1-.06.15-.21.15-.47V23.88c0-.3,0-.48-.16-.56a1.68,1.68,0,0,0-.78-.11v-.37l1.67-.13V24a2.49,2.49,0,0,1,.53-.92,1.21,1.21,0,0,1,.95-.4.88.88,0,0,1,.63.22.63.63,0,0,1,.25.51.48.48,0,0,1-.16.4.58.58,0,0,1-.35.13.53.53,0,0,1-.37-.14.49.49,0,0,1-.15-.38.46.46,0,0,1,.07-.26.39.39,0,0,1,.12-.15.24.24,0,0,1,.09-.06h-.13a1.16,1.16,0,0,0-1,.66,3.18,3.18,0,0,0-.38,1.6v1.84a.56.56,0,0,0,.14.45,1.5,1.5,0,0,0,.77.12h.26V28q-.48,0-1.53,0h-.37l-.53,0Z" transform="translate(-7.65 -6.83)"/><path d="M208,27.85V26.27a.77.77,0,0,1,0-.18.12.12,0,0,1,0-.08.14.14,0,0,1,.11,0c.06,0,.1,0,.12,0a.44.44,0,0,1,.06.17,2.63,2.63,0,0,0,.56,1.26,1.35,1.35,0,0,0,1.09.44,1.51,1.51,0,0,0,1-.3,1,1,0,0,0,.34-.79c0-.59-.42-.95-1.25-1.1a9.42,9.42,0,0,1-1-.25,1.48,1.48,0,0,1-.56-.31,1.26,1.26,0,0,1-.52-1,1.39,1.39,0,0,1,.46-1,2.06,2.06,0,0,1,1.46-.44,1.89,1.89,0,0,1,1.13.34.93.93,0,0,0,.2-.19.55.55,0,0,1,.26-.15c.08,0,.12,0,.13.06a1.1,1.1,0,0,1,0,.24v1.2a.77.77,0,0,1,0,.18.1.1,0,0,1,0,.08.22.22,0,0,1-.13,0q-.15,0-.15-.12c-.07-1-.54-1.45-1.41-1.45a1.59,1.59,0,0,0-1,.27.84.84,0,0,0-.31.65.74.74,0,0,0,.09.36.88.88,0,0,0,.23.24,1.49,1.49,0,0,0,.36.18,2.3,2.3,0,0,0,.37.11l.42.09a2.61,2.61,0,0,1,1.37.58,1.57,1.57,0,0,1,.5,1.14,1.62,1.62,0,0,1-.48,1.19,2,2,0,0,1-1.45.48,1.88,1.88,0,0,1-1.32-.52l-.12.13-.07.09,0,0a0,0,0,0,0,0,0q-.24.24-.3.24c-.07,0-.11,0-.12-.07A1,1,0,0,1,208,27.85Z" transform="translate(-7.65 -6.83)"/><path d="M152.33,37.61v-.37h.95V35.86a1.76,1.76,0,0,1,.58-1.4,1.88,1.88,0,0,1,1.28-.51,1.15,1.15,0,0,1,.77.25.76.76,0,0,1,.3.59.54.54,0,0,1-.14.38.56.56,0,0,1-.76,0,.52.52,0,0,1-.13-.36.48.48,0,0,1,.35-.51,1.24,1.24,0,0,0-.39-.09,1,1,0,0,0-.77.45,1.89,1.89,0,0,0-.34,1.19v1.39h1.41v.37h-1.37v3.86a.56.56,0,0,0,.14.45A1.5,1.5,0,0,0,155,42h.25v.37c-.32,0-.83,0-1.52,0h-.37l-.53,0h-.46V42a2.28,2.28,0,0,0,.78-.08c.1-.06.15-.21.15-.47V37.61Z" transform="translate(-7.65 -6.83)"/><path d="M155.93,42.41V42a2.28,2.28,0,0,0,.78-.08c.1-.06.15-.21.15-.47V38.28c0-.3-.05-.48-.15-.56a1.71,1.71,0,0,0-.78-.11v-.37l1.67-.13v1.32a2.49,2.49,0,0,1,.53-.92,1.19,1.19,0,0,1,.94-.4.92.92,0,0,1,.64.22.66.66,0,0,1,.25.51.51.51,0,0,1-.16.4.61.61,0,0,1-.36.13.52.52,0,0,1-.36-.14.49.49,0,0,1-.15-.38.55.55,0,0,1,.06-.26.76.76,0,0,1,.12-.15l.09-.06h-.13a1.16,1.16,0,0,0-1,.66,3.17,3.17,0,0,0-.38,1.59v1.85a.53.53,0,0,0,.15.45,1.45,1.45,0,0,0,.77.12h.25v.37c-.32,0-.83,0-1.52,0h-.38l-.52,0Z" transform="translate(-7.65 -6.83)"/><path d="M161.41,41.77a2.63,2.63,0,0,1-.8-1.93,2.77,2.77,0,0,1,.78-2,2.53,2.53,0,0,1,3.76,0,2.8,2.8,0,0,1,.78,2,2.68,2.68,0,0,1-2.66,2.71A2.57,2.57,0,0,1,161.41,41.77Zm.2-2a3.59,3.59,0,0,0,.3,1.69,1.5,1.5,0,0,0,1.37.81,1.48,1.48,0,0,0,.82-.24,1.56,1.56,0,0,0,.57-.65,3.68,3.68,0,0,0,.27-1.61,3.29,3.29,0,0,0-.32-1.67,1.48,1.48,0,0,0-1.35-.78,1.58,1.58,0,0,0-.77.2,1.45,1.45,0,0,0-.6.6A3.6,3.6,0,0,0,161.61,39.75Z" transform="translate(-7.65 -6.83)"/><path d="M166.66,42.41V42a2.31,2.31,0,0,0,.79-.08c.1-.06.15-.21.15-.47V38.28c0-.3,0-.48-.16-.56a1.68,1.68,0,0,0-.78-.11v-.37l1.69-.13v1.26a1.86,1.86,0,0,1,1.78-1.26c.94,0,1.47.39,1.6,1.17a2.31,2.31,0,0,1,.63-.81,1.68,1.68,0,0,1,1.11-.36,1.56,1.56,0,0,1,1.26.44,1.34,1.34,0,0,1,.32.64,10.17,10.17,0,0,1,0,1.2v2.28c0,.17.07.27.2.31A3,3,0,0,0,176,42v.37l-1.35,0-1.36,0V42a2.31,2.31,0,0,0,.79-.08c.1-.06.15-.21.15-.47V38.7a2,2,0,0,0-.19-1,.7.7,0,0,0-.7-.36,1.55,1.55,0,0,0-1.12.52,2,2,0,0,0-.5,1.4v2.2c0,.26.05.41.15.47a2.36,2.36,0,0,0,.79.08v.37l-1.35,0-1.35,0V42a2.31,2.31,0,0,0,.79-.08c.1-.06.15-.21.15-.47V38.7a2,2,0,0,0-.19-1,.72.72,0,0,0-.7-.36,1.57,1.57,0,0,0-1.13.52,2,2,0,0,0-.5,1.4v2.2c0,.26.05.41.15.47a2.36,2.36,0,0,0,.79.08v.37l-1.34,0Z" transform="translate(-7.65 -6.83)"/><path d="M180.49,37.61v-.37c.36,0,.75,0,1.16,0l1.31,0v.37c-.46,0-.68.11-.68.31a.67.67,0,0,0,.07.21l1.34,3.34,1.23-3.06a.91.91,0,0,0,.07-.28.52.52,0,0,0-.14-.36.61.61,0,0,0-.44-.16v-.37l1.05,0c.33,0,.62,0,.89,0v.37a1.2,1.2,0,0,0-.61.16,1.25,1.25,0,0,0-.33.3c0,.09-.1.21-.16.34l-1.57,3.91c-.06.15-.14.23-.25.23a.21.21,0,0,1-.15,0,.67.67,0,0,1-.1-.18l-1.73-4.26a.63.63,0,0,0-.27-.37A1.89,1.89,0,0,0,180.49,37.61Z" transform="translate(-7.65 -6.83)"/><path d="M186.75,41.26A1.71,1.71,0,0,1,188,39.7a6.7,6.7,0,0,1,2.25-.44v-.43a1.51,1.51,0,0,0-.41-1.14,1.34,1.34,0,0,0-.93-.39,1.56,1.56,0,0,0-1.32.55A.56.56,0,0,1,188,38a.65.65,0,0,1,.12.36.54.54,0,0,1-.14.4.51.51,0,0,1-.39.15.52.52,0,0,1-.38-.15.53.53,0,0,1-.15-.41,1.15,1.15,0,0,1,.53-1,2.09,2.09,0,0,1,1.28-.39,2.35,2.35,0,0,1,1.7.66,1.33,1.33,0,0,1,.31.47,1.63,1.63,0,0,1,.12.44c0,.11,0,.28,0,.51V41.5a.81.81,0,0,0,0,.19.66.66,0,0,0,.13.27.34.34,0,0,0,.29.15c.28,0,.42-.26.42-.77v-.67h.3v.67a1,1,0,0,1-.33.89,1.09,1.09,0,0,1-.64.25.81.81,0,0,1-.65-.29,1.19,1.19,0,0,1-.29-.7,1.72,1.72,0,0,1-.63.76,1.75,1.75,0,0,1-1,.3,3.34,3.34,0,0,1-.84-.11,1.9,1.9,0,0,1-.73-.41A1,1,0,0,1,186.75,41.26Zm1,0A1,1,0,0,0,188,42a1,1,0,0,0,.71.29,1.56,1.56,0,0,0,1-.39,1.4,1.4,0,0,0,.48-1.16v-1.2a3,3,0,0,0-1.91.57A1.57,1.57,0,0,0,187.75,41.25Z" transform="translate(-7.65 -6.83)"/><path d="M193.42,41.75a2.65,2.65,0,0,1-.76-1.93,2.83,2.83,0,0,1,.75-2,2.44,2.44,0,0,1,1.85-.82,2.29,2.29,0,0,1,1.26.35,1.07,1.07,0,0,1,.54.94.54.54,0,0,1-.15.41.52.52,0,0,1-.38.15.53.53,0,0,1-.39-.15.57.57,0,0,1-.15-.4.52.52,0,0,1,0-.21.49.49,0,0,1,.16-.22.61.61,0,0,1,.35-.13,1.66,1.66,0,0,0-1.24-.44h0a1.45,1.45,0,0,0-1.11.58,2.81,2.81,0,0,0-.51,1.89,3.83,3.83,0,0,0,.17,1.19,1.84,1.84,0,0,0,.44.76,2.18,2.18,0,0,0,.55.38,1.31,1.31,0,0,0,.53.12A1.56,1.56,0,0,0,196.9,41a.13.13,0,0,1,.14-.12q.15,0,.15.12a.8.8,0,0,1,0,.21,2.23,2.23,0,0,1-.19.39,2.18,2.18,0,0,1-.35.45,1.69,1.69,0,0,1-.56.36,1.92,1.92,0,0,1-.81.16A2.43,2.43,0,0,1,193.42,41.75Z" transform="translate(-7.65 -6.83)"/><path d="M198,37.61v-.37l1.76-.13v4c0,.19,0,.34,0,.45a1.52,1.52,0,0,0,.12.36.57.57,0,0,0,.33.28,1.59,1.59,0,0,0,.59.09,1.27,1.27,0,0,0,1.05-.53,2.14,2.14,0,0,0,.4-1.33V38.28c0-.3,0-.48-.16-.56a1.66,1.66,0,0,0-.77-.11v-.37l1.76-.13v4.25c0,.3.05.49.15.56A1.59,1.59,0,0,0,204,42v.37l-1.73.14V41.46a1.66,1.66,0,0,1-1.55,1.09,2.56,2.56,0,0,1-.89-.14,1.67,1.67,0,0,1-.54-.3,1.15,1.15,0,0,1-.28-.49,2.87,2.87,0,0,1-.11-.52c0-.13,0-.33,0-.59v-1.8a2,2,0,0,0-.12-1C198.7,37.66,198.42,37.61,198,37.61Z" transform="translate(-7.65 -6.83)"/><path d="M204.61,37.61v-.37l1.77-.13v4a2.83,2.83,0,0,0,0,.45,1,1,0,0,0,.12.36.53.53,0,0,0,.32.28,1.63,1.63,0,0,0,.59.09,1.28,1.28,0,0,0,1.06-.53,2.21,2.21,0,0,0,.4-1.33V38.28c0-.3,0-.48-.16-.56a1.68,1.68,0,0,0-.78-.11v-.37l1.77-.13v4.25c0,.3.05.49.15.56a1.52,1.52,0,0,0,.78.12v.37l-1.73.14V41.46a1.65,1.65,0,0,1-1.54,1.09,2.56,2.56,0,0,1-.89-.14,1.67,1.67,0,0,1-.54-.3,1.06,1.06,0,0,1-.28-.49,2.87,2.87,0,0,1-.11-.52c0-.13,0-.33,0-.59v-1.8a2,2,0,0,0-.12-1C205.35,37.66,205.08,37.61,204.61,37.61Z" transform="translate(-7.65 -6.83)"/><path d="M211.27,42.41V42a2.31,2.31,0,0,0,.79-.08c.1-.06.15-.21.15-.47V38.28a.71.71,0,0,0-.16-.56,1.71,1.71,0,0,0-.78-.11v-.37l1.69-.13v1.26a1.85,1.85,0,0,1,1.77-1.26c.94,0,1.48.39,1.61,1.17a2.2,2.2,0,0,1,.63-.81,1.68,1.68,0,0,1,1.11-.36,1.56,1.56,0,0,1,1.26.44,1.24,1.24,0,0,1,.31.64,7.91,7.91,0,0,1,.06,1.2v2.28a.28.28,0,0,0,.2.31,2.9,2.9,0,0,0,.73.06v.37l-1.34,0-1.36,0V42a2.31,2.31,0,0,0,.79-.08c.1-.06.15-.21.15-.47V38.7a2,2,0,0,0-.19-1,.71.71,0,0,0-.7-.36,1.53,1.53,0,0,0-1.12.52,2,2,0,0,0-.5,1.4v2.2c0,.26,0,.41.15.47a2.31,2.31,0,0,0,.79.08v.37l-1.35,0-1.35,0V42a2.36,2.36,0,0,0,.79-.08c.1-.06.15-.21.15-.47V38.7a2.17,2.17,0,0,0-.19-1,.73.73,0,0,0-.71-.36,1.55,1.55,0,0,0-1.12.52,2,2,0,0,0-.5,1.4v2.2c0,.26.05.41.15.47A2.31,2.31,0,0,0,214,42v.37l-1.35,0Z" transform="translate(-7.65 -6.83)"/><path d="M33,188.27v-.37h.29a1.76,1.76,0,0,0,.8-.11c.1-.07.15-.22.15-.46V181c0-.23-.05-.38-.16-.45a1.71,1.71,0,0,0-.79-.11H33v-.37h4.24a3.09,3.09,0,0,1,2,.66,2,2,0,0,1,.81,1.57,1.87,1.87,0,0,1-.83,1.52,3,3,0,0,1-1.91.64h-2v2.86a.56.56,0,0,0,.15.46,1.76,1.76,0,0,0,.8.11h.29v.37c-.28,0-.87,0-1.78,0S33.25,188.25,33,188.27Zm2.27-4.1h1.65a2.59,2.59,0,0,0,.93-.15,1.5,1.5,0,0,0,.57-.34,1.13,1.13,0,0,0,.28-.48,2.14,2.14,0,0,0,.12-.47c0-.11,0-.25,0-.42s0-.32,0-.43a2.14,2.14,0,0,0-.12-.47,1.24,1.24,0,0,0-.28-.49,1.59,1.59,0,0,0-.56-.33,2.91,2.91,0,0,0-.94-.14H35.82a.89.89,0,0,0-.49.08.6.6,0,0,0-.09.4Z" transform="translate(-7.65 -6.83)"/><path d="M40.88,187.13a1.7,1.7,0,0,1,1.22-1.56,6.24,6.24,0,0,1,2.25-.44v-.44a1.53,1.53,0,0,0-.41-1.14,1.3,1.3,0,0,0-.93-.39,1.57,1.57,0,0,0-1.32.55.56.56,0,0,1,.47.2.55.55,0,0,1,.13.36.53.53,0,0,1-.15.39.5.5,0,0,1-.38.16.53.53,0,0,1-.39-.15.57.57,0,0,1-.15-.42,1.17,1.17,0,0,1,.53-1,2.09,2.09,0,0,1,1.28-.39,2.38,2.38,0,0,1,1.7.66,1.46,1.46,0,0,1,.32.47,1.28,1.28,0,0,1,.11.44c0,.11,0,.28,0,.51v2.4a.65.65,0,0,0,0,.18.66.66,0,0,0,.13.27.34.34,0,0,0,.29.15c.29,0,.43-.26.42-.77v-.67h.3v.68a1,1,0,0,1-.33.88,1.06,1.06,0,0,1-.64.25.8.8,0,0,1-.65-.29,1.25,1.25,0,0,1-.29-.69,1.72,1.72,0,0,1-.62.75,1.76,1.76,0,0,1-1,.3,3.26,3.26,0,0,1-.83-.11,1.75,1.75,0,0,1-.74-.41A1,1,0,0,1,40.88,187.13Zm1,0a1,1,0,0,0,.29.73,1,1,0,0,0,.71.29,1.54,1.54,0,0,0,1-.39,1.4,1.4,0,0,0,.48-1.16v-1.2a2.86,2.86,0,0,0-1.9.58A1.52,1.52,0,0,0,41.87,187.12Z" transform="translate(-7.65 -6.83)"/><path d="M46.71,188.27v-.37a2.28,2.28,0,0,0,.78-.08c.1,0,.15-.21.15-.47v-3.21c0-.29,0-.48-.15-.55a1.57,1.57,0,0,0-.78-.12v-.37l1.67-.13v1.32a2.49,2.49,0,0,1,.53-.92,1.19,1.19,0,0,1,.94-.4.92.92,0,0,1,.64.22.66.66,0,0,1,.25.51.51.51,0,0,1-.16.4.56.56,0,0,1-.73,0,.48.48,0,0,1-.14-.38.58.58,0,0,1,.06-.26l.12-.15a.21.21,0,0,1,.09-.05.31.31,0,0,0-.13,0,1.16,1.16,0,0,0-1,.66,3.18,3.18,0,0,0-.38,1.6v1.84a.56.56,0,0,0,.15.46,1.6,1.6,0,0,0,.77.11h.25v.37c-.32,0-.83,0-1.52,0H47.7l-.53,0Z" transform="translate(-7.65 -6.83)"/><path d="M51.29,183.47v-.26a1.25,1.25,0,0,0,.91-.41,2,2,0,0,0,.5-.87,4.29,4.29,0,0,0,.13-1h.3v2.21h1.72v.37H53.13v3.34c0,.87.27,1.3.81,1.3a.69.69,0,0,0,.58-.36,1.8,1.8,0,0,0,.22-1v-.67H55v.69a2.1,2.1,0,0,1-.3,1.13,1,1,0,0,1-.89.49,1.65,1.65,0,0,1-.43-.06,2,2,0,0,1-.49-.2,1,1,0,0,1-.45-.49,1.93,1.93,0,0,1-.17-.87v-3.32Z" transform="translate(-7.65 -6.83)"/><path d="M56.11,188.27v-.37a2.2,2.2,0,0,0,.78-.08c.1,0,.15-.21.15-.47v-3.22c0-.3,0-.48-.15-.55a1.51,1.51,0,0,0-.73-.11v-.37l1.67-.13v4.4a.56.56,0,0,0,.13.44,1.67,1.67,0,0,0,.72.09v.37l-1.25,0Zm.49-7.39a.61.61,0,0,1,.19-.44.62.62,0,0,1,.46-.19.68.68,0,0,1,.45.17.63.63,0,0,1,.18.46.62.62,0,0,1-.18.46.64.64,0,0,1-.45.18.62.62,0,0,1-.47-.2A.6.6,0,0,1,56.6,180.88Z" transform="translate(-7.65 -6.83)"/><path d="M60.21,187.62a2.7,2.7,0,0,1-.77-1.94,2.79,2.79,0,0,1,.75-2,2.41,2.41,0,0,1,1.85-.83,2.29,2.29,0,0,1,1.26.35,1.08,1.08,0,0,1,.54.94.57.57,0,0,1-.15.42.5.5,0,0,1-.38.15.53.53,0,0,1-.39-.16.59.59,0,0,1-.14-.4.76.76,0,0,1,0-.21.58.58,0,0,1,.16-.22.73.73,0,0,1,.36-.13,1.68,1.68,0,0,0-1.25-.44h0a1.5,1.5,0,0,0-1.12.58,2.87,2.87,0,0,0-.5,1.89,3.83,3.83,0,0,0,.17,1.19,1.84,1.84,0,0,0,.44.76,2,2,0,0,0,.54.38,1.32,1.32,0,0,0,.54.12,1.55,1.55,0,0,0,1.55-1.27.14.14,0,0,1,.14-.11c.11,0,.16,0,.16.11a1,1,0,0,1,0,.21,1.55,1.55,0,0,1-.19.4,2.1,2.1,0,0,1-.35.45,1.93,1.93,0,0,1-.56.36,2.09,2.09,0,0,1-.81.15A2.44,2.44,0,0,1,60.21,187.62Z" transform="translate(-7.65 -6.83)"/><path d="M64.76,188.27v-.37a2.24,2.24,0,0,0,.78-.08c.1,0,.15-.21.15-.47v-6.23c0-.3,0-.48-.16-.56a1.66,1.66,0,0,0-.77-.11v-.37l1.72-.13v7.4c0,.26,0,.42.15.47a2.36,2.36,0,0,0,.79.08v.37H67l-.53,0h-.35Z" transform="translate(-7.65 -6.83)"/><path d="M68,185.63a2.78,2.78,0,0,1,.72-1.93,2.31,2.31,0,0,1,1.77-.81,1.92,1.92,0,0,1,1.6.69,2.54,2.54,0,0,1,.55,1.66c0,.13,0,.2,0,.23a.68.68,0,0,1-.26,0H69a3.36,3.36,0,0,0,.37,1.8,1.52,1.52,0,0,0,1.35.81l.26,0a3.44,3.44,0,0,0,.43-.13,1.45,1.45,0,0,0,.54-.38,1.94,1.94,0,0,0,.4-.71c0-.11.07-.17.15-.16s.15,0,.15.14a1,1,0,0,1-.11.34,3.64,3.64,0,0,1-.33.52,2,2,0,0,1-.64.49,2,2,0,0,1-.92.21,2.55,2.55,0,0,1-1.85-.8A2.68,2.68,0,0,1,68,185.63Zm1-.39h2.85a3.23,3.23,0,0,0,0-.53,5.06,5.06,0,0,0-.17-.67,1.49,1.49,0,0,0-.42-.64,1.13,1.13,0,0,0-.73-.24,1.19,1.19,0,0,0-.4.08,1.83,1.83,0,0,0-.46.28,1.5,1.5,0,0,0-.43.65A3.64,3.64,0,0,0,69,185.24Z" transform="translate(-7.65 -6.83)"/><path d="M73.41,188.12v-1.77a.14.14,0,0,1,0-.08.15.15,0,0,1,.1,0,.17.17,0,0,1,.12,0,.44.44,0,0,1,.06.17,2.82,2.82,0,0,0,.56,1.27,1.4,1.4,0,0,0,1.1.43,1.52,1.52,0,0,0,1-.29,1,1,0,0,0,.34-.8c0-.58-.41-1-1.25-1.1q-.72-.15-1-.24a1.87,1.87,0,0,1-.56-.32,1.28,1.28,0,0,1-.51-1,1.42,1.42,0,0,1,.45-1,2.06,2.06,0,0,1,1.46-.44,1.87,1.87,0,0,1,1.13.34,1.37,1.37,0,0,0,.21-.19.47.47,0,0,1,.26-.15c.07,0,.11,0,.12.07a.62.62,0,0,1,0,.23v1.39a.18.18,0,0,1,0,.08.21.21,0,0,1-.12,0c-.1,0-.16,0-.16-.11-.06-1-.53-1.46-1.41-1.46a1.5,1.5,0,0,0-1,.28A.82.82,0,0,0,74,184a.61.61,0,0,0,.1.36,1.07,1.07,0,0,0,.22.25,1.52,1.52,0,0,0,.36.17,2.6,2.6,0,0,0,.38.12l.42.08a2.75,2.75,0,0,1,1.36.58,1.58,1.58,0,0,1,.51,1.14,1.62,1.62,0,0,1-.48,1.19,2,2,0,0,1-1.45.48,1.86,1.86,0,0,1-1.33-.52L74,188a.4.4,0,0,1-.07.09.08.08,0,0,0,0,0l0,0q-.24.24-.3.24a.12.12,0,0,1-.12-.06A1.29,1.29,0,0,1,73.41,188.12Z" transform="translate(-7.65 -6.83)"/><path d="M34.53,202.67v-.37a2.31,2.31,0,0,0,.79-.08c.1-.05.15-.21.15-.47v-3.21c0-.29-.06-.48-.16-.55a1.52,1.52,0,0,0-.78-.12v-.37l1.69-.13v1.26A1.86,1.86,0,0,1,38,197.37c.93,0,1.47.39,1.6,1.17a2.29,2.29,0,0,1,.63-.81,1.68,1.68,0,0,1,1.11-.36,1.53,1.53,0,0,1,1.26.45,1.21,1.21,0,0,1,.31.63,7.91,7.91,0,0,1,.06,1.2v2.29a.27.27,0,0,0,.2.3,2.9,2.9,0,0,0,.73.06v.37l-1.34,0-1.36,0v-.37a2.31,2.31,0,0,0,.79-.08c.1-.05.15-.21.15-.47V199a2.07,2.07,0,0,0-.19-1,.71.71,0,0,0-.7-.36,1.52,1.52,0,0,0-1.12.53,1.92,1.92,0,0,0-.5,1.39v2.2c0,.26,0,.42.15.47a2.31,2.31,0,0,0,.79.08v.37l-1.35,0-1.35,0v-.37a2.36,2.36,0,0,0,.79-.08c.1-.05.15-.21.15-.47V199a2.2,2.2,0,0,0-.19-1,.73.73,0,0,0-.71-.36,1.54,1.54,0,0,0-1.12.53,1.92,1.92,0,0,0-.5,1.39v2.2c0,.26.05.42.15.47a2.36,2.36,0,0,0,.79.08v.37l-1.34,0Z" transform="translate(-7.65 -6.83)"/><path d="M44.47,200a2.75,2.75,0,0,1,.73-1.93,2.28,2.28,0,0,1,1.77-.81,1.92,1.92,0,0,1,1.6.69,2.54,2.54,0,0,1,.55,1.66.35.35,0,0,1,0,.23.58.58,0,0,1-.25,0H45.47a3.54,3.54,0,0,0,.36,1.81,1.55,1.55,0,0,0,1.36.8l.26,0,.43-.13a1.45,1.45,0,0,0,.54-.38,1.94,1.94,0,0,0,.4-.71c0-.11.07-.17.15-.16s.15,0,.15.14a.91.91,0,0,1-.12.34,2.45,2.45,0,0,1-.33.52,1.82,1.82,0,0,1-.63.49,2,2,0,0,1-.92.21,2.53,2.53,0,0,1-1.85-.8A2.69,2.69,0,0,1,44.47,200Zm1-.39h2.85a3.27,3.27,0,0,0,0-.53,3.87,3.87,0,0,0-.17-.67,1.39,1.39,0,0,0-.41-.64,1.13,1.13,0,0,0-.73-.24,1.19,1.19,0,0,0-.4.08,1.83,1.83,0,0,0-.46.28,1.5,1.5,0,0,0-.43.65A3.34,3.34,0,0,0,45.48,199.64Z" transform="translate(-7.65 -6.83)"/><path d="M49.8,202.67v-.37a2.36,2.36,0,0,0,.79-.08c.1-.05.15-.21.15-.47v-3.21c0-.29-.06-.48-.16-.55a1.52,1.52,0,0,0-.78-.12v-.37l1.67-.13v1.32a2.49,2.49,0,0,1,.53-.92,1.2,1.2,0,0,1,1-.4.9.9,0,0,1,.63.22.63.63,0,0,1,.25.51.48.48,0,0,1-.16.4.55.55,0,0,1-.36.13.52.52,0,0,1-.36-.14.47.47,0,0,1-.15-.37.5.5,0,0,1,.07-.27.49.49,0,0,1,.12-.15.15.15,0,0,1,.08,0,.22.22,0,0,0-.12,0,1.14,1.14,0,0,0-1,.66,3.08,3.08,0,0,0-.38,1.6v1.84a.6.6,0,0,0,.14.46,1.63,1.63,0,0,0,.77.11h.25v.37c-.32,0-.82,0-1.52,0h-.38l-.52,0Z" transform="translate(-7.65 -6.83)"/><path d="M54.47,203.63a1.12,1.12,0,0,1,.28-.73,1.65,1.65,0,0,1,.79-.48,1.19,1.19,0,0,1-.49-1.06,1.53,1.53,0,0,1,.34-1,1.64,1.64,0,0,1-.52-1.25,1.67,1.67,0,0,1,.55-1.23,1.85,1.85,0,0,1,1.34-.52,2,2,0,0,1,1.25.42,1.74,1.74,0,0,1,1.24-.55.53.53,0,0,1,.45.19.69.69,0,0,1,.14.4.34.34,0,0,1-.11.27.4.4,0,0,1-.23.09.37.37,0,0,1-.25-.1.34.34,0,0,1-.11-.25.32.32,0,0,1,.2-.33h-.12a1.48,1.48,0,0,0-1,.46,1.61,1.61,0,0,1,.45,1.17,1.67,1.67,0,0,1-.54,1.24,1.86,1.86,0,0,1-1.32.52,2,2,0,0,1-1.19-.37.92.92,0,0,0-.19.56.83.83,0,0,0,.18.53.64.64,0,0,0,.46.27h.88l.73,0a2.64,2.64,0,0,1,.62.09,2.44,2.44,0,0,1,.66.23,1.48,1.48,0,0,1,.77,1.37,1.28,1.28,0,0,1-.77,1.12,3.75,3.75,0,0,1-1.83.43,3.7,3.7,0,0,1-1.85-.44A1.25,1.25,0,0,1,54.47,203.63Zm.63,0a1.07,1.07,0,0,0,.56.87,2.86,2.86,0,0,0,2.83,0,1.07,1.07,0,0,0,.56-.88.88.88,0,0,0-.2-.59,1.08,1.08,0,0,0-.61-.32,4.39,4.39,0,0,0-.69-.11l-.81,0h-.69a1,1,0,0,0-.68.32A1.06,1.06,0,0,0,55.1,203.63Zm.6-4.5c0,1,.35,1.49,1,1.49a1,1,0,0,0,.85-.48,2.06,2.06,0,0,0,.2-1c0-1-.35-1.49-1-1.49a1,1,0,0,0-.86.49A2,2,0,0,0,55.7,199.13Z" transform="translate(-7.65 -6.83)"/><path d="M60.55,202.67v-.37a2.31,2.31,0,0,0,.79-.08c.09-.05.14-.21.14-.47v-3.22c0-.3,0-.48-.15-.55a1.51,1.51,0,0,0-.73-.11v-.37l1.67-.13v4.4a.56.56,0,0,0,.13.44,1.67,1.67,0,0,0,.72.09v.37l-1.25,0Zm.49-7.39a.61.61,0,0,1,.19-.44.62.62,0,0,1,.46-.19.64.64,0,0,1,.45.18.6.6,0,0,1,.19.45.63.63,0,0,1-.19.46.64.64,0,0,1-.45.18.62.62,0,0,1-.47-.2A.6.6,0,0,1,61,195.28Z" transform="translate(-7.65 -6.83)"/><path d="M63.86,202.67v-.37a2.36,2.36,0,0,0,.79-.08c.09-.05.14-.21.14-.47v-3.21c0-.29-.05-.48-.15-.55a1.57,1.57,0,0,0-.78-.12v-.37l1.68-.13v1.26a1.87,1.87,0,0,1,1.78-1.26,1.53,1.53,0,0,1,1.26.45,1.16,1.16,0,0,1,.32.63,7.91,7.91,0,0,1,.06,1.2v2.29a.29.29,0,0,0,.2.3,3,3,0,0,0,.74.06v.37l-1.35,0-1.35,0v-.37a2.28,2.28,0,0,0,.78-.08c.1-.05.15-.21.15-.47V199a2.07,2.07,0,0,0-.19-1,.71.71,0,0,0-.7-.36,1.52,1.52,0,0,0-1.12.53,1.92,1.92,0,0,0-.5,1.39v2.2c0,.26,0,.42.15.47a2.31,2.31,0,0,0,.79.08v.37l-1.35,0Z" transform="translate(-7.65 -6.83)"/><path d="M70.45,203.63a1.12,1.12,0,0,1,.28-.73,1.61,1.61,0,0,1,.79-.48,1.19,1.19,0,0,1-.49-1.06,1.53,1.53,0,0,1,.34-1,1.6,1.6,0,0,1-.52-1.25,1.64,1.64,0,0,1,.55-1.23,1.85,1.85,0,0,1,1.34-.52,2,2,0,0,1,1.25.42,1.74,1.74,0,0,1,1.24-.55.5.5,0,0,1,.44.19.64.64,0,0,1,.15.4.34.34,0,0,1-.11.27.4.4,0,0,1-.24.09.35.35,0,0,1-.24-.1.34.34,0,0,1-.11-.25.32.32,0,0,1,.2-.33H75.2a1.48,1.48,0,0,0-1,.46,1.61,1.61,0,0,1,.45,1.17,1.67,1.67,0,0,1-.54,1.24,1.86,1.86,0,0,1-1.32.52,2,2,0,0,1-1.19-.37.86.86,0,0,0-.19.56.83.83,0,0,0,.18.53.64.64,0,0,0,.45.27h.89l.73,0a2.64,2.64,0,0,1,.62.09,2.44,2.44,0,0,1,.66.23,1.48,1.48,0,0,1,.77,1.37,1.28,1.28,0,0,1-.77,1.12,3.75,3.75,0,0,1-1.83.43,3.7,3.7,0,0,1-1.85-.44A1.25,1.25,0,0,1,70.45,203.63Zm.62,0a1.06,1.06,0,0,0,.57.87,2.86,2.86,0,0,0,2.83,0,1.07,1.07,0,0,0,.56-.88.88.88,0,0,0-.2-.59,1.11,1.11,0,0,0-.61-.32,4.39,4.39,0,0,0-.69-.11l-.81,0H72a1,1,0,0,0-.68.32A1.07,1.07,0,0,0,71.07,203.63Zm.61-4.5c0,1,.35,1.49,1,1.49a1,1,0,0,0,.85-.48,2.06,2.06,0,0,0,.2-1c0-1-.35-1.49-1-1.49a1,1,0,0,0-.86.49A2,2,0,0,0,71.68,199.13Z" transform="translate(-7.65 -6.83)"/><path d="M285.86,188.5a3.05,3.05,0,0,1,.35-1.29,4.58,4.58,0,0,1,1.22-1.49,2,2,0,0,0,.28-.26.73.73,0,0,0,.09-.26,8.74,8.74,0,0,0,.21-1.8,4,4,0,0,0,0-.49c0-.17-.05-.37-.1-.62a1.48,1.48,0,0,0-.25-.61.57.57,0,0,0-.48-.23,1,1,0,0,0-.54.16.87.87,0,0,0-.39.42c-.07.11-.11.16-.15.16s-.07,0-.07-.12a1.59,1.59,0,0,1,.46-.89,1.37,1.37,0,0,1,1.09-.57.73.73,0,0,1,.73.55,5.9,5.9,0,0,1,.2,1.87,10.42,10.42,0,0,1-.19,2.05,10.74,10.74,0,0,0,1.4-1.23,3.24,3.24,0,0,0,1-2.12,1.46,1.46,0,0,0-.09-.52,1.36,1.36,0,0,1-.1-.27.35.35,0,0,1,.19-.29.61.61,0,0,1,.34-.12q.39,0,.39.48a3.47,3.47,0,0,1-.31,1.33,6,6,0,0,1-1.26,1.89,11.69,11.69,0,0,1-1.66,1.45,5.09,5.09,0,0,1-1.51,3,.8.8,0,0,1-.46.21Q285.86,188.89,285.86,188.5Z" transform="translate(-7.65 -6.83)"/><path d="M341.75,207.44a3.21,3.21,0,0,1,.35-1.29,4.83,4.83,0,0,1,1.22-1.48,3.16,3.16,0,0,0,.29-.27,1,1,0,0,0,.08-.25,8.3,8.3,0,0,0,.22-1.8c0-.17,0-.34,0-.5s-.05-.37-.1-.62a1.48,1.48,0,0,0-.26-.61.58.58,0,0,0-.47-.23,1.16,1.16,0,0,0-.55.16,1,1,0,0,0-.39.42c-.06.11-.11.17-.14.16s-.07,0-.07-.11a1.61,1.61,0,0,1,.46-.9,1.38,1.38,0,0,1,1.08-.56.73.73,0,0,1,.74.55,6.18,6.18,0,0,1,.2,1.86,10.42,10.42,0,0,1-.19,2.05,11.39,11.39,0,0,0,1.39-1.22,3.29,3.29,0,0,0,1-2.13,1.44,1.44,0,0,0-.09-.51,1.72,1.72,0,0,1-.09-.28.35.35,0,0,1,.18-.29.62.62,0,0,1,.35-.11c.26,0,.38.15.38.47a3.59,3.59,0,0,1-.3,1.33,6,6,0,0,1-1.27,1.9,13.81,13.81,0,0,1-1.65,1.45,5.16,5.16,0,0,1-1.52,3,.79.79,0,0,1-.45.2C341.86,207.84,341.75,207.71,341.75,207.44Z" transform="translate(-7.65 -6.83)"/><path d="M317.26,183.87a3.19,3.19,0,0,1,1-2.4,2.9,2.9,0,0,1,2-.93,1.3,1.3,0,0,1,.88.29,1,1,0,0,1,.33.73v.12s0,.13-.05.24a1.73,1.73,0,0,1-.14.31,1.33,1.33,0,0,1-.29.3,2.09,2.09,0,0,1-.46.28,5,5,0,0,1-1.74.26h-.46a5.37,5.37,0,0,0-.21,1.32,2.62,2.62,0,0,0,.06.57,1.08,1.08,0,0,0,.28.51.72.72,0,0,0,.57.24,2.68,2.68,0,0,0,.46,0,3,3,0,0,0,.78-.33,3.28,3.28,0,0,0,.91-.8c.07-.09.13-.14.16-.14a.17.17,0,0,1,.13.08.22.22,0,0,1,.06.12c0,.07-.1.22-.3.43a3.46,3.46,0,0,1-.91.63A2.92,2.92,0,0,1,319,186a1.48,1.48,0,0,1-1.27-.62A2.48,2.48,0,0,1,317.26,183.87Zm1.12-1.06H319l.46,0a1.86,1.86,0,0,0,.56-.11,4.13,4.13,0,0,0,.49-.22.88.88,0,0,0,.4-.36,1.09,1.09,0,0,0,.14-.54.72.72,0,0,0-.21-.52.71.71,0,0,0-.55-.21l-.19,0a1.46,1.46,0,0,0-.36.13,2,2,0,0,0-.48.29,2.73,2.73,0,0,0-.45.6A3.7,3.7,0,0,0,318.38,182.81Z" transform="translate(-7.65 -6.83)"/><path d="M321.81,180.1c0-.06.06-.09.17-.09h2.07v-2a.11.11,0,0,1,0-.05c0-.11,0-.17.09-.17s.09.06.09.17V180h2.07c.11,0,.17,0,.17.09s-.06.08-.17.08h-2.07v2.08c0,.11,0,.16-.09.16s-.09,0-.09-.16a.15.15,0,0,1,0-.06v-2H322C321.87,180.18,321.81,180.15,321.81,180.1Z" transform="translate(-7.65 -6.83)"/><path d="M342,183.87a3.19,3.19,0,0,1,1-2.4,2.9,2.9,0,0,1,2-.93,1.3,1.3,0,0,1,.88.29,1,1,0,0,1,.33.73v.12s0,.13-.06.24a1.2,1.2,0,0,1-.13.31,1.33,1.33,0,0,1-.29.3,2.16,2.16,0,0,1-.47.28,4.89,4.89,0,0,1-1.73.26H343a5.37,5.37,0,0,0-.21,1.32,2.62,2.62,0,0,0,.06.57,1.15,1.15,0,0,0,.27.51.75.75,0,0,0,.58.24,2.68,2.68,0,0,0,.46,0,2.82,2.82,0,0,0,.77-.33,3.18,3.18,0,0,0,.92-.8c.07-.09.12-.14.16-.14a.19.19,0,0,1,.13.08.28.28,0,0,1,.05.12c0,.07-.09.22-.29.43a3.37,3.37,0,0,1-.92.63,2.86,2.86,0,0,1-1.32.32,1.48,1.48,0,0,1-1.26-.62A2.48,2.48,0,0,1,342,183.87Zm1.12-1.06h.57l.46,0a1.86,1.86,0,0,0,.56-.11,4.13,4.13,0,0,0,.49-.22.93.93,0,0,0,.4-.36,1.08,1.08,0,0,0,.13-.54.71.71,0,0,0-.2-.52.72.72,0,0,0-.55-.21l-.19,0a1.46,1.46,0,0,0-.36.13,1.81,1.81,0,0,0-.48.29,2.73,2.73,0,0,0-.45.6A3.7,3.7,0,0,0,343.11,182.81Z" transform="translate(-7.65 -6.83)"/><path d="M347,178v-.37h4.32V178Z" transform="translate(-7.65 -6.83)"/><path d="M283.94,202.82a3.17,3.17,0,0,1,1-2.41,2.88,2.88,0,0,1,2-.93,1.27,1.27,0,0,1,.88.3.91.91,0,0,1,.33.72.62.62,0,0,1,0,.13,1.21,1.21,0,0,1-.05.23,1.09,1.09,0,0,1-.14.31,1.35,1.35,0,0,1-.29.31,1.86,1.86,0,0,1-.46.27,4.76,4.76,0,0,1-1.74.26H285a5.29,5.29,0,0,0-.2,1.32,3.36,3.36,0,0,0,0,.57,1.08,1.08,0,0,0,.28.51.7.7,0,0,0,.57.25,4.09,4.09,0,0,0,.46,0,2.77,2.77,0,0,0,.78-.34,3.16,3.16,0,0,0,.92-.8c.07-.09.12-.13.15-.13a.16.16,0,0,1,.13.07.22.22,0,0,1,.06.12c0,.08-.1.22-.29.43a3.31,3.31,0,0,1-.92.63,2.92,2.92,0,0,1-1.32.32,1.49,1.49,0,0,1-1.27-.62A2.45,2.45,0,0,1,283.94,202.82Zm1.12-1.07h.58l.46,0a2.13,2.13,0,0,0,.55-.12,3,3,0,0,0,.5-.21.93.93,0,0,0,.39-.37,1,1,0,0,0,.14-.53.7.7,0,0,0-.75-.73h-.19a2.85,2.85,0,0,0-.37.13,1.57,1.57,0,0,0-.47.3,2.45,2.45,0,0,0-.46.6A4.27,4.27,0,0,0,285.06,201.75Z" transform="translate(-7.65 -6.83)"/><path d="M288.49,200.65c0-.09.06-.14.19-.14h2V198.6h-2c-.14,0-.21,0-.21-.14s.07-.14.21-.14h2v-2c0-.14.05-.21.14-.21s.14.07.14.21v2h2c.14,0,.21.05.21.14s-.07.14-.21.14h-2v1.91h2c.14,0,.21.05.21.14s-.06.14-.2.14H288.7C288.56,200.79,288.49,200.74,288.49,200.65Z" transform="translate(-7.65 -6.83)"/><path d="M317.26,202.82a3.2,3.2,0,0,1,1-2.41,2.9,2.9,0,0,1,2-.93,1.25,1.25,0,0,1,.88.3.91.91,0,0,1,.33.72v.13a1.57,1.57,0,0,1-.06.23,1.07,1.07,0,0,1-.13.31,1.35,1.35,0,0,1-.29.31,2.06,2.06,0,0,1-.46.27,4.76,4.76,0,0,1-1.74.26h-.46a5.37,5.37,0,0,0-.21,1.32,2.56,2.56,0,0,0,.06.57,1.15,1.15,0,0,0,.27.51.73.73,0,0,0,.58.25,4.3,4.3,0,0,0,.46,0,2.77,2.77,0,0,0,.78-.34,3.13,3.13,0,0,0,.91-.8c.07-.09.12-.13.16-.13a.16.16,0,0,1,.13.07.22.22,0,0,1,.06.12c0,.08-.1.22-.3.43a3.24,3.24,0,0,1-.91.63,2.93,2.93,0,0,1-1.33.32,1.48,1.48,0,0,1-1.26-.62A2.45,2.45,0,0,1,317.26,202.82Zm1.12-1.07H319l.46,0a2.21,2.21,0,0,0,.56-.12,2.89,2.89,0,0,0,.49-.21.9.9,0,0,0,.4-.37,1,1,0,0,0,.14-.53.7.7,0,0,0-.21-.52.71.71,0,0,0-.55-.21h-.19l-.36.13a1.61,1.61,0,0,0-.48.3,2.73,2.73,0,0,0-.45.6A3.5,3.5,0,0,0,318.38,201.75Z" transform="translate(-7.65 -6.83)"/><path d="M321.81,200.65c0-.09.06-.14.19-.14h2V198.6h-2c-.13,0-.2,0-.2-.14s.07-.14.2-.14h2v-2c0-.14.05-.21.14-.21s.14.07.14.21v2h2c.14,0,.21.05.21.14s-.07.14-.21.14h-2v1.91h2c.14,0,.21.05.21.14s-.07.14-.2.14H322C321.88,200.79,321.81,200.74,321.81,200.65Z" transform="translate(-7.65 -6.83)"/><path d="M329.64,182.86c0-.1.09-.15.28-.15h3.56v-3.39a.35.35,0,0,1,0-.07s0-.07,0-.09c0-.19.06-.29.16-.29s.15.1.15.29v3.55h3.56q.27,0,.27.15c0,.09-.09.14-.29.14h-3.54v3.57q0,.27-.15.27c-.1,0-.16-.09-.16-.29,0,0,0,0,0-.09a.35.35,0,0,1,0-.07V183h-3.57C329.73,183,329.64,183,329.64,182.86Z" transform="translate(-7.65 -6.83)"/><path d="M329.64,201.8c0-.1.09-.14.28-.14h3.56v-3.4a.35.35,0,0,1,0-.07s0-.07,0-.09c0-.19.06-.29.16-.29s.15.1.15.29v3.56h3.56c.18,0,.27,0,.27.14s-.09.14-.29.14h-3.54v3.57c0,.18,0,.28-.15.28s-.16-.1-.16-.29c0,0,0-.06,0-.09a.35.35,0,0,1,0-.07v-3.4h-3.57C329.73,201.94,329.64,201.9,329.64,201.8Z" transform="translate(-7.65 -6.83)"/><line class="cls-6" x1="126.36" y1="185.72" x2="104.45" y2="185.72"/><polygon class="cls-7" points="105.77 181.23 98 185.72 105.77 190.2 105.77 181.23"/><line class="cls-6" x1="257.57" y1="185.72" x2="235.66" y2="185.72"/><polygon class="cls-7" points="236.97 181.23 229.2 185.72 236.97 190.2 236.97 181.23"/><line class="cls-6" x1="262.65" y1="130.69" x2="273.61" y2="149.67"/><polygon class="cls-7" points="269.07 150.78 276.84 155.26 276.84 146.29 269.07 150.78"/><line class="cls-6" x1="80.67" y1="155.26" x2="91.63" y2="136.29"/><polygon class="cls-7" points="94.86 139.67 94.86 130.69 87.08 135.18 94.86 139.67"/><line class="cls-6" x1="222.65" y1="48.91" x2="233.61" y2="67.89"/><polygon class="cls-7" points="229.07 68.99 236.84 73.48 236.84 64.5 229.07 68.99"/><line class="cls-6" x1="120.67" y1="73.48" x2="131.63" y2="54.5"/><polygon class="cls-7" points="134.86 57.88 134.86 48.91 127.08 53.4 134.86 57.88"/><path class="cls-7" d="M246.55,67.36V60.22a.47.47,0,0,1,.54-.53h1a.79.79,0,0,1,.71.34c.06.1.47,1.08,1.23,2.93s1.18,2.95,1.28,3.29q.12-.44,2.37-5.93a1.8,1.8,0,0,1,.15-.31.6.6,0,0,1,.23-.21.82.82,0,0,1,.44-.11h1.07a.49.49,0,0,1,.54.56v7.2a.73.73,0,0,1-.1.42.55.55,0,0,1-.45.15h-.38a1,1,0,0,1-.33,0,.3.3,0,0,1-.16-.17,1.37,1.37,0,0,1,0-.19V61.53a1.16,1.16,0,0,0,0-.17v-.17q-.12.56-2.35,5.93a1.08,1.08,0,0,1-.35.52.87.87,0,0,1-.49.12h-.24l-.26,0a.4.4,0,0,1-.2-.09.63.63,0,0,1-.29-.32l-.12-.28c0-.07-.09-.2-.16-.39s-.14-.35-.19-.47l-1.25-3.09c-.4-1.05-.62-1.68-.68-1.91v6.28a.48.48,0,0,1-.54.55h-.4a.93.93,0,0,1-.32,0,.27.27,0,0,1-.16-.17.64.64,0,0,1-.05-.2A1.49,1.49,0,0,1,246.55,67.36Z" transform="translate(-7.65 -6.83)"/><path class="cls-7" d="M257.55,65.33a4.28,4.28,0,0,1,.23-1.47,2.14,2.14,0,0,1,.65-.94,2.48,2.48,0,0,1,.86-.46,3.5,3.5,0,0,1,1-.14h.55a5.62,5.62,0,0,1,.58.08,2.92,2.92,0,0,1,.59.19,2.41,2.41,0,0,1,.53.35,1.8,1.8,0,0,1,.45.54,3,3,0,0,1,.3.79,5.25,5.25,0,0,1,.11,1.1c0,1.85-1,2.77-2.91,2.78S257.55,67.21,257.55,65.33Zm1.64.12c0,.21,0,.37,0,.47a3.48,3.48,0,0,0,.09.45,1.19,1.19,0,0,0,.19.45,1.11,1.11,0,0,0,.37.27,1.32,1.32,0,0,0,.62.13,1.28,1.28,0,0,0,.61-.13,1,1,0,0,0,.38-.29,1.39,1.39,0,0,0,.2-.44,4,4,0,0,0,.08-.48c0-.13,0-.3,0-.5V65c0-.17,0-.29,0-.38s0-.21,0-.37a1,1,0,0,0-.12-.4,2.28,2.28,0,0,0-.22-.31.73.73,0,0,0-.37-.23,1.73,1.73,0,0,0-.54-.07,1.32,1.32,0,0,0-.62.13,1.11,1.11,0,0,0-.38.29,1.2,1.2,0,0,0-.19.48,3.52,3.52,0,0,0-.08.5v.85Z" transform="translate(-7.65 -6.83)"/><path class="cls-7" d="M264.5,67.48V63a.65.65,0,0,1,.09-.37.44.44,0,0,1,.2-.15.94.94,0,0,1,.25,0h.66l.17.05a.26.26,0,0,1,.15.16.76.76,0,0,1,.05.29v.24a2.67,2.67,0,0,1,1.95-.83,3.25,3.25,0,0,1,.75.08,1.11,1.11,0,0,1,.5.24,1.71,1.71,0,0,1,.3.31,1,1,0,0,1,.16.42c0,.18,0,.33,0,.44s0,.25,0,.44v3.17c0,.36-.17.53-.51.53h-.57a.54.54,0,0,1-.44-.14.57.57,0,0,1-.12-.39V63.93c0-.07,0-.15,0-.24a.5.5,0,0,0-.11-.22.55.55,0,0,0-.21-.14.86.86,0,0,0-.34-.06,1.13,1.13,0,0,0-.82.3,1.57,1.57,0,0,0-.42.67,2.93,2.93,0,0,0-.07.65v2.49a.2.2,0,0,1,0,.07.8.8,0,0,1,0,.16.84.84,0,0,1-.08.19.34.34,0,0,1-.16.15.5.5,0,0,1-.27.07h-.53C264.68,68,264.5,67.84,264.5,67.48Z" transform="translate(-7.65 -6.83)"/><path class="cls-7" d="M270.79,63c0-.29.17-.44.51-.44h.28v-1c0-.36.2-.54.59-.54h.43a.48.48,0,0,1,.55.54v1h1.08a.63.63,0,0,1,.35.1.54.54,0,0,1,.15.18.47.47,0,0,1,0,.17.55.55,0,0,1,0,.17.44.44,0,0,1-.15.17.54.54,0,0,1-.33.09h-1.1V66a.86.86,0,0,0,0,.15,2.1,2.1,0,0,0,.12.87.4.4,0,0,0,.38.24,1.38,1.38,0,0,0,.7-.21,2.79,2.79,0,0,1,.39-.21s.1,0,.15.16a2.19,2.19,0,0,1,.1.34l0,.16c0,.15-.25.31-.75.46a4.72,4.72,0,0,1-1.44.24,1.1,1.1,0,0,1-1.15-.87,4.13,4.13,0,0,1-.11-1.09V63.4h-.25C271,63.4,270.79,63.26,270.79,63Z" transform="translate(-7.65 -6.83)"/><path class="cls-7" d="M275.72,65.23A2.84,2.84,0,0,1,276.5,63a3.05,3.05,0,0,1,2.15-.72,3.37,3.37,0,0,1,1.3.22,1.93,1.93,0,0,1,.82.61,2.54,2.54,0,0,1,.4.83,3.6,3.6,0,0,1,.12,1q0,.51-.54.51h-3.43c0,1.22.54,1.83,1.52,1.83a2.71,2.71,0,0,0,1-.18,2.9,2.9,0,0,0,.75-.38,2,2,0,0,1,.35-.22H281l.06,0a.43.43,0,0,1,.1.27,1.84,1.84,0,0,1,0,.39v.18a.31.31,0,0,1-.2.26,4.67,4.67,0,0,1-2.19.54,3.21,3.21,0,0,1-2.31-.75A2.83,2.83,0,0,1,275.72,65.23Zm1.62-.55h2.47a2.26,2.26,0,0,0-.27-1.09,1,1,0,0,0-.89-.39C277.87,63.2,277.43,63.69,277.34,64.68Z" transform="translate(-7.65 -6.83)"/><path class="cls-7" d="M281.64,65.27c0-.3.18-.44.53-.44h2.44c.35,0,.53.14.53.44a.55.55,0,0,1,0,.17.37.37,0,0,1-.15.17.56.56,0,0,1-.35.1h-2.45a.51.51,0,0,1-.42-.15A.48.48,0,0,1,281.64,65.27Z" transform="translate(-7.65 -6.83)"/><path class="cls-7" d="M286.61,63.86q0-4.44,4.43-4.44a7.16,7.16,0,0,1,2.13.35.65.65,0,0,1,.28.14.35.35,0,0,1,0,.12s-.06.37-.17,1c-.05.23-.11.35-.18.35a.62.62,0,0,1-.24-.12l-.38-.27a2.07,2.07,0,0,0-.61-.27,3,3,0,0,0-.87-.12c-1.81,0-2.71,1.07-2.71,3.22a6,6,0,0,0,.12,1.26,3.37,3.37,0,0,0,.42,1,2,2,0,0,0,.85.72,3.32,3.32,0,0,0,1.37.25,4,4,0,0,0,1-.12,1.94,1.94,0,0,0,.65-.27l.37-.26a.51.51,0,0,1,.27-.12h0s0,0,0,0l0,0a.14.14,0,0,0,0,.06.14.14,0,0,1,0,.06.19.19,0,0,1,0,.08s0,.06,0,.08a.49.49,0,0,0,0,.11v.1l0,.26c0,.07,0,.13,0,.15a.2.2,0,0,1,0,.07v.06a.31.31,0,0,1,0,.1l-.05.07-.06.06-.09,0-.08,0a3.73,3.73,0,0,1-1.07.45,5.36,5.36,0,0,1-1.26.12Q286.62,68.3,286.61,63.86Z" transform="translate(-7.65 -6.83)"/><path class="cls-7" d="M294.68,66.37a1.23,1.23,0,0,1,.28-.81,2,2,0,0,1,.67-.54,4.05,4.05,0,0,1,.93-.31q.54-.1.93-.15c.26,0,.52,0,.79,0v-.25a1.5,1.5,0,0,0-.17-.79.73.73,0,0,0-.68-.29,2.93,2.93,0,0,0-.86.12,1.9,1.9,0,0,0-.57.27l-.35.27a.47.47,0,0,1-.24.13h0l-.05,0a.78.78,0,0,1-.07-.29c0-.16,0-.3,0-.43l0-.21s0-.06,0-.08a.15.15,0,0,1,.05-.07.23.23,0,0,1,.05-.05l.1,0,.14-.06a4.42,4.42,0,0,1,1.89-.4,2.81,2.81,0,0,1,1.93.52,1.89,1.89,0,0,1,.56,1.48v3.16a.48.48,0,0,1-.54.54h-.58a.48.48,0,0,1-.38-.14.51.51,0,0,1-.11-.34,3.07,3.07,0,0,1-1.87.62,1.59,1.59,0,0,1-1.28-.56A1.84,1.84,0,0,1,294.68,66.37Zm1.6,0a1,1,0,0,0,.23.63.75.75,0,0,0,.6.28,1.43,1.43,0,0,0,.79-.26.94.94,0,0,0,.38-.84v-.94l-.63.07a4.16,4.16,0,0,0-.63.16,1.14,1.14,0,0,0-.55.35A.87.87,0,0,0,296.28,66.37Z" transform="translate(-7.65 -6.83)"/><path class="cls-7" d="M301,67.51V63c0-.24,0-.38.15-.45a.76.76,0,0,1,.4-.09h.4a.66.66,0,0,1,.48.15.32.32,0,0,1,.1.19c0,.06,0,.25,0,.54a2.3,2.3,0,0,1,.69-.63,2.57,2.57,0,0,1,.64-.28,2.37,2.37,0,0,1,.42,0h0c.11,0,.17,0,.2.06a.37.37,0,0,1,0,.21v.66a.33.33,0,0,1-.06.21.63.63,0,0,1-.31.09l-.44.09a1.87,1.87,0,0,0-.71.45,1.41,1.41,0,0,0-.39.69,2.69,2.69,0,0,0,0,.46v2.11a.79.79,0,0,1,0,.33.59.59,0,0,1-.18.2A.72.72,0,0,1,302,68h-.52a.54.54,0,0,1-.43-.14A.62.62,0,0,1,301,67.51Z" transform="translate(-7.65 -6.83)"/><path class="cls-7" d="M305.43,67.48V59.92c0-.37.17-.56.5-.57h.56a.49.49,0,0,1,.55.55v7.54a1.18,1.18,0,0,1,0,.22.41.41,0,0,1,0,.18.33.33,0,0,1-.17.13,1,1,0,0,1-.3,0H306a.72.72,0,0,1-.42-.11A.49.49,0,0,1,305.43,67.48Z" transform="translate(-7.65 -6.83)"/><path class="cls-7" d="M308.13,65.33a4.05,4.05,0,0,1,.23-1.47,2.21,2.21,0,0,1,.64-.94,2.53,2.53,0,0,1,.87-.46,3.45,3.45,0,0,1,1-.14h.55a5.62,5.62,0,0,1,.58.08,2.92,2.92,0,0,1,.59.19,2.67,2.67,0,0,1,.53.35,2,2,0,0,1,.45.54,3,3,0,0,1,.3.79,5.25,5.25,0,0,1,.11,1.1c0,1.85-1,2.77-2.92,2.78S308.13,67.21,308.13,65.33Zm1.64.12c0,.21,0,.37,0,.47a3.48,3.48,0,0,0,.09.45,1.05,1.05,0,0,0,.19.45,1,1,0,0,0,.37.27,1.29,1.29,0,0,0,.62.13,1.28,1.28,0,0,0,.61-.13,1.06,1.06,0,0,0,.38-.29,1.39,1.39,0,0,0,.2-.44,4,4,0,0,0,.08-.48c0-.13,0-.3,0-.5V65c0-.17,0-.29,0-.38s0-.21,0-.37a1,1,0,0,0-.12-.4,3.72,3.72,0,0,0-.22-.31.78.78,0,0,0-.37-.23,1.73,1.73,0,0,0-.54-.07,1.36,1.36,0,0,0-.63.13.9.9,0,0,0-.56.77,3.52,3.52,0,0,0-.08.5v.85Z" transform="translate(-7.65 -6.83)"/></g></svg>