<svg xmlns="http://www.w3.org/2000/svg" viewBox="0 0 146.84 104.93"><defs><style>.cls-1{fill:none;stroke:#000;stroke-miterlimit:10;}.cls-2{fill:#231f20;}</style></defs><title>Breit-Wheeler-NL</title><g id="Layer_2" data-name="Layer 2"><g id="Layer_1-2" data-name="Layer 1"><path class="cls-1" d="M74.43,52.46c-.77-1.54-1.54-3.08-3.08-3.08-3.09,0-3.09,6.17-6.17,6.17S62.1,49.38,59,49.38s-3.08,6.17-6.16,6.17-3.09-6.17-6.17-6.17-3.09,6.17-6.17,6.17-3.09-6.17-6.17-6.17-3.08,6.17-6.16,6.17c-1.54,0-2.31-1.54-3.08-3.09S23.57,49.38,22,49.38c-3.08,0-3.08,6.17-6.16,6.17s-3.08-6.17-6.16-6.17-3.09,6.17-6.17,6.17C2,55.55,1.22,54,.45,52.46"/><line class="cls-1" x1="126.54" y1="1.77" x2="75.14" y2="53.17"/><line class="cls-1" x1="73.73" y1="51.76" x2="125.13" y2="0.35"/><polygon points="108.07 18.82 93.48 25.93 100.97 33.41 108.07 18.82"/><line class="cls-1" x1="125.13" y1="104.57" x2="73.73" y2="53.17"/><line class="cls-1" x1="75.14" y1="51.76" x2="126.54" y2="103.16"/><polygon points="93.61 71.64 100.72 86.23 108.2 78.75 93.61 71.64"/><circle cx="74.43" cy="52.46" r="3.45"/><path class="cls-2" d="M4.35,68.22a.57.57,0,0,1,0-.16L6.15,61v-.1l0-.1a.31.31,0,0,0,0-.11A.34.34,0,0,0,6,60.6a2.12,2.12,0,0,0-.42,0c-.19,0-.29,0-.29-.13a.34.34,0,0,1,0-.16.17.17,0,0,1,.1-.07l.14,0,1.19-.1.19,0c.11,0,.17,0,.17.14a.5.5,0,0,1,0,.16L5.87,65.26a2.25,2.25,0,0,0,.53-.36c.15-.14.4-.42.75-.82a2.23,2.23,0,0,1,1.55-1,.65.65,0,0,1,.53.23.74.74,0,0,1,.18.49.69.69,0,0,1-.17.49.51.51,0,0,1-.38.18.46.46,0,0,1-.35-.12.38.38,0,0,1-.11-.26.67.67,0,0,1,0-.18.57.57,0,0,1,.18-.24A.65.65,0,0,1,9,63.5a.39.39,0,0,0-.31-.14,1.08,1.08,0,0,0-.59.19,2.7,2.7,0,0,0-.49.39l-.6.68a4.36,4.36,0,0,1-.85.79c1,.15,1.48.57,1.48,1.25,0,.11,0,.25,0,.42,0,.32,0,.55,0,.67,0,.35.09.52.27.52a.56.56,0,0,0,.37-.13.91.91,0,0,0,.28-.37,3.65,3.65,0,0,0,.19-.44c.05-.13.1-.29.16-.49a.69.69,0,0,1,.07-.24.21.21,0,0,1,.14,0c.11,0,.16,0,.14.12a1.47,1.47,0,0,1,0,.23A4.87,4.87,0,0,1,9,67.4a3.51,3.51,0,0,1-.22.5,1,1,0,0,1-.9.63.94.94,0,0,1-.69-.29,1.18,1.18,0,0,1-.29-.87,1.9,1.9,0,0,1,0-.41,1.13,1.13,0,0,0,0-.3.78.78,0,0,0-.22-.55,1.39,1.39,0,0,0-.47-.33,2.33,2.33,0,0,0-.52-.13l-.61,2.44c-.06.29-.22.44-.47.44a.3.3,0,0,1-.25-.1A.29.29,0,0,1,4.35,68.22Z"/><path class="cls-2" d="M11,66a.8.8,0,0,1,0-.21l1.09-4.37h.54c-.07.3-.16.64-.26,1s-.18.68-.23.88a1.91,1.91,0,0,0-.07.44.65.65,0,0,0,.12.41.41.41,0,0,0,.33.15.71.71,0,0,0,.48-.21,1.39,1.39,0,0,0,.34-.55c0-.12.05-.22.07-.28L14,61.39l.55-.24c-.06.22-.14.55-.26,1S14,63,14,63.29a1.28,1.28,0,0,0-.07.58.25.25,0,0,0,.06.19.2.2,0,0,0,.14.06.28.28,0,0,0,.23-.14,1,1,0,0,0,.16-.28.36.36,0,0,1,.08-.17h.06a.14.14,0,0,1,0,.07,1.1,1.1,0,0,1-.25.52.73.73,0,0,1-.59.36c-.26,0-.4-.17-.42-.52h0a1,1,0,0,1-.82.52.53.53,0,0,1-.44-.2.82.82,0,0,1-.15-.5,1.86,1.86,0,0,1,0-.22c0,.17-.08.38-.14.65s-.12.49-.16.68a3.26,3.26,0,0,0,0,.48c0,.12,0,.23,0,.35s0,.17,0,.18a.27.27,0,0,1-.13.23.43.43,0,0,1-.26.09.25.25,0,0,1-.17-.06A.23.23,0,0,1,11,66Z"/><path class="cls-2" d="M132.78,15.85c0-.15.08-.23.25-.23a1.28,1.28,0,0,0,.47-.08c.08,0,.14-.16.18-.34l1.38-5.49a2.92,2.92,0,0,0,.08-.6c0-.32-.11-.48-.32-.48a.56.56,0,0,0-.48.36,4.7,4.7,0,0,0-.38,1.07.9.9,0,0,1-.07.23s-.06,0-.13,0-.16,0-.16-.12,0-.09.05-.21.07-.28.13-.48.13-.38.19-.52c.21-.42.48-.64.82-.64h0a1.11,1.11,0,0,1,.59.19.91.91,0,0,1,.39.65,2,2,0,0,1,1.46-.84,1.35,1.35,0,0,1,1,.49,2,2,0,0,1,.43,1.39,3.88,3.88,0,0,1-.87,2.44,2.43,2.43,0,0,1-1.88,1.12.85.85,0,0,1-.63-.23,1.36,1.36,0,0,1-.32-.47l-.44,1.76c-.09.35-.14.54-.14.57a.15.15,0,0,0,0,.1s.07.05.16.06a2,2,0,0,0,.4,0c.18,0,.27.05.27.14A.2.2,0,0,1,135,16h-.57c-.26,0-.46,0-.59,0s-.25,0-.47,0h-.51C132.82,16,132.78,16,132.78,15.85Zm2.33-3.43a2,2,0,0,0,0,.34,1.37,1.37,0,0,0,.25.5.62.62,0,0,0,.52.28,1,1,0,0,0,.74-.39,2.88,2.88,0,0,0,.53-.75,7.71,7.71,0,0,0,.47-1.43,6.75,6.75,0,0,0,.2-1.27,1.9,1.9,0,0,0-.14-.73.5.5,0,0,0-.5-.34,1.28,1.28,0,0,0-.91.49,1.92,1.92,0,0,0-.55.86l-.57,2.27A.54.54,0,0,0,135.11,12.42Z"/><path class="cls-2" d="M139.32,13.67v-.22a1.71,1.71,0,0,0,1.29-.45c.07,0,.12,0,.13,0a.4.4,0,0,1,0,.15v3.93c0,.14,0,.23.1.27a1.65,1.65,0,0,0,.58.06h.23v.22c-.17,0-.55,0-1.14,0s-1,0-1.13,0v-.22h.22a1.45,1.45,0,0,0,.55-.06.29.29,0,0,0,.11-.27V13.49A2.25,2.25,0,0,1,139.32,13.67Z"/><path class="cls-2" d="M142.15,11.24a1.72,1.72,0,0,1,0-.21l1.09-4.36h.55q-.11.44-.27,1c-.1.39-.18.68-.22.88a2,2,0,0,0-.07.44.65.65,0,0,0,.12.41.41.41,0,0,0,.33.16.71.71,0,0,0,.47-.22,1.23,1.23,0,0,0,.34-.55c0-.12.06-.22.07-.28l.48-1.87.54-.24c-.05.22-.14.55-.25,1s-.21.84-.29,1.14a1.45,1.45,0,0,0-.07.58.22.22,0,0,0,.07.19.18.18,0,0,0,.13.06.29.29,0,0,0,.24-.14A1.25,1.25,0,0,0,145.6,9c0-.1.06-.16.08-.17a.06.06,0,0,1,.06,0,.09.09,0,0,1,0,.07,1.15,1.15,0,0,1-.26.52.73.73,0,0,1-.59.36c-.26,0-.4-.17-.42-.52h0a1,1,0,0,1-.82.52.54.54,0,0,1-.45-.2.82.82,0,0,1-.15-.5c0-.06,0-.13,0-.22,0,.17-.08.38-.15.65s-.11.49-.15.68a2.4,2.4,0,0,0-.06.48,2.07,2.07,0,0,0,0,.35c0,.11,0,.17,0,.18a.28.28,0,0,1-.12.23.48.48,0,0,1-.27.09.27.27,0,0,1-.17-.06A.23.23,0,0,1,142.15,11.24Z"/><path class="cls-2" d="M131.7,93.44c0-.15.09-.23.25-.23a1.15,1.15,0,0,0,.48-.08.55.55,0,0,0,.18-.33L134,87.3a2.26,2.26,0,0,0,.08-.6c0-.32-.1-.48-.32-.48s-.34.12-.47.36a4.89,4.89,0,0,0-.38,1.07,1,1,0,0,1-.07.24.18.18,0,0,1-.13,0c-.11,0-.16,0-.16-.13a1.46,1.46,0,0,1,0-.2c0-.13.08-.29.14-.49s.13-.37.19-.52q.32-.63.81-.63h0a1.12,1.12,0,0,1,.59.18.94.94,0,0,1,.39.66,2,2,0,0,1,1.46-.84,1.32,1.32,0,0,1,1,.49,2,2,0,0,1,.42,1.38,3.91,3.91,0,0,1-.87,2.45,2.43,2.43,0,0,1-1.87,1.12.89.89,0,0,1-.63-.23,1.27,1.27,0,0,1-.33-.47l-.43,1.75c-.09.35-.14.54-.14.57a.31.31,0,0,0,0,.11.37.37,0,0,0,.16.06l.41,0c.17,0,.26.05.26.14s-.07.24-.22.24l-.58,0-.58,0-.47,0-.5,0h0C131.75,93.59,131.7,93.54,131.7,93.44ZM134,90a1.31,1.31,0,0,0,.05.34,1.23,1.23,0,0,0,.25.5.6.6,0,0,0,.51.28,1,1,0,0,0,.75-.38,3.39,3.39,0,0,0,.53-.76,7.65,7.65,0,0,0,.46-1.42,6.26,6.26,0,0,0,.21-1.28,1.77,1.77,0,0,0-.15-.73.49.49,0,0,0-.49-.34,1.36,1.36,0,0,0-.92.49,2.08,2.08,0,0,0-.55.87l-.56,2.26A.93.93,0,0,0,134,90Z"/><path class="cls-2" d="M138,95.26a.67.67,0,0,1,0-.17.36.36,0,0,1,.07-.09l1.33-1.5a2.43,2.43,0,0,0,.74-1.55,1.34,1.34,0,0,0-.25-.8.8.8,0,0,0-.69-.33,1,1,0,0,0-.57.18,1.1,1.1,0,0,0-.37.52h.09a.37.37,0,0,1,.27.11.41.41,0,0,1,.09.26.32.32,0,0,1-.12.28.4.4,0,0,1-.23.09h-.11a.29.29,0,0,1-.16-.1.37.37,0,0,1-.1-.28,1.22,1.22,0,0,1,.37-.87,1.21,1.21,0,0,1,.93-.39,1.48,1.48,0,0,1,1.05.38,1.25,1.25,0,0,1,.42,1,1.09,1.09,0,0,1-.07.4,2.18,2.18,0,0,1-.14.34,3.06,3.06,0,0,1-.31.38c-.15.16-.28.29-.4.4l-.58.53-.74.72h1.25a1.64,1.64,0,0,0,.66-.06,1.79,1.79,0,0,0,.15-.62h.18l-.2,1.22Z"/><path class="cls-2" d="M143.23,88.83a1,1,0,0,1,0-.21l1.09-4.36h.54c-.07.29-.16.63-.26,1s-.18.69-.23.89a1.84,1.84,0,0,0-.07.43.68.68,0,0,0,.12.42.4.4,0,0,0,.33.15.71.71,0,0,0,.48-.21,1.3,1.3,0,0,0,.33-.56,1.8,1.8,0,0,0,.07-.27l.48-1.87.55-.24c-.06.21-.14.54-.26,1s-.21.83-.28,1.14a1.23,1.23,0,0,0-.07.57.24.24,0,0,0,.06.19.2.2,0,0,0,.14.06.27.27,0,0,0,.23-.13.85.85,0,0,0,.15-.28.45.45,0,0,1,.09-.17s0,0,.05,0a.09.09,0,0,1,0,.07,1.12,1.12,0,0,1-.25.51.74.74,0,0,1-.59.36c-.27,0-.4-.17-.42-.52h0a1,1,0,0,1-.82.52.5.5,0,0,1-.44-.2.8.8,0,0,1-.15-.5,1.94,1.94,0,0,1,0-.22c0,.17-.08.39-.14.65s-.12.49-.16.68a2.38,2.38,0,0,0-.05.49,1.94,1.94,0,0,0,0,.34,1.88,1.88,0,0,1,0,.19.25.25,0,0,1-.13.22.43.43,0,0,1-.26.09.25.25,0,0,1-.17-.06C143.25,89,143.23,88.92,143.23,88.83Z"/></g></g></svg>