<svg xmlns="http://www.w3.org/2000/svg" viewBox="0 0 141.71 104.94"><defs><style>.cls-1{fill:none;stroke:#000;stroke-miterlimit:10;}.cls-2{fill:#231f20;}</style></defs><title>Compton-NL</title><g id="Layer_2" data-name="Layer 2"><g id="Layer_1-2" data-name="Layer 1"><path class="cls-1" d="M129.18,104.78c.54-1.64,1.09-3.27,0-4.36-2.18-2.18-6.54,2.18-8.72,0s2.18-6.54,0-8.72-6.54,2.18-8.72,0,2.18-6.54,0-8.72-6.54,2.18-8.72,0,2.18-6.54,0-8.72-6.54,2.18-8.72,0c-1.09-1.09-.55-2.72,0-4.36s1.09-3.27,0-4.36c-2.18-2.18-6.54,2.18-8.72,0s2.18-6.54,0-8.72S79,59,76.86,56.83c-1.09-1.09-.54-2.73,0-4.37"/><line class="cls-1" x1="77.02" y1="53.46" x2="4.33" y2="53.46"/><line class="cls-1" x1="4.33" y1="51.46" x2="77.02" y2="51.46"/><polygon points="51.9 52.46 36.56 47.17 36.56 57.76 51.9 52.46"/><line class="cls-1" x1="128.72" y1="1.77" x2="77.32" y2="53.17"/><line class="cls-1" x1="75.9" y1="51.76" x2="127.31" y2="0.35"/><polygon points="110.25 18.82 95.66 25.93 103.15 33.41 110.25 18.82"/><circle cx="76.61" cy="52.46" r="3.45"/><path class="cls-2" d="M0,73.13c0-.15.08-.23.25-.23a1.06,1.06,0,0,0,.47-.08c.08,0,.14-.15.19-.33L2.28,67a2.76,2.76,0,0,0,.08-.6c0-.32-.11-.48-.32-.48s-.34.12-.47.36a4.83,4.83,0,0,0-.39,1.07.69.69,0,0,1-.07.24s-.06,0-.13,0-.15,0-.15-.13a1.46,1.46,0,0,1,0-.2c0-.13.08-.29.14-.49a3.84,3.84,0,0,1,.19-.52q.31-.63.81-.63H2a1.16,1.16,0,0,1,.6.18.94.94,0,0,1,.39.66,2,2,0,0,1,1.45-.84,1.29,1.29,0,0,1,1,.49,2,2,0,0,1,.43,1.38A3.91,3.91,0,0,1,5,70a2.45,2.45,0,0,1-1.87,1.12.89.89,0,0,1-.63-.23,1.35,1.35,0,0,1-.33-.47l-.44,1.75a5.63,5.63,0,0,0-.13.57.31.31,0,0,0,0,.11.37.37,0,0,0,.16.06l.4,0c.18,0,.27,0,.27.14s-.07.24-.23.24l-.57,0-.58,0-.48,0-.49,0h0C0,73.28,0,73.23,0,73.13ZM2.33,69.7a2,2,0,0,0,0,.34,1.41,1.41,0,0,0,.26.5.59.59,0,0,0,.51.28,1,1,0,0,0,.75-.38,3.39,3.39,0,0,0,.53-.76,7.65,7.65,0,0,0,.46-1.42A6.26,6.26,0,0,0,5.1,67,1.77,1.77,0,0,0,5,66.25a.5.5,0,0,0-.49-.34,1.34,1.34,0,0,0-.92.49,2,2,0,0,0-.55.87l-.57,2.26A.68.68,0,0,0,2.33,69.7Z"/><path class="cls-2" d="M8,68.52a1,1,0,0,1,0-.21L9.16,64H9.7c-.07.29-.16.63-.26,1s-.18.69-.23.88a2,2,0,0,0-.07.44.68.68,0,0,0,.12.42.4.4,0,0,0,.33.15.67.67,0,0,0,.47-.21,1.23,1.23,0,0,0,.34-.56,1.8,1.8,0,0,0,.07-.27L11,64l.55-.24c-.06.21-.14.54-.26,1s-.21.83-.28,1.14a1.23,1.23,0,0,0-.07.57.24.24,0,0,0,.06.19.2.2,0,0,0,.14.06.27.27,0,0,0,.23-.13.85.85,0,0,0,.15-.28.45.45,0,0,1,.09-.17s0,0,0,0a.08.08,0,0,1,0,.07,1.07,1.07,0,0,1-.26.51.71.71,0,0,1-.58.36c-.27,0-.41-.17-.42-.52h0a1,1,0,0,1-.82.52.49.49,0,0,1-.44-.2.8.8,0,0,1-.15-.5,1.94,1.94,0,0,1,0-.22c0,.17-.08.39-.14.65s-.12.49-.16.68a2.38,2.38,0,0,0-.05.49,1.94,1.94,0,0,0,0,.34,1.88,1.88,0,0,1,0,.19.27.27,0,0,1-.13.22.44.44,0,0,1-.27.09.29.29,0,0,1-.17-.06A.21.21,0,0,1,8,68.52Z"/><path class="cls-2" d="M130.21,18.41c0-.16.08-.24.25-.24a1.09,1.09,0,0,0,.47-.08q.12-.06.18-.33l1.38-5.5a2.76,2.76,0,0,0,.08-.6c0-.32-.11-.48-.32-.48a.56.56,0,0,0-.48.36,4.89,4.89,0,0,0-.38,1.07,1,1,0,0,1-.07.24.18.18,0,0,1-.13,0c-.1,0-.16,0-.16-.13l.05-.2a4.45,4.45,0,0,1,.14-.49c.06-.2.12-.37.18-.52a.93.93,0,0,1,.82-.63h0a1.1,1.1,0,0,1,.59.18,1,1,0,0,1,.4.66,2,2,0,0,1,1.45-.84,1.32,1.32,0,0,1,1,.49,2,2,0,0,1,.43,1.38,3.91,3.91,0,0,1-.87,2.45,2.45,2.45,0,0,1-1.88,1.12.85.85,0,0,1-.62-.23,1.27,1.27,0,0,1-.33-.47L132,17.41a5.63,5.63,0,0,0-.13.57.18.18,0,0,0,0,.11s.07,0,.16.06l.4,0q.27,0,.27.15a.21.21,0,0,1-.23.23l-.57,0-.59,0-.47,0-.49,0h0C130.25,18.55,130.21,18.5,130.21,18.41ZM132.54,15a2,2,0,0,0,.05.34,1.49,1.49,0,0,0,.25.51.63.63,0,0,0,.52.27,1,1,0,0,0,.74-.38,3.46,3.46,0,0,0,.54-.76,8.48,8.48,0,0,0,.46-1.42,6.83,6.83,0,0,0,.2-1.28,1.76,1.76,0,0,0-.14-.73.5.5,0,0,0-.5-.34,1.32,1.32,0,0,0-.91.49,1.9,1.9,0,0,0-.55.87l-.57,2.26A.93.93,0,0,0,132.54,15Z"/><path class="cls-2" d="M136.35,10.38l.76-2a.27.27,0,0,0,0-.11c0-.06,0-.11.05-.13l.07-.12a.46.46,0,0,1,.09-.12.36.36,0,0,1,.12-.08.4.4,0,0,1,.15,0A.48.48,0,0,1,138,8a.39.39,0,0,1,.15.32h0a.53.53,0,0,1-.13.3q-.13.2-.84,1.08l-.64.79Z"/><path class="cls-2" d="M138.09,13.79a1,1,0,0,1,0-.21l1.09-4.36h.55q-.12.43-.27,1l-.23.89a2.62,2.62,0,0,0-.07.43.68.68,0,0,0,.12.42.43.43,0,0,0,.33.15.7.7,0,0,0,.48-.21,1.43,1.43,0,0,0,.34-.56c0-.12.05-.21.07-.27L141,9.22l.55-.24c-.06.21-.14.54-.25,1s-.21.83-.29,1.14a1.23,1.23,0,0,0-.07.57.24.24,0,0,0,.06.19.2.2,0,0,0,.14.06.3.3,0,0,0,.24-.13,1.51,1.51,0,0,0,.15-.28.36.36,0,0,1,.08-.17,0,0,0,0,1,.06,0,.09.09,0,0,1,0,.07,1.18,1.18,0,0,1-.26.51.73.73,0,0,1-.59.36c-.26,0-.4-.17-.42-.52h0a1,1,0,0,1-.82.52.5.5,0,0,1-.44-.2.8.8,0,0,1-.15-.5,1.94,1.94,0,0,1,0-.22c0,.17-.08.39-.14.65s-.12.49-.16.68a3.52,3.52,0,0,0,0,.49c0,.12,0,.23,0,.34a1.88,1.88,0,0,1,0,.19.25.25,0,0,1-.13.22.43.43,0,0,1-.26.09.27.27,0,0,1-.17-.06A.21.21,0,0,1,138.09,13.79Z"/><path class="cls-2" d="M131.56,92.09a3.93,3.93,0,0,1,.88-2.44,2.42,2.42,0,0,1,1.87-1.14,1.06,1.06,0,0,1,1,.77,2.5,2.5,0,0,1,.4-.5c.17-.17.28-.26.34-.26a.12.12,0,0,1,.14.13,1.37,1.37,0,0,1,0,.16l-1.64,6.55v.09a.39.39,0,0,0,0,.13.25.25,0,0,0,0,.1s.07,0,.16.06a2.24,2.24,0,0,0,.43,0c.19,0,.29,0,.29.14a.21.21,0,0,1-.23.23c-.13,0-.33,0-.6,0h-1.22c-.27,0-.46,0-.59,0s-.16,0-.16-.14,0-.17.07-.2a.61.61,0,0,1,.22,0,1.6,1.6,0,0,0,.69-.1c.08,0,.15-.21.22-.47l.47-1.88A1.91,1.91,0,0,1,133,94a1.26,1.26,0,0,1-1.06-.53A2.21,2.21,0,0,1,131.56,92.09Zm.82.53a1.73,1.73,0,0,0,.15.73.51.51,0,0,0,.51.34,1.38,1.38,0,0,0,.93-.49,1.94,1.94,0,0,0,.56-.85l.58-2.3a.61.61,0,0,0,0-.16,1.45,1.45,0,0,0-.24-.77.66.66,0,0,0-.58-.34,1,1,0,0,0-.74.38,2.88,2.88,0,0,0-.61,1,9.12,9.12,0,0,0-.39,1.25A6.24,6.24,0,0,0,132.38,92.62Z"/><path class="cls-2" d="M137.86,91.39a.8.8,0,0,1,0-.21L139,86.81h.54c-.07.3-.16.64-.26,1s-.18.68-.23.88a1.91,1.91,0,0,0-.07.44.65.65,0,0,0,.12.41.4.4,0,0,0,.33.15.71.71,0,0,0,.48-.21,1.27,1.27,0,0,0,.33-.55,2.2,2.2,0,0,0,.07-.28l.48-1.87.55-.24c-.06.21-.14.55-.26,1s-.21.84-.28,1.14a1.28,1.28,0,0,0-.07.58.25.25,0,0,0,.06.19.19.19,0,0,0,.14,0,.27.27,0,0,0,.23-.13.76.76,0,0,0,.15-.28.45.45,0,0,1,.09-.17,0,0,0,0,1,.05,0,.09.09,0,0,1,0,.07,1.14,1.14,0,0,1-.25.52.74.74,0,0,1-.59.36c-.27,0-.4-.17-.42-.52h0a1,1,0,0,1-.82.52.53.53,0,0,1-.44-.2.85.85,0,0,1-.15-.51,1.79,1.79,0,0,1,0-.21c0,.16-.08.38-.14.64s-.12.5-.16.69a2.3,2.3,0,0,0-.05.48,1.88,1.88,0,0,0,0,.34l0,.19a.27.27,0,0,1-.13.23.44.44,0,0,1-.27.09.25.25,0,0,1-.16-.06A.2.2,0,0,1,137.86,91.39Z"/></g></g></svg>