<?xml version="1.0" encoding="utf-8"?>
<!-- Generator: Adobe Illustrator 18.0.0, SVG Export Plug-In . SVG Version: 6.00 Build 0)  -->
<!DOCTYPE svg PUBLIC "-//W3C//DTD SVG 1.1//EN" "http://www.w3.org/Graphics/SVG/1.1/DTD/svg11.dtd">
<svg version="1.1" id="Layer_1" xmlns="http://www.w3.org/2000/svg" xmlns:xlink="http://www.w3.org/1999/xlink" x="0px" y="0px"
	 viewBox="0 0 298 264" enable-background="new 0 0 298 264" xml:space="preserve">
<g>
	<g>
		<line fill="none" x1="191.1" y1="132.6" x2="74.1" y2="132.6"/>
		<g>
			<g>
				<g>
					<path fill="none" stroke="#454EA1" d="M190.6,132.6c0,0-6.7,15.9-14.5,0"/>
					<path fill="none" stroke="#454EA1" d="M161.6,132.6c0,0,6.7-15.9,14.5,0"/>
				</g>
				<g>
					<path fill="none" stroke="#454EA1" d="M132.6,132.6c0,0,6.7-15.9,14.5,0"/>
					<path fill="none" stroke="#454EA1" d="M161.6,132.6c0,0-6.7,15.9-14.5,0"/>
				</g>
			</g>
			<g>
				<g>
					<path fill="none" stroke="#454EA1" d="M74.5,132.6c0,0,6.7-15.9,14.5,0"/>
					<path fill="none" stroke="#454EA1" d="M103.5,132.6c0,0-6.7,15.9-14.5,0"/>
				</g>
				<g>
					<path fill="none" stroke="#454EA1" d="M132.6,132.6c0,0-6.7,15.9-14.5,0"/>
					<path fill="none" stroke="#454EA1" d="M103.5,132.6c0,0,6.7-15.9,14.5,0"/>
				</g>
			</g>
		</g>
	</g>
</g>
<line fill="none" stroke="#231F20" stroke-width="2" x1="48.2" y1="188.9" x2="74.1" y2="132.6"/>
<g>
	<g>
		<line fill="none" stroke="#231F20" stroke-width="2" x1="24.6" y1="240.6" x2="48.2" y2="188.9"/>
		<path fill="#231F20" d="M48.3,183.8c-2.3,2.6-4,4.2-6.1,6.1l9.2,4.2c0-1.1,0.2-5.2,0.7-8.6c0.5-3.7,1.2-6.9,1.8-8.9
			C52.8,178.4,50.8,181,48.3,183.8z"/>
	</g>
</g>
<line fill="none" stroke="#231F20" stroke-width="2" x1="23.5" y1="22.3" x2="49.3" y2="78.6"/>
<g>
	<g>
		<line fill="none" stroke="#231F20" stroke-width="2" x1="73.8" y1="132.6" x2="50.1" y2="80.9"/>
		<path fill="#231F20" d="M46.3,77.5c0.5,3.4,0.5,5.8,0.7,8.6l9.2-4.2c-0.8-0.7-3.8-3.5-6.1-6.1c-2.4-2.8-4.4-5.4-5.6-7.2
			C45.1,70.6,45.8,73.8,46.3,77.5z"/>
	</g>
</g>
<line fill="none" stroke="#231F20" stroke-width="2" x1="191.2" y1="132.6" x2="214.9" y2="80.9"/>
<g>
	<g>
		<line fill="none" stroke="#231F20" stroke-width="2" x1="241.3" y1="24" x2="215.5" y2="80.4"/>
		<path fill="#231F20" d="M215.4,85.5c2.3-2.6,4-4.2,6.1-6.1l-9.2-4.2c0,1.1-0.2,5.2-0.7,8.6c-0.5,3.7-1.2,6.9-1.8,8.9
			C211,90.9,213,88.3,215.4,85.5z"/>
	</g>
</g>
<line fill="none" stroke="#231F20" stroke-width="2" x1="216.9" y1="188.9" x2="240.6" y2="240.6"/>
<g>
	<g>
		<line fill="none" stroke="#231F20" stroke-width="2" x1="191.1" y1="132.6" x2="216.9" y2="188.9"/>
		<path fill="#231F20" d="M220.7,192.4c-0.5-3.4-0.5-5.8-0.7-8.6l-9.2,4.2c0.8,0.7,3.8,3.5,6.1,6.1c2.4,2.8,4.4,5.4,5.6,7.2
			C221.9,199.3,221.2,196,220.7,192.4z"/>
	</g>
</g>
<text transform="matrix(1 0 0 1 0 34.8057)" font-family="'MyriadPro-Regular'" font-size="38">k</text>
<text transform="matrix(1 0 0 1 0 253.8057)" font-family="'MyriadPro-Regular'" font-size="38">p</text>
<text transform="matrix(1 0 0 1 245 34.8057)" font-family="'MyriadPro-Regular'" font-size="38">k</text>
<text transform="matrix(1 0 0 1 245 253.8057)" font-family="'MyriadPro-Regular'" font-size="38">p</text>
<text transform="matrix(-1 0 0 1 271 31.8057)" font-family="'MyriadPro-Regular'" font-size="38">`</text>
<text transform="matrix(-1 0 0 1 274 253.8057)" font-family="'MyriadPro-Regular'" font-size="38">`</text>
</svg>
