<?xml version="1.0" encoding="utf-8"?>
<!-- Generator: Adobe Illustrator 18.0.0, SVG Export Plug-In . SVG Version: 6.00 Build 0)  -->
<!DOCTYPE svg PUBLIC "-//W3C//DTD SVG 1.1//EN" "http://www.w3.org/Graphics/SVG/1.1/DTD/svg11.dtd">
<svg version="1.1" id="Layer_1" xmlns="http://www.w3.org/2000/svg" xmlns:xlink="http://www.w3.org/1999/xlink" x="0px" y="0px"
	 viewBox="0 0 298 264" enable-background="new 0 0 298 264" xml:space="preserve">
<g>
	<g>
		<line fill="none" x1="132.6" y1="74.1" x2="132.6" y2="191.1"/>
		<g>
			<g>
				<g>
					<path fill="none" stroke="#454EA1" d="M132.6,74.6c0,0,15.9,6.7,0,14.5"/>
					<path fill="none" stroke="#454EA1" d="M132.6,103.6c0,0-15.9-6.7,0-14.5"/>
				</g>
				<g>
					<path fill="none" stroke="#454EA1" d="M132.6,132.6c0,0-15.9-6.7,0-14.5"/>
					<path fill="none" stroke="#454EA1" d="M132.6,103.6c0,0,15.9,6.7,0,14.5"/>
				</g>
			</g>
			<g>
				<g>
					<path fill="none" stroke="#454EA1" d="M132.6,190.6c0,0-15.9-6.7,0-14.5"/>
					<path fill="none" stroke="#454EA1" d="M132.6,161.6c0,0,15.9,6.7,0,14.5"/>
				</g>
				<g>
					<path fill="none" stroke="#454EA1" d="M132.6,132.6c0,0,15.9,6.7,0,14.5"/>
					<path fill="none" stroke="#454EA1" d="M132.6,161.6c0,0-15.9-6.7,0-14.5"/>
				</g>
			</g>
		</g>
	</g>
</g>
<text transform="matrix(1 0 0 1 0 34.8057)" font-family="'MyriadPro-Regular'" font-size="38">k</text>
<text transform="matrix(1 0 0 1 0 253.8057)" font-family="'MyriadPro-Regular'" font-size="38">p</text>
<text transform="matrix(1 0 0 1 245 34.8057)" font-family="'MyriadPro-Regular'" font-size="38">k</text>
<text transform="matrix(1 0 0 1 245 253.8057)" font-family="'MyriadPro-Regular'" font-size="38">p</text>
<text transform="matrix(-1 0 0 1 271 31.8057)" font-family="'MyriadPro-Regular'" font-size="38">`</text>
<text transform="matrix(-1 0 0 1 274 253.8057)" font-family="'MyriadPro-Regular'" font-size="38">`</text>
<line fill="none" stroke="#231F20" stroke-width="2" x1="70.8" y1="219.4" x2="132.6" y2="191.1"/>
<g>
	<g>
		<line fill="none" stroke="#231F20" stroke-width="2" x1="24.6" y1="240.6" x2="70.8" y2="219.4"/>
		<path fill="#231F20" d="M74.2,215.6c-3.4,0.5-5.8,0.5-8.6,0.7l4.2,9.2c0.7-0.8,3.5-3.8,6.1-6.1c2.8-2.4,5.4-4.4,7.2-5.6
			C81.1,214.4,77.9,215.1,74.2,215.6z"/>
	</g>
</g>
<line fill="none" stroke="#231F20" stroke-width="2" x1="194.3" y1="219.4" x2="240.6" y2="240.6"/>
<g>
	<g>
		<line fill="none" stroke="#231F20" stroke-width="2" x1="132.6" y1="191.1" x2="194.3" y2="219.4"/>
		<path fill="#231F20" d="M199.5,219.5c-2.6-2.3-4.2-4-6.1-6.1l-4.2,9.2c1.1,0,5.2,0.2,8.6,0.7c3.7,0.5,6.9,1.2,8.9,1.8
			C204.9,224,202.3,222,199.5,219.5z"/>
	</g>
</g>
<line fill="none" stroke="#231F20" stroke-width="2" x1="24.6" y1="24.6" x2="86.3" y2="52.9"/>
<g>
	<g>
		<line fill="none" stroke="#231F20" stroke-width="2" x1="133" y1="74.5" x2="86.8" y2="53.3"/>
		<path fill="#231F20" d="M81.7,53.2c2.6,2.3,4.2,4,6.1,6.1l4.2-9.2c-1.1,0-5.2-0.2-8.6-0.7c-3.7-0.5-6.9-1.2-8.9-1.8
			C76.3,48.8,78.9,50.8,81.7,53.2z"/>
	</g>
</g>
<line fill="none" stroke="#231F20" stroke-width="2" x1="132.6" y1="74.5" x2="178.8" y2="53.3"/>
<g>
	<g>
		<line fill="none" stroke="#231F20" stroke-width="2" x1="240.6" y1="25" x2="178.8" y2="53.3"/>
		<path fill="#231F20" d="M175.3,57.2c3.4-0.5,5.8-0.5,8.6-0.7l-4.2-9.2c-0.7,0.8-3.5,3.8-6.1,6.1c-2.8,2.4-5.4,4.4-7.2,5.6
			C168.4,58.4,171.7,57.7,175.3,57.2z"/>
	</g>
</g>
</svg>
