<?xml version="1.0" encoding="utf-8"?>
<!-- Generator: Adobe Illustrator 12.0.1, SVG Export Plug-In  -->
<!DOCTYPE svg PUBLIC "-//W3C//DTD SVG 1.1//EN" "http://www.w3.org/Graphics/SVG/1.1/DTD/svg11.dtd" [
	<!ENTITY ns_flows "http://ns.adobe.com/Flows/1.0/">
	<!ENTITY ns_svg "http://www.w3.org/2000/svg">
	<!ENTITY ns_xlink "http://www.w3.org/1999/xlink">
]>
<svg  version="1.1" xmlns="&ns_svg;" xmlns:xlink="&ns_xlink;" xmlns:a="http://ns.adobe.com/AdobeSVGViewerExtensions/3.0/"
	 width="298" height="264" viewBox="-12 10.635 298 264" enable-background="new -12 10.635 298 264" xml:space="preserve">
<defs>
</defs>
<g>
	<g>
		<line fill="none" x1="136.555" y1="201.943" x2="136.555" y2="84.943"/>
		<g>
			<g>
				<g>
					<path fill="none" stroke="#454EA1" d="M136.555,201.479c0,0-15.875-6.683,0-14.509"/>
					<path fill="none" stroke="#454EA1" d="M136.555,172.461c0,0,15.875,6.685,0,14.509"/>
				</g>
				<g>
					<path fill="none" stroke="#454EA1" d="M136.555,143.443c0,0,15.875,6.684,0,14.509"/>
					<path fill="none" stroke="#454EA1" d="M136.555,172.461c0,0-15.875-6.684,0-14.509"/>
				</g>
			</g>
			<g>
				<g>
					<path fill="none" stroke="#454EA1" d="M136.555,85.408c0,0,15.875,6.683,0,14.508"/>
					<path fill="none" stroke="#454EA1" d="M136.555,114.426c0,0-15.875-6.685,0-14.51"/>
				</g>
				<g>
					<path fill="none" stroke="#454EA1" d="M136.555,143.443c0,0-15.875-6.684,0-14.509"/>
					<path fill="none" stroke="#454EA1" d="M136.555,114.426c0,0,15.875,6.683,0,14.508"/>
				</g>
			</g>
		</g>
	</g>
</g>
<g>
	<g>
		<line fill="none" stroke="#231F20" stroke-width="2" x1="74.768" y1="56.624" x2="28.555" y2="35.443"/>
		<path fill="#231F20" d="M79.916,56.729c-2.589-2.286-4.16-4.018-6.128-6.09l-4.204,9.171c1.051-0.015,5.192,0.196,8.614,0.667
			c3.663,0.502,6.885,1.174,8.885,1.804C85.3,61.176,82.688,59.174,79.916,56.729z"/>
	</g>
</g>
<g>
	<g>
		<line fill="none" stroke="#231F20" stroke-width="2" x1="136.555" y1="84.943" x2="74.768" y2="56.624"/>
	</g>
</g>
<g>
	<g>
		<line fill="none" stroke="#231F20" stroke-width="2" x1="74.77" y1="230.262" x2="28.555" y2="251.443"/>
		<path fill="#231F20" d="M78.209,226.431c-3.422,0.469-5.759,0.528-8.614,0.666l4.203,9.171c0.675-0.806,3.538-3.805,6.128-6.09
			c2.771-2.447,5.384-4.449,7.167-5.553C85.094,225.255,81.872,225.927,78.209,226.431z"/>
	</g>
</g>
<g>
	<g>
		<line fill="none" stroke="#231F20" stroke-width="2" x1="136.555" y1="201.943" x2="74.77" y2="230.262"/>
	</g>
</g>
<text transform="matrix(1 0 0 1 0 267.6348)" font-family="'ArialMT'" font-size="38">e</text>
<text transform="matrix(1 0 0 1 18 241.6348)" font-family="'ArialMT'" font-size="18">_</text>
<text transform="matrix(1 0 0 1 0 41.4434)" font-family="'ArialMT'" font-size="38">e</text>
<text transform="matrix(1 0 0 1 18 15.4434)" font-family="'ArialMT'" font-size="18">_</text>
<text transform="matrix(1 0 0 1 247 267.6348)" font-family="'ArialMT'" font-size="38">e</text>
<text transform="matrix(1 0 0 1 265 241.6348)" font-family="'ArialMT'" font-size="18">_</text>
<text transform="matrix(1 0 0 1 247 41.4434)" font-family="'ArialMT'" font-size="38">e</text>
<text transform="matrix(1 0 0 1 265 15.4434)" font-family="'ArialMT'" font-size="18">_</text>
<g>
	<g>
		<path fill="#444DA1" d="M121.875,127.549H125c-0.198,0.445-1.219,2.56-3.063,6.344c-0.768,1.583-1.318,2.782-1.652,3.599
			c-0.148,0.334-0.316,0.699-0.502,1.094l-2.135,4.563c0.087,0.791,0.148,1.521,0.186,2.189c0.037,0.666,0.062,1.273,0.072,1.816
			c0,1.682-0.123,2.98-0.369,3.895c-0.174,0.643-0.401,1.084-0.685,1.326c-0.284,0.24-0.592,0.361-0.925,0.361
			c-0.406,0-0.768-0.174-1.082-0.52s-0.471-0.791-0.471-1.334c0-0.953,0.187-2.051,0.561-3.293c0.373-1.242,0.938-2.637,1.692-4.181
			c-0.903-6.343-1.624-10.17-2.163-11.483c-0.538-1.313-1.283-1.97-2.236-1.97c-0.582,0-1.04,0.178-1.374,0.533
			s-0.588,1.157-0.761,2.404h-0.719c-0.021-0.371-0.031-0.649-0.031-0.834c0-1.706,0.334-2.992,1.004-3.857
			c0.508-0.643,1.188-0.964,2.043-0.964c0.744,0,1.351,0.223,1.821,0.667c0.644,0.631,1.22,2.003,1.728,4.117
			c0.645,2.745,1.146,5.731,1.506,8.958l1.624-5.509C119.795,132.997,120.73,130.356,121.875,127.549z"/>
	</g>
</g>
<line fill="none" stroke="#231F20" stroke-width="2" x1="208" y1="91.799" x2="244.555" y2="35.443"/>
<g>
	<g>
		<line fill="none" stroke="#231F20" stroke-width="2" x1="136.555" y1="201.943" x2="208" y2="91.799"/>
		<path fill="#231F20" d="M208.851,86.72c-2.638,2.23-4.579,3.533-6.915,5.179l8.464,5.49c0.138-1.042,0.947-5.109,1.909-8.426
			c1.029-3.551,2.162-6.641,3.076-8.529C214.033,82.039,211.673,84.333,208.851,86.72z"/>
	</g>
</g>
<rect x="167.501" y="136.443" fill="#FFFFFF" width="14" height="14"/>
<line fill="none" stroke="#231F20" stroke-width="2" x1="208" y1="195.088" x2="244.555" y2="251.443"/>
<g>
	<g>
		<line fill="none" stroke="#231F20" stroke-width="2" x1="136.555" y1="84.943" x2="208" y2="195.088"/>
		<path fill="#231F20" d="M212.29,197.936c-0.961-3.318-1.359-5.622-1.909-8.427l-8.464,5.49c0.895,0.552,4.278,2.948,6.915,5.18
			c2.823,2.387,5.183,4.682,6.534,6.285C214.452,204.576,213.32,201.486,212.29,197.936z"/>
	</g>
</g>
</svg>
