<?xml version="1.0" encoding="utf-8"?>
<!-- Generator: Adobe Illustrator 23.1.0, SVG Export Plug-In . SVG Version: 6.00 Build 0)  -->
<svg version="1.1" id="Layer_1" xmlns="http://www.w3.org/2000/svg" xmlns:xlink="http://www.w3.org/1999/xlink" x="0px" y="0px"
	 viewBox="0 0 217.8 79.5" style="enable-background:new 0 0 217.8 79.5;" xml:space="preserve">
<style type="text/css">
	.st0{fill:none;stroke:#000000;stroke-miterlimit:10;}
	.st1{fill:none;stroke:#F4602C;stroke-width:1.5;stroke-miterlimit:10;}
	.st2{fill:#F4602C;}
	.st3{fill:#3AD836;}
	.st4{fill:#0C772A;}
</style>
<line class="st0" x1="60.7" y1="43.8" x2="60.7" y2="73.2"/>
<line class="st0" x1="157.1" y1="43.8" x2="157.1" y2="73.2"/>
<line class="st0" x1="108.9" y1="43.8" x2="108.9" y2="73.2"/>
<g>
	<g>
		<line class="st0" x1="66" y1="67.2" x2="103.6" y2="67.2"/>
		<g>
			<polygon points="67.2,68.9 60.7,67.2 67.2,65.4 			"/>
		</g>
		<g>
			<polygon points="102.4,68.9 108.9,67.2 102.4,65.4 			"/>
		</g>
	</g>
</g>
<g>
	<g>
		<line class="st0" x1="114.2" y1="67.2" x2="151.8" y2="67.2"/>
		<g>
			<polygon points="115.4,68.9 108.9,67.2 115.4,65.4 			"/>
		</g>
		<g>
			<polygon points="150.6,68.9 157.1,67.2 150.6,65.4 			"/>
		</g>
	</g>
</g>
<title>a-type</title>
<g>
	<g id="Layer_1-2">
		<path class="st1" d="M75,43.8h-6.5c-4,0-3,11.9-4.7,12c-1.3,0-1.5-24.6-3.2-27.3s-1.8,35.1-3.9,37.4s-2.1-47.4-4.3-49.2
			s-2.3,57.2-4.7,58.5c-1.5,0.8-2.9-64.3-4.9-64.3s-3.2,67.9-5.3,67.9s-3.2-67.9-5.3-67.9S28.8,76,27.3,75.2
			c-2.4-1.3-2.4-60.2-4.7-58.5s-2.2,51.4-4.3,49.2s-2-40.1-3.9-37.4s-1.9,27.3-3.2,27.3c-1.7-0.1-0.7-12-4.7-12H0"/>
		<polygon class="st2" points="85.6,43.8 70.7,37.7 74.2,43.8 70.7,49.9 		"/>
		<path class="st1" d="M142.8,44h6.5c4,0,3-11.9,4.7-12c1.3,0,1.5,24.6,3.2,27.3s1.9-35.1,3.9-37.4s2.1,47.4,4.3,49.2
			s2.3-57.2,4.7-58.5c1.5-0.8,2.9,64.3,4.9,64.3S178.2,9,180.3,9s3.2,67.9,5.3,67.9s3.4-65.1,4.9-64.3c2.4,1.3,2.4,60.2,4.7,58.5
			s2.2-51.4,4.3-49.2s2,40.1,3.9,37.4s1.9-27.3,3.2-27.3c1.7,0.1,0.7,12,4.7,12h6.5"/>
		<polygon class="st2" points="132.2,44 147.1,50.1 143.6,44 147.1,37.9 		"/>
		<circle class="st3" cx="108.9" cy="43.8" r="2.3"/>
		<path class="st4" d="M108.9,41.8c1.1,0,2,0.9,2,2s-0.9,2-2,2s-2-0.9-2-2S107.8,41.8,108.9,41.8 M108.9,41.2
			c-1.4,0-2.6,1.2-2.6,2.6s1.2,2.6,2.6,2.6c1.4,0,2.6-1.2,2.6-2.6c0,0,0,0,0,0C111.5,42.3,110.3,41.2,108.9,41.2z"/>
		<path d="M30.2,5.2V0h0.5v5.2H30.2z"/>
		<path d="M31.7,4.4c0-0.2,0.1-0.4,0.2-0.5c0.1-0.1,0.3-0.2,0.5-0.3c0.2-0.1,0.4-0.1,0.6-0.1c0.2,0,0.4,0,0.6,0V3.2
			c0-0.2-0.1-0.5-0.2-0.7c-0.1-0.1-0.3-0.2-0.4-0.2c-0.4,0-0.8,0.1-1.1,0.4V2.2C32.2,2,32.6,1.9,33,1.9c0.3,0,0.6,0.1,0.8,0.3
			c0.2,0.2,0.3,0.5,0.4,0.8v2.2h-0.5V5h-0.1c-0.1,0.1-0.3,0.1-0.4,0.2c-0.2,0.1-0.4,0.1-0.7,0.1c-0.2,0-0.5-0.1-0.6-0.2
			C31.7,4.8,31.7,4.6,31.7,4.4z M32.2,4.4c0,0.1,0.1,0.3,0.2,0.3c0.1,0.1,0.3,0.1,0.5,0.1c0.2,0,0.4,0,0.6-0.1
			c0.2-0.1,0.3-0.3,0.3-0.4V3.8c-0.1,0-0.3,0-0.5,0c-0.2,0-0.3,0.1-0.5,0.1c-0.1,0-0.3,0.1-0.4,0.2C32.2,4.1,32.2,4.2,32.2,4.4
			L32.2,4.4z"/>
		<path d="M35,5l0.1-0.5c0,0,0,0,0.1,0.1l0.1,0.1l0.1,0.1l0.2,0.1h0.2H36h0.2c0.2,0,0.4,0,0.5-0.2c0.1-0.1,0.2-0.2,0.2-0.3
			c0-0.1,0-0.2-0.1-0.3c-0.1-0.1-0.2-0.1-0.3-0.2l-0.3-0.1l-0.4-0.1c-0.2-0.1-0.4-0.2-0.5-0.3C35.1,3.2,35,3,35,2.8
			c0-0.1,0-0.2,0-0.3c0-0.1,0.1-0.2,0.2-0.3C35.3,2.1,35.4,2,35.6,2c0.2-0.1,0.4-0.1,0.6-0.1c0.3,0,0.7,0.1,1,0.2l-0.1,0.5h-0.1
			L37,2.5h-0.1h-0.1h-0.1h-0.1h-0.1h-0.1h-0.3c-0.2,0-0.3,0-0.5,0.1c-0.1,0.1-0.1,0.2-0.1,0.3c0,0.1,0.1,0.3,0.2,0.3
			c0.2,0.1,0.4,0.1,0.5,0.2c0.2,0,0.3,0.1,0.5,0.1c0.2,0.1,0.3,0.2,0.4,0.3c0.1,0.2,0.2,0.3,0.2,0.6c0,0.1,0,0.2,0,0.3
			c0,0.1-0.1,0.2-0.2,0.3c-0.1,0.1-0.2,0.2-0.4,0.3c-0.2,0.1-0.4,0.1-0.6,0.1C35.8,5.4,35.4,5.3,35,5z"/>
		<path d="M37.8,3.6c0-0.4,0.1-0.9,0.4-1.2c0.2-0.3,0.6-0.5,1-0.5c0.1,0,0.3,0,0.4,0.1C39.8,2,39.9,2.1,40,2.2
			c0.1,0.1,0.3,0.3,0.3,0.5c0.1,0.2,0.1,0.5,0.2,0.8v0.2h-2.2c0,0.3,0.1,0.6,0.3,0.9c0.2,0.2,0.5,0.3,0.7,0.3c0.4,0,0.8-0.1,1.1-0.4
			v0.5c-0.3,0.2-0.7,0.4-1.1,0.4c-0.4,0-0.9-0.2-1.1-0.5C37.9,4.4,37.8,4,37.8,3.6z M38.3,3.2h1.8c0-0.2-0.1-0.3-0.1-0.5
			c-0.1-0.1-0.1-0.2-0.3-0.3c-0.1-0.1-0.2-0.1-0.3-0.1c-0.3-0.1-0.6,0-0.8,0.3C38.5,2.8,38.4,3,38.3,3.2z"/>
		<path d="M41.3,5.2V2h0.5v0.6c0-0.1,0.1-0.2,0.2-0.3c0.1-0.1,0.3-0.2,0.4-0.3c0.2-0.1,0.4-0.1,0.6-0.1v0.5c-0.1,0-0.3,0-0.4,0.1
			c-0.1,0-0.3,0.1-0.4,0.2c-0.1,0.1-0.3,0.2-0.3,0.4c-0.1,0.2-0.1,0.4-0.1,0.6v1.5H41.3z"/>
		<path d="M175,5.2V0h0.5v5.2H175z"/>
		<path d="M176.4,4.4c0-0.2,0.1-0.3,0.2-0.5c0.2-0.1,0.3-0.2,0.5-0.3c0.2-0.1,0.4-0.1,0.6-0.2c0.2,0,0.4,0,0.6,0V3.2
			c0-0.2-0.1-0.5-0.2-0.7c-0.1-0.1-0.3-0.2-0.5-0.2c-0.4,0-0.8,0.1-1.1,0.4l-0.1-0.5c0.3-0.2,0.7-0.3,1.1-0.3c0.3,0,0.6,0.1,0.8,0.3
			c0.2,0.2,0.4,0.5,0.4,0.8v2.2h-0.6V5l-0.1,0.1c-0.1,0.1-0.3,0.1-0.4,0.2c-0.2,0.1-0.4,0.1-0.7,0.1c-0.2,0-0.5-0.1-0.6-0.3
			C176.5,4.8,176.4,4.6,176.4,4.4z M177,4.4c0,0.1,0.1,0.3,0.2,0.3c0.1,0.1,0.3,0.1,0.5,0.1c0.2,0,0.4,0,0.6-0.1
			c0.2-0.1,0.3-0.3,0.2-0.4V3.8c-0.1,0-0.3,0-0.4,0l-0.5,0.1c-0.1,0-0.3,0.1-0.4,0.2C177,4.1,177,4.3,177,4.4L177,4.4z"/>
		<path d="M179.8,5l0.1-0.5l0.1,0.1l0.1,0.1l0.1,0.1l0.2,0.1h0.2h0.2h0.3c0.2,0,0.4,0,0.5-0.2c0.1-0.1,0.2-0.2,0.2-0.3
			c0-0.1,0-0.2-0.1-0.3c-0.1-0.1-0.2-0.1-0.3-0.2l-0.3-0.1l-0.4-0.1c-0.2,0-0.4-0.1-0.6-0.3c-0.1-0.2-0.2-0.4-0.2-0.6
			c0-0.1,0-0.2,0.1-0.3c0-0.1,0.1-0.2,0.2-0.3c0.1-0.1,0.2-0.2,0.4-0.2c0.2-0.1,0.4-0.1,0.6-0.1c0.3,0,0.7,0.1,1,0.2l-0.1,0.5h-0.1
			h-0.1h-0.1h-0.1h-0.1h-0.1h-0.1h-0.1h-0.3c-0.2,0-0.3,0-0.5,0.1c-0.1,0.1-0.1,0.2-0.1,0.3c0,0.1,0.1,0.3,0.2,0.3
			c0.2,0.1,0.4,0.1,0.5,0.2c0.2,0,0.3,0.1,0.5,0.1c0.2,0.1,0.3,0.2,0.4,0.3c0.1,0.2,0.2,0.4,0.2,0.6c0,0.1,0,0.2,0,0.3
			c0,0.1-0.1,0.2-0.2,0.3c-0.1,0.1-0.2,0.2-0.4,0.3c-0.2,0.1-0.4,0.1-0.6,0.1C180.5,5.5,180.1,5.3,179.8,5z"/>
		<path d="M182.6,3.6c0-0.4,0.1-0.9,0.4-1.2c0.2-0.3,0.6-0.5,1-0.5c0.1,0,0.3,0,0.4,0.1c0.1,0.1,0.3,0.1,0.4,0.2
			c0.1,0.1,0.3,0.3,0.3,0.5c0.1,0.2,0.1,0.5,0.1,0.8v0.2h-2.2c0,0.3,0.1,0.6,0.3,0.9c0.2,0.2,0.4,0.3,0.7,0.3c0.4,0,0.8-0.1,1.1-0.4
			v0.5c-0.3,0.2-0.7,0.4-1.1,0.4c-0.4,0-0.8-0.2-1.1-0.5C182.7,4.4,182.6,4,182.6,3.6z M183.1,3.2h1.8c0-0.2-0.1-0.3-0.2-0.5
			c-0.1-0.1-0.1-0.2-0.3-0.3c-0.1-0.1-0.2-0.1-0.3-0.1H184c-0.2,0-0.5,0.1-0.6,0.3C183.3,2.8,183.2,3,183.1,3.2z"/>
		<path d="M186.1,5.2V2h0.5v0.6c0.1-0.1,0.1-0.2,0.2-0.3c0.1-0.1,0.3-0.2,0.4-0.3c0.2-0.1,0.4-0.1,0.6-0.1v0.5c-0.1,0-0.3,0-0.4,0.1
			c-0.1,0-0.3,0.1-0.4,0.2c-0.1,0.1-0.3,0.2-0.3,0.4c-0.1,0.2-0.1,0.4-0.1,0.6v1.5H186.1z"/>
		<path d="M98.2,34.1c0-0.4,0.1-0.9,0.4-1.2c0.2-0.3,0.6-0.5,1-0.5c0.1,0,0.3,0,0.4,0.1c0.1,0.1,0.3,0.1,0.4,0.2
			c0.1,0.1,0.3,0.3,0.3,0.5c0.1,0.2,0.1,0.5,0.2,0.8v0.2h-2.2c0,0.3,0.1,0.6,0.3,0.9c0.2,0.2,0.4,0.3,0.7,0.3c0.4,0,0.8-0.1,1.1-0.4
			v0.5c-0.3,0.2-0.7,0.4-1.1,0.4c-0.4,0-0.9-0.2-1.1-0.5C98.3,34.9,98.1,34.5,98.2,34.1z M98.7,33.8h1.8c0-0.2-0.1-0.3-0.2-0.5
			c-0.1-0.2-0.3-0.3-0.5-0.4h-0.2c-0.2,0-0.5,0.1-0.6,0.3C98.9,33.3,98.7,33.5,98.7,33.8z"/>
		<path d="M101.6,31.3v-0.5h2.6v0.5H101.6z"/>
		<path d="M107.3,35.5l0.1-0.5l0.1,0.1l0.1,0.1l0.1,0.1l0.2,0.1h0.2h0.2h0.2c0.2,0,0.4,0,0.5-0.2c0.1-0.1,0.2-0.2,0.2-0.3
			c0-0.1,0-0.2-0.1-0.3c-0.1-0.1-0.2-0.1-0.3-0.2l-0.3-0.1l-0.4-0.1c-0.2-0.1-0.4-0.2-0.5-0.3c-0.1-0.2-0.2-0.4-0.2-0.6
			c0-0.1,0-0.2,0-0.3c0-0.1,0.1-0.2,0.2-0.3c0.1-0.1,0.2-0.2,0.4-0.3c0.2-0.1,0.4-0.1,0.6-0.1c0.3,0,0.7,0.1,1,0.2l-0.1,0.5h-0.1
			h-0.1h-0.1h-0.1H109h-0.1h-0.1h-0.1h-0.3c-0.1,0-0.2,0-0.4,0c-0.1,0.1-0.1,0.2-0.1,0.3c0,0.1,0.1,0.3,0.2,0.3
			c0.2,0.1,0.4,0.1,0.5,0.2c0.2,0,0.3,0.1,0.5,0.1c0.2,0.1,0.3,0.2,0.4,0.3c0.1,0.2,0.2,0.4,0.2,0.5c0,0.1,0,0.2-0.1,0.3
			c0,0.1-0.1,0.2-0.2,0.3c-0.1,0.1-0.2,0.2-0.4,0.3c-0.2,0.1-0.4,0.1-0.6,0.1C108.1,35.8,107.7,35.7,107.3,35.5z"/>
		<path d="M110.1,34.1c0-0.4,0.1-0.9,0.4-1.2c0.2-0.3,0.6-0.5,1-0.5c0.1,0,0.3,0,0.4,0.1c0.1,0.1,0.3,0.1,0.4,0.2
			c0.2,0.1,0.3,0.3,0.3,0.5c0.1,0.2,0.1,0.5,0.2,0.8v0.2h-2.2c0,0.3,0.1,0.6,0.3,0.9c0.2,0.2,0.5,0.3,0.7,0.3c0.4,0,0.8-0.1,1.1-0.4
			v0.5c-0.3,0.2-0.7,0.4-1.1,0.4c-0.4,0-0.9-0.2-1.1-0.5C110.2,35,110.1,34.5,110.1,34.1z M110.6,33.8h1.8c0-0.2-0.1-0.3-0.2-0.5
			c-0.1-0.1-0.2-0.2-0.3-0.3c-0.1-0.1-0.2-0.1-0.3-0.1h-0.2c-0.2,0-0.5,0.1-0.6,0.3C110.8,33.3,110.7,33.5,110.6,33.8z"/>
		<path d="M113.3,34.1c0-0.4,0.1-0.9,0.4-1.2c0.2-0.3,0.6-0.5,1-0.5c0.1,0,0.3,0,0.4,0.1c0.1,0.1,0.3,0.1,0.4,0.2
			c0.1,0.1,0.3,0.3,0.3,0.5c0.1,0.3,0.1,0.5,0.1,0.8v0.2h-2.2c0,0.3,0.1,0.6,0.3,0.9c0.2,0.2,0.4,0.3,0.7,0.3c0.4,0,0.8-0.2,1.1-0.4
			v0.5c-0.3,0.2-0.7,0.4-1.1,0.4c-0.4,0-0.8-0.2-1.1-0.5C113.4,35,113.3,34.6,113.3,34.1z M113.8,33.8h1.8c0-0.2-0.1-0.3-0.2-0.5
			c-0.1-0.2-0.3-0.3-0.5-0.4h-0.2c-0.2,0-0.5,0.1-0.6,0.3C114,33.3,113.9,33.5,113.8,33.8z"/>
		<path d="M116.5,34.2c0-0.4,0.1-0.9,0.4-1.2c0.2-0.3,0.5-0.5,0.9-0.5c0.4,0,0.7,0.2,1,0.4v-2.3h0.5v5.2h-0.6v-0.4
			c-0.3,0.3-0.7,0.4-1.1,0.5c-0.4,0-0.7-0.2-0.9-0.5C116.6,35,116.5,34.6,116.5,34.2z M117.1,34.2c0,0.3,0.1,0.7,0.3,0.9
			c0.2,0.2,0.4,0.3,0.7,0.3c0.2,0,0.4-0.1,0.5-0.2c0.1-0.1,0.2-0.2,0.2-0.4v-1.4c0-0.1-0.1-0.2-0.2-0.3c-0.1-0.1-0.3-0.2-0.5-0.2
			l0,0c-0.1,0-0.2,0-0.3,0.1c-0.1,0-0.2,0.1-0.3,0.2c-0.1,0.1-0.2,0.2-0.3,0.4C117.1,33.7,117.1,33.9,117.1,34.2L117.1,34.2z"/>
	</g>
</g>
<g>
	<path d="M81.4,76.9l3-6.2h0.8l3,6.2H81.4z M82.5,76.1h4.4l-1.6-3.3l-0.6-1.2l-0.1-0.3h0l-0.1,0.3L84,72.8L82.5,76.1z"/>
	<path d="M88.5,76.9l1.7-2.1v0l-1.7-1.9h0.7l1.2,1.5h0l1.2-1.5h0.7l-1.7,1.9v0l1.8,2.1h-0.7l-1.3-1.7l-1.3,1.7H88.5z"/>
</g>
<g>
	<path d="M128,76.9l3-6.2h0.8l3,6.2H128z M129.1,76.1h4.4l-1.6-3.3l-0.6-1.2l-0.1-0.3h0l-0.1,0.3l-0.6,1.2L129.1,76.1z"/>
	<path d="M135.1,76.9l1.7-2.1v0l-1.7-1.9h0.7l1.2,1.5h0l1.2-1.5h0.7l-1.7,1.9v0l1.8,2.1h-0.7l-1.3-1.7l-1.3,1.7H135.1z"/>
</g>
</svg>
