<svg xmlns="http://www.w3.org/2000/svg" viewBox="0 0 217.8 79.53"><defs><style>.cls-1{fill:none;stroke:#f4602c;stroke-miterlimit:10;stroke-width:1.5px;}.cls-2{fill:#f4602c;}.cls-3{fill:#3ad836;}.cls-4{fill:#0c772a;}</style></defs><title>a-type</title><g id="Layer_2" data-name="Layer 2"><g id="Layer_1-2" data-name="Layer 1"><path class="cls-1" d="M75,43.78H68.5c-4,0-3,11.9-4.74,12-1.26,0-1.47-24.6-3.18-27.29s-1.85,35.14-3.87,37.42-2.09-47.42-4.32-49.21-2.29,57.2-4.67,58.5c-1.5.81-2.89-64.27-4.92-64.28s-3.16,67.9-5.3,67.9-3.24-67.9-5.3-67.9S28.78,76,27.28,75.16c-2.38-1.3-2.39-60.18-4.67-58.5s-2.23,51.39-4.32,49.21-2-40.09-3.87-37.42S12.5,55.78,11.24,55.74c-1.74-.06-.74-12-4.74-12H0"/><polygon class="cls-2" points="85.59 43.78 70.67 37.68 74.21 43.78 70.67 49.87 85.59 43.78"/><path class="cls-1" d="M142.8,44h6.5c4,0,3-11.9,4.74-12,1.26,0,1.47,24.6,3.18,27.28s1.85-35.13,3.87-37.42,2.09,47.42,4.32,49.21,2.28-57.2,4.67-58.49c1.49-.82,2.89,64.27,4.92,64.27S178.16,9,180.3,9s3.24,67.89,5.3,67.89,3.42-65.09,4.92-64.27c2.38,1.29,2.39,60.18,4.67,58.49s2.23-51.39,4.32-49.21,2,40.1,3.87,37.42S205.3,32,206.56,32c1.74.06.74,12,4.74,12h6.5"/><polygon class="cls-2" points="132.21 43.96 147.13 50.06 143.59 43.96 147.13 37.86 132.21 43.96"/><circle class="cls-3" cx="108.9" cy="43.76" r="2.3"/><path class="cls-4" d="M108.9,41.76a2,2,0,1,1-2,2,2,2,0,0,1,2-2m0-.6a2.6,2.6,0,1,0,2.6,2.6,2.6,2.6,0,0,0-2.6-2.6Z"/><path d="M30.2,5.2V0h.54V5.2Z"/><path d="M31.66,4.39a.61.61,0,0,1,.2-.47,1.2,1.2,0,0,1,.52-.29A3.93,3.93,0,0,1,33,3.48a4.46,4.46,0,0,1,.63,0V3.19a1,1,0,0,0-.19-.66A.55.55,0,0,0,33,2.31a1.9,1.9,0,0,0-1.08.37l0-.48A2.19,2.19,0,0,1,33,1.88a1.15,1.15,0,0,1,.84.33,1.19,1.19,0,0,1,.36.79V5.2h-.54V5L33.53,5a2.05,2.05,0,0,1-.41.15,2.27,2.27,0,0,1-.65.09A.7.7,0,0,1,31.86,5,1,1,0,0,1,31.66,4.39Zm.51,0a.41.41,0,0,0,.19.33.82.82,0,0,0,.48.13,1.16,1.16,0,0,0,.56-.13.47.47,0,0,0,.25-.45V3.79a3.4,3.4,0,0,0-.45,0,4,4,0,0,0-.48.09,1.06,1.06,0,0,0-.4.18A.35.35,0,0,0,32.17,4.37Z"/><path d="M35,5l.09-.49s0,0,.09.06l.12.06.13.07.16.07.18,0,.21,0h.23a.75.75,0,0,0,.52-.15.46.46,0,0,0,.15-.34.38.38,0,0,0-.13-.3.69.69,0,0,0-.27-.16l-.32-.07-.37-.09a1.23,1.23,0,0,1-.52-.32A.78.78,0,0,1,35,2.83a1.06,1.06,0,0,1,0-.31,1.14,1.14,0,0,1,.17-.3A.74.74,0,0,1,35.62,2a1.7,1.7,0,0,1,.59-.09,2.63,2.63,0,0,1,1,.22l-.07.48-.08,0L37,2.5l-.08,0-.09,0-.09,0-.1,0-.11,0-.12,0h-.28a.68.68,0,0,0-.47.14.41.41,0,0,0-.13.3.37.37,0,0,0,.19.35,1.84,1.84,0,0,0,.54.16,1.72,1.72,0,0,1,.48.13,1.07,1.07,0,0,1,.44.35.82.82,0,0,1,.19.55,1.13,1.13,0,0,1-.05.32,1.24,1.24,0,0,1-.17.32.81.81,0,0,1-.37.25,1.47,1.47,0,0,1-.58.1A2.56,2.56,0,0,1,35,5Z"/><path d="M37.8,3.57a1.75,1.75,0,0,1,.43-1.2,1.32,1.32,0,0,1,1-.49,1.14,1.14,0,0,1,.41.07,1.33,1.33,0,0,1,.39.23,1.16,1.16,0,0,1,.33.47,2.09,2.09,0,0,1,.15.76v.2H38.3a1.27,1.27,0,0,0,.33.88,1,1,0,0,0,.74.34,1.87,1.87,0,0,0,1.09-.39l0,.47a2,2,0,0,1-1.13.37,1.42,1.42,0,0,1-1.13-.51A1.75,1.75,0,0,1,37.8,3.57Zm.54-.36h1.78A1.53,1.53,0,0,0,40,2.74a.68.68,0,0,0-.26-.27.6.6,0,0,0-.25-.11.79.79,0,0,0-.82.25A1.31,1.31,0,0,0,38.34,3.21Z"/><path d="M41.33,5.2V2h.5V2.6A1.71,1.71,0,0,1,42,2.34a1.69,1.69,0,0,1,.42-.27,1.63,1.63,0,0,1,.64-.15V2.4a1.27,1.27,0,0,0-.38.07,1.55,1.55,0,0,0-.39.19,1,1,0,0,0-.34.41,1.59,1.59,0,0,0-.12.64V5.2Z"/><path d="M175,5.2V0h.54V5.2Z"/><path d="M176.44,4.39a.65.65,0,0,1,.2-.47,1.24,1.24,0,0,1,.53-.29,3.93,3.93,0,0,1,.64-.15,4.21,4.21,0,0,1,.62,0V3.19a1.11,1.11,0,0,0-.18-.66.55.55,0,0,0-.46-.22,1.85,1.85,0,0,0-1.07.37l-.05-.48a2.23,2.23,0,0,1,1.13-.32,1.13,1.13,0,0,1,.83.33A1.15,1.15,0,0,1,179,3V5.2h-.55V5l-.13.09a2.34,2.34,0,0,1-.41.15,2.29,2.29,0,0,1-.66.09.71.71,0,0,1-.61-.29A1.1,1.1,0,0,1,176.44,4.39Zm.52,0a.39.39,0,0,0,.19.33.78.78,0,0,0,.48.13,1.18,1.18,0,0,0,.56-.13.47.47,0,0,0,.24-.45V3.79a3.52,3.52,0,0,0-.45,0l-.48.09a1,1,0,0,0-.39.18A.35.35,0,0,0,177,4.37Z"/><path d="M179.77,5l.09-.49.09.06.12.06.13.07.17.07.17,0,.21,0H181a.73.73,0,0,0,.52-.15.44.44,0,0,0,.16-.34.42.42,0,0,0-.13-.3.72.72,0,0,0-.28-.16l-.32-.07-.37-.09A1.29,1.29,0,0,1,180,3.4a.77.77,0,0,1-.22-.57,1.06,1.06,0,0,1,.05-.31.92.92,0,0,1,.17-.3A.71.71,0,0,1,180.4,2a1.74,1.74,0,0,1,.59-.09,2.71,2.71,0,0,1,1,.22l-.08.48-.08,0-.08,0-.08,0-.1,0-.09,0-.1,0-.1,0-.12,0h-.28a.66.66,0,0,0-.47.14.42.42,0,0,0-.14.3.38.38,0,0,0,.19.35,1.84,1.84,0,0,0,.54.16,1.93,1.93,0,0,1,.49.13,1.14,1.14,0,0,1,.44.35.87.87,0,0,1,.18.55,1.13,1.13,0,0,1,0,.32,1,1,0,0,1-.17.32.83.83,0,0,1-.36.25,1.52,1.52,0,0,1-.59.1A2.56,2.56,0,0,1,179.77,5Z"/><path d="M182.58,3.57a1.76,1.76,0,0,1,.44-1.2,1.3,1.3,0,0,1,1-.49,1.1,1.1,0,0,1,.41.07,1.51,1.51,0,0,1,.4.23,1.16,1.16,0,0,1,.33.47,2.62,2.62,0,0,1,.15.76v.2h-2.24a1.32,1.32,0,0,0,.34.88.94.94,0,0,0,.73.34,1.84,1.84,0,0,0,1.09-.39l0,.47a2,2,0,0,1-1.14.37A1.43,1.43,0,0,1,183,4.77,1.8,1.8,0,0,1,182.58,3.57Zm.54-.36h1.79a1.3,1.3,0,0,0-.16-.47.66.66,0,0,0-.25-.27.73.73,0,0,0-.25-.11l-.22,0a.75.75,0,0,0-.6.28A1.33,1.33,0,0,0,183.12,3.21Z"/><path d="M186.12,5.2V2h.5V2.6a1.71,1.71,0,0,1,.21-.26,1.8,1.8,0,0,1,.41-.27,1.67,1.67,0,0,1,.64-.15V2.4a1.21,1.21,0,0,0-.37.07,1.6,1.6,0,0,0-.4.19.91.91,0,0,0-.33.41,1.59,1.59,0,0,0-.13.64V5.2Z"/><path d="M98.15,34.11a1.76,1.76,0,0,1,.44-1.2,1.31,1.31,0,0,1,1-.49,1.1,1.1,0,0,1,.41.07,1.37,1.37,0,0,1,.4.23,1.16,1.16,0,0,1,.33.47,2.62,2.62,0,0,1,.15.76v.2H98.66A1.27,1.27,0,0,0,99,35a.94.94,0,0,0,.73.34,1.84,1.84,0,0,0,1.09-.39l0,.47a2,2,0,0,1-1.14.37,1.43,1.43,0,0,1-1.13-.51A1.8,1.8,0,0,1,98.15,34.11Zm.54-.36h1.79a1.3,1.3,0,0,0-.16-.47.79.79,0,0,0-.5-.38l-.22,0a.75.75,0,0,0-.6.28A1.33,1.33,0,0,0,98.69,33.75Z"/><path d="M101.6,31.29v-.46h2.59v.46Z"/><path d="M107.29,35.5l.09-.49.09.06.12.06.13.07.16.07.18,0,.21,0h.23a.75.75,0,0,0,.52-.15.46.46,0,0,0,.15-.34.38.38,0,0,0-.13-.3.63.63,0,0,0-.27-.16l-.32-.07-.37-.09a1.23,1.23,0,0,1-.52-.32.77.77,0,0,1-.22-.57,1.06,1.06,0,0,1,0-.31,1.14,1.14,0,0,1,.17-.3.74.74,0,0,1,.37-.25,1.7,1.7,0,0,1,.59-.09,2.71,2.71,0,0,1,1,.22l-.08.48-.08,0-.09,0-.08,0-.09,0-.09,0-.1,0-.11,0-.12,0h-.28A.63.63,0,0,0,108,33a.39.39,0,0,0-.14.3.37.37,0,0,0,.19.35,1.84,1.84,0,0,0,.54.16,1.93,1.93,0,0,1,.49.13,1.14,1.14,0,0,1,.44.35.87.87,0,0,1,.18.55,1.13,1.13,0,0,1-.05.32,1,1,0,0,1-.17.32.81.81,0,0,1-.37.25,1.47,1.47,0,0,1-.58.1A2.56,2.56,0,0,1,107.29,35.5Z"/><path d="M110.1,34.11a1.75,1.75,0,0,1,.43-1.2,1.32,1.32,0,0,1,1-.49,1.14,1.14,0,0,1,.41.07,1.33,1.33,0,0,1,.39.23,1,1,0,0,1,.33.47,2.09,2.09,0,0,1,.15.76v.2H110.6a1.37,1.37,0,0,0,.33.88,1,1,0,0,0,.74.34,1.87,1.87,0,0,0,1.09-.39l0,.47a2,2,0,0,1-1.14.37,1.42,1.42,0,0,1-1.13-.51A1.8,1.8,0,0,1,110.1,34.11Zm.54-.36h1.78a1.53,1.53,0,0,0-.15-.47A.74.74,0,0,0,112,33a.69.69,0,0,0-.26-.11l-.21,0a.75.75,0,0,0-.6.28A1.24,1.24,0,0,0,110.64,33.75Z"/><path d="M113.29,34.11a1.76,1.76,0,0,1,.44-1.2,1.32,1.32,0,0,1,1-.49,1.14,1.14,0,0,1,.41.07,1.33,1.33,0,0,1,.39.23,1.16,1.16,0,0,1,.33.47A2.09,2.09,0,0,1,116,34v.2H113.8a1.27,1.27,0,0,0,.33.88.94.94,0,0,0,.73.34A1.89,1.89,0,0,0,116,35l0,.47a2,2,0,0,1-1.14.37,1.41,1.41,0,0,1-1.12-.51A1.76,1.76,0,0,1,113.29,34.11Zm.54-.36h1.79a1.3,1.3,0,0,0-.16-.47.79.79,0,0,0-.5-.38l-.21,0a.75.75,0,0,0-.61.28A1.33,1.33,0,0,0,113.83,33.75Z"/><path d="M116.5,34.15a1.94,1.94,0,0,1,.37-1.21,1.12,1.12,0,0,1,.91-.48,1.66,1.66,0,0,1,1,.39V30.54h.54v5.2h-.56v-.37a1.49,1.49,0,0,1-1.06.45,1.05,1.05,0,0,1-.89-.5A2,2,0,0,1,116.5,34.15Zm.56,0a1.28,1.28,0,0,0,.3.94,1,1,0,0,0,.67.29.79.79,0,0,0,.54-.2.58.58,0,0,0,.23-.39V33.4a.39.39,0,0,0-.15-.28.79.79,0,0,0-.53-.22h0a.83.83,0,0,0-.34.07,1.17,1.17,0,0,0-.33.2.93.93,0,0,0-.27.38A1.55,1.55,0,0,0,117.06,34.14Z"/></g></g></svg>